<?xml version="1.0" encoding="utf-8"?>
<!-- Generator: Adobe Illustrator 22.0.1, SVG Export Plug-In . SVG Version: 6.00 Build 0)  -->
<svg version="1.1" id="ICOPS_x5F_logo_x5F_fnl07_xA0_Image_1_"
	 xmlns="http://www.w3.org/2000/svg" xmlns:xlink="http://www.w3.org/1999/xlink" x="0px" y="0px" viewBox="0 0 602.8 358.8"
	 style="enable-background:new 0 0 602.8 358.8;" xml:space="preserve">
<style type="text/css">
	.st0{fill:#30468C;}
	.st1{fill:#FCFCFD;}
	.st2{fill:#283F87;}
	.st3{fill:#241F1C;}
	.st4{fill:#25201E;}
	.st5{fill:#27221F;}
	.st6{fill:#9C6937;}
	.st7{fill:#F3C533;}
	.st8{fill:#1E1E1D;}
	.st9{fill:#FDFCFB;}
	.st10{fill:#FCFBFB;}
	.st11{fill:#F9FAFB;}
	.st12{fill:#191A1A;}
	.st13{fill:#F6F6F6;}
	.st14{fill:#F8F8F9;}
	.st15{fill:#FFFFFF;}
	.st16{font-family:'PTSerif-Regular';}
	.st17{font-size:53.5952px;}
	.st18{opacity:0.8;fill:#FFFFFF;}
	.st19{font-family:'PTSans-Regular';}
	.st20{font-size:34.4791px;}
</style>
<g>
	<path class="st0" d="M304.7,10c22.7,0.2,45.3,8,64.9,23.9c19.2,15.6,31.7,35.5,36.6,59.8c5.5,27.3,0.6,52.9-14.7,76.2
		c-16.3,24.8-39.3,40.3-68.4,46c-30.7,6-59.1-0.2-84.4-18.6c-21.5-15.7-35.3-36.7-40.7-62.8c-5.1-25.2-1.3-49.1,11.6-71.3
		c15.7-26.7,38.9-43.4,69-50.6C286.4,10.8,294.2,10.1,304.7,10z M384.4,115.8c0-45-36.7-81.8-81.6-81.8c-44.8,0-81.4,36.7-81.5,81.7
		s36.5,81.7,81.5,81.8C347.6,197.7,384.4,160.8,384.4,115.8z"/>
	<path class="st1" d="M304.6,13c22,0.2,44,7.7,63.1,23.2c18.7,15.1,30.8,34.5,35.6,58.1c5.3,26.5,0.6,51.4-14.3,74
		c-15.9,24.1-38.2,39.2-66.5,44.7c-29.8,5.9-57.4-0.2-82-18.1c-20.9-15.2-34.3-35.6-39.5-61c-5-24.4-1.3-47.7,11.3-69.2
		c15.2-26,37.8-42.2,67-49.1C286.8,13.7,294.4,13,304.6,13z M382,115.8c0-43.7-35.7-79.5-79.3-79.5s-79.1,35.6-79.2,79.4
		c-0.1,43.7,35.4,79.4,79.2,79.5C346.3,195.3,382.1,159.5,382,115.8z"/>
	<path class="st2" d="M382,115.8c0,43.7-35.7,79.6-79.3,79.5c-43.7-0.1-79.2-35.9-79.1-79.6c0.1-43.8,35.6-79.4,79.2-79.4
		S382,72,382,115.8z M360.9,122c-0.1-0.1-0.2-0.2-0.3-0.3c-1.3-1.1-2.8-1.9-4.3-2.8c-0.6-2.5,0.1-3.4,2.7-3.5
		c0.6,0.4,0.9,1.1,1.2,1.8c0.1,0.5,0.3,0.8,0.9,0.7c0.7,0,0.3-0.6,0.5-0.9c0.6,0.3,0.7,0.9,1,1.5c0.2,0.5,0.4,0.9,0.9,0.7
		c0.5-0.2,0.3-0.7,0.2-1c0-0.4-0.1-0.9-0.1-1.3c0-2.1,0-2.1-2.2-2.2c0.2-1.2-0.3-1.7-1.5-1.5c-0.6,0.1-1.2-0.1-1.8-0.3
		c-3.1-0.9-5.8-0.3-7.9,2.3c-0.1-1.5,0.4-3.1,0.1-4.6c0.1-0.1,0.2-0.2,0.3-0.3c7.9-6.2,15.7-12.5,23.6-18.7c0.4-0.3,1.2-0.5,0.9-1.3
		c-0.3-0.8-1-0.4-1.6-0.4c-12.9-0.1-25.7-0.2-38.6-0.3c-0.2-0.3-0.4-0.6-0.4-0.9l0,0c1.3,0,2.6,0.4,3.9,0.2c0.4,0,0.8,0.1,0.9-0.5
		c0-0.5-0.3-0.6-0.7-0.7c-2.4-0.9-4.5-2.2-5.6-4.7c-0.3-0.6-0.7-1.1-1.3-1.4c-0.7-0.3-0.5-0.5-0.2-0.9c0.2-0.3,0.4-0.6,0.7-0.8
		c1.2-1.2,1.2-1.9,0-3.2c-1.8-1.9-4.1-3.1-6.4-4.3c-3.2-1.7-6.7-2.8-10.2-3.6c-4-10-8-19.9-12-29.9c-0.2-0.4-0.2-0.9-0.8-0.8
		c-0.6,0-0.6,0.5-0.8,0.9c-3.7,9.9-7.3,19.9-10.9,29.8c-0.1,0.3-0.4,0.6-0.1,1l0,0c-0.2-0.1-0.2,0.1-0.3,0.2
		c-1.7,0.4-3.3,1.2-4.9,1.8c-3.4,1.2-6.5,2.9-9.4,5.1c-1.4,1.1-1.6,1.7-0.6,3.2c0.1,0.1,0.2,0.3,0.3,0.4c0.5,0.6,0.6,1.1-0.4,1.3
		c-1,0.3-1.9,0.9-2.4,1.8c-1.6,2.9-4.1,4.6-6.8,6.1c-10.5,0.1-20.9,0.1-31.4,0.2c-1.8,0-3.6,0-5.4,0c-0.4,0-0.8-0.1-1,0.5
		s0.2,0.7,0.5,0.9c0.7,0.5,1.3,1,2,1.5c7,5.4,13.9,10.7,20.9,16.1c0,6.6,0,13.2,0,19.7c0,1.3-0.7,1.9-1.9,1.9c-0.8,0-0.8,0.5-0.8,1
		c0,0.8,0.5,0.5,0.9,0.5c0.5,0,1,0,1.6,0c-0.1,1.4,0,1.6,1.4,1.3c0.9-0.2,1.7-0.2,2.6-0.2c2.4,0,4.8-0.1,7.2,0.2
		c0.4,0.1,0.9,0.2,1-0.5c0.1-0.6-0.2-0.9-0.8-0.9c-0.5,0-0.9-0.2-1.4-0.3c-0.1-0.4,0.1-1.1-0.6-1.1c0-4.8,0-9.6,0-14.4
		c1.4,1.1,2.8,2.1,4.2,3.2c0.3,3.3,1.4,6.2,3.4,8.9c-0.1,0.2-0.2,0.4-0.2,0.7c-4.6,15.6-9.2,31.2-13.8,46.8
		c-0.1,0.4-0.5,0.8,0.1,1.2s1-0.1,1.4-0.4c13.3-8.9,26.5-17.8,39.8-26.7c0.5,0.2,3.1,2.8,3.3,3.2c0.1,0.2,0.2,0.5,0.1,0.7
		c-0.3,0.6,0,1,0.2,1.5c0.4,0.9,1.2,1.9-0.2,2.7c-0.2,0.1-0.4,0.4-0.2,0.6c0.9,1,1.2,2.2,1.7,3.4c0.2,0.4,0.7,0.7,1.2,0.8
		c0.6,0.1,0-0.7,0.3-0.7c0.7,0.1,0.7,1.1,1.4,0.8c0.5-0.2-0.5-0.7-0.2-1.1c0.7,0.1,1.1,0.8,1.7,1.1c0-1.4,0.8-2.4,1.6-3.3
		c1,0.9,2.2,1.3,3.5,1.7c0.6,0.2,1.2,0.4,1.8,0c0.6,0.3,1.2,0.5,1.7,0s0.3-1.2,0.1-1.8c-0.1-0.3-0.3-0.5-0.5-0.8
		c-0.4-0.9,0.2-2.3,1.1-2.4c1.3-0.2,2.6-0.5,3.8-1c0.3,0.2,0.7,0.4,1,0.6c10.5,6.9,21.1,13.7,31.6,20.6c0.4,0.2,0.7,0.9,1.3,0.4
		c0.7-0.5,0.2-1,0-1.5c-2.3-7.1-4.5-14.1-6.8-21.2c-2.2-6.9-4.4-13.8-6.6-20.7c0.2,0,0.3,0,0.5,0c0.4,0,1,0.2,1-0.6s-0.4-0.8-1-0.8
		c-0.4,0-0.8-0.2-1.2-0.3c-0.1-0.4,0.1-0.9-0.3-1.3c-0.4-0.4-0.3-0.9-0.3-1.4c0-2.2,0-4.5,0-6.7c0-1,0.3-1.3,1.3-1.3
		c2.5,0.1,4.9-0.3,7.2-1.4c1.6-0.8,2.6-2.1,3.7-3.4c-0.7,3.1,0.3,5.5,3,7.2c0.7,0.4,1.4,0.8,2,1.2c1.1,0.7,2.3,1.2,3.2,2.2
		c0.5,0.6,0.7,1.2,0.4,2c-0.3,0.8-0.8,1.3-1.7,1.3c-0.9,0.1-1.8,0.2-2.5-0.3c0-0.8-0.6-1.4-0.8-2.1c-0.2-0.5,0-1.5-0.8-1.3
		c-0.9,0.1-0.3,1.1-0.5,1.6c-0.6-0.7-0.9-1.7-1.1-2.6c-0.1-0.5-0.3-0.5-0.8-0.5c-0.6,0-0.5,0.3-0.5,0.7c0,1.3,0.1,2.6-0.1,3.8
		c-0.1,1.3-0.1,2.2,1.6,2c0.2,0,0.4,0.1,0.7,0.2c0,0.4-0.1,0.9,0.6,0.9c1.4,0.1,2.7,0.5,4.1,0.9c1.3,0.4,2.6,0.3,3.9-0.1
		c3.8-1.2,5.1-5.1,3.7-8.5c-0.5-1.3-1.4-2.4-2.8-2.8h0.1C361.3,122,361.2,121.9,360.9,122L360.9,122z"/>
	<path class="st3" d="M350.2,33.2c0.1,4.3-3.1,7.8-6.9,7.8c-4.1,0-7.5-3.1-7.6-6.9c0-4.3,3-7.9,6.8-7.9
		C346.8,26.1,350.1,29.1,350.2,33.2z M339,34.9c0,0.3,0,0.9,0.1,1.4c0.3,1.5,1,2.7,2.6,3.1c1.6,0.3,2.7-0.6,3.5-1.8
		c1.3-1.8,1.9-3.8,1.9-6.1c0-2.1-1-3.5-2.7-3.9c-1.5-0.4-3,0.3-4.1,2.1C339.6,31.2,339.1,32.9,339,34.9z"/>
	<path class="st3" d="M369.3,51.2c-1.5-0.1-2.7-0.7-3.7-1.7c-0.6-0.6-1-0.5-1.4,0.2c-0.5,0.7-1.1,1.4-1.6,2.1c-0.5,0.6-1,1.2-0.3,2
		c0.2,0.2,0.2,0.4,0,0.5c-0.2,0.2-0.4,0-0.5-0.1c-1.2-1.2-2.5-2.3-3.8-3.3c-0.2-0.1-0.3-0.3-0.2-0.5c0.1-0.2,0.4-0.2,0.5-0.1
		c0.7,0.5,1.2,0,1.6-0.5c2.1-2.6,4.2-5.1,6.3-7.7c0.5-0.6,0.8-1.1,0.2-1.8c-0.2-0.2-0.1-0.4,0-0.5s0.3,0,0.4,0.1
		c1.8,1.9,4.1,3.1,5.7,5.1c0.9,1.1,1.3,2.4,0.5,3.8C372.1,50.2,371,51.2,369.3,51.2z M370.7,45.3c0-0.6-0.2-1.2-0.8-1.6
		c-0.3-0.3-0.6-0.4-0.9,0c-1.1,1.4-2.2,2.7-3.3,4.1c-0.2,0.2-0.4,0.4,0,0.7c0.7,0.5,1.3,0.9,2.2,0.6
		C369.2,48.7,370.7,46.7,370.7,45.3z"/>
	<path class="st4" d="M259.7,32.4c0.1-4.1,2.2-6.6,5.8-7.3c0.4-0.1,0.9-0.1,1.3-0.2c1.7-0.3,1.7-0.3,2.4,1.2c0.3,0.7,0.6,1.3,0.8,2
		c0.1,0.2,0.4,0.5,0.1,0.7c-0.4,0.3-0.5-0.2-0.7-0.4c-0.2-0.2-0.4-0.5-0.6-0.7c-1.3-1.4-2.7-1.8-4.1-1.2c-1.4,0.6-2.3,2-2.2,3.8
		c0.2,2.3,1,4.3,2.7,5.8c2.4,2.1,5.3,1.5,6.8-1.3c0.1-0.3,0.1-0.9,0.6-0.7c0.5,0.2,0.2,0.7,0.1,1.1c-0.7,2.6-2.5,4.1-5,4.6
		c-2.4,0.5-4.3-0.4-5.9-2.2C260.3,36,259.7,34.1,259.7,32.4z"/>
	<path class="st4" d="M325.4,202.7c0,2.8-1.6,4.7-4.4,5.2c-2.5,0.5-4.7-0.7-5.6-3.1c-0.4-0.9-0.6-1.9-0.6-2.9
		c-0.1-2.9,1.5-4.8,4.4-5.4c2.5-0.5,4.7,0.7,5.7,3.3C325.2,200.7,325.5,201.8,325.4,202.7z M323.2,202.8c-0.1-0.9-0.3-2-0.8-2.9
		c-0.7-1.2-1.7-1.7-3-1.4c-1.3,0.3-2.2,1.2-2.4,2.5c-0.1,1.1,0.1,2.1,0.6,3.1c0.7,1.5,1.9,2.1,3.4,1.8
		C322.3,205.7,323.2,204.4,323.2,202.8z"/>
	<path class="st5" d="M300.5,24.8c0.5-0.4,0.9-0.8,1.4-1.1c2-1.2,4-0.2,4.1,2.1c0.1,1.6,0,3.1,0,4.7c0,0.6-0.2,1.3,0.6,1.8
		c0.4,0.2,0.3,0.6-0.2,0.5c-1.2,0-2.3,0-3.5-0.1c-0.1,0-0.3,0.1-0.4-0.1c-0.1-0.2,0-0.4,0.2-0.5c0.4-0.1,0.6-0.4,0.6-0.8
		c0.2-1.8,0.2-3.7,0.1-5.5c-0.1-0.8-0.7-1-1.4-0.9c-0.7,0.1-1.4,0.3-1.4,1.2c0,1.6,0,3.3,0,4.9c0,0.5,0.1,0.9,0.6,1.1
		c0.2,0.1,0.4,0.2,0.3,0.4c-0.1,0.2-0.3,0.2-0.5,0.2c-1.1,0-2.2,0-3.2-0.1c-0.2,0-0.5,0.1-0.6-0.2c-0.1-0.3,0.2-0.3,0.3-0.4
		c0.5-0.3,0.6-0.7,0.6-1.2c0-1.7,0.1-3.4,0.1-5c0-0.4,0.1-0.8-0.3-1.1c-1.2-0.7-0.2-0.7,0.3-0.9c0.3-0.1,0.5-0.1,0.8-0.2
		C300.3,23.1,300.3,23.1,300.5,24.8z"/>
	<path class="st4" d="M227.5,61.5c0-0.7-0.1-1.5,0-2.2c0.4-2.3,2.4-3,4.2-1.6c1,0.7,1.9,1.5,2.8,2.3c0.8,0.7,1.5,1.6,3.1,1
		c-1,1.4-1.8,2.4-2.7,3.5c-0.1,0.1-0.3,0.2-0.4,0.2c-0.3,0-0.3-0.3-0.2-0.5c0.2-0.6-0.2-0.9-0.5-1.2c-1.2-1-2.3-2-3.5-2.9
		c-0.6-0.5-1.3-0.7-1.9,0.1c-0.5,0.7-0.9,1.4,0.1,2.2c1.1,0.9,2.2,1.8,3.3,2.7c0.3,0.3,0.7,0.6,1.2,0.5c0.3,0,0.6-0.5,0.8,0
		c0.1,0.3-0.2,0.5-0.4,0.7c-0.6,0.8-1.3,1.6-1.9,2.5c-0.1,0.2-0.2,0.4-0.5,0.3c-0.2-0.1-0.2-0.3-0.1-0.5c0.2-0.6-0.2-0.9-0.6-1.2
		c-1.3-1.1-2.6-2.2-3.9-3.2c-0.3-0.3-0.7-0.5-1.2-0.3c-0.6,0.3-0.6,0-0.5-0.5c0.1-0.3,0.3-0.7,0.4-1C226,60.5,226,60.5,227.5,61.5z"
		/>
	<path class="st4" d="M238.5,173.1c0.7,0,1.7,1.8,1.4,2.4c-1.6,3.1-3.2,6.2-4.8,9.4c-0.3,0.5-0.4,0.7-0.9,0.1
		c-0.8-0.8-1.2-1.6-0.3-2.6c0.6-0.7,0.5-1.4-0.2-2c-0.2-0.2-0.4-0.4-0.5-0.6c-0.8-1.3-1.8-2.2-3.4-1.1c-0.4,0.2-1.8-1-1.8-1.5
		c0-0.3,0.2-0.3,0.4-0.4c3.3-1.2,6.6-2.3,9.9-3.5C238.3,173.1,238.4,173.1,238.5,173.1z M237.5,175.6c-0.7,0.3-1.1,0.4-1.5,0.6
		c-2.6,1-2.6,1-0.8,3c0,0,0.1,0,0.3,0.1C236.1,178.1,236.8,177,237.5,175.6z"/>
	<path class="st4" d="M244.7,192.1c-1.6-0.2-3-1.4-4-3c-0.9-1.4-0.5-2.8,0.5-4.1c1.3-1.8,2.7-3.5,4.1-5.3c0.4-0.6,0.8-0.5,1.1,0
		c0.3,0.4,1.4,0.5,0.6,1.5c-1.4,1.7-2.7,3.4-4,5.2c-0.8,1.1-0.6,2.1,0.4,2.9c1.1,0.9,1.9,0.9,2.8-0.2c1.4-1.6,2.6-3.3,3.9-5
		c0.4-0.5,0.7-1,1.4-0.3c0.5,0.5,1.2,0.8,0.4,1.7c-1.4,1.6-2.6,3.3-4,4.9C247.2,191.3,246.3,192.1,244.7,192.1z"/>
	<path class="st4" d="M284.9,205.1c0.6-1.3,1.2-2.6,1.7-3.9c0.3-0.9,0.9-0.5,1.4-0.5c0.6,0,0.9,0.2,1,0.9c0,1.4,0.2,2.8,0.5,4.3
		c0.5-1,0.9-2,1.4-3c0.8-1.7,0.8-1.7,2.7-1.1c-1.2,2.4-2.4,4.7-3.6,7c-0.4,0.8-1,0.2-1.5,0.2s-0.8-0.2-0.8-0.8
		c-0.1-1.4-0.2-2.8-0.5-4.3c-0.5,1.1-1.1,2.2-1.5,3.3c-0.4,1-0.9,1.2-1.9,0.9c-0.5-0.2-0.7-0.3-0.8-0.8c-0.3-2.2-0.6-4.4-0.9-6.7
		c0-0.3-0.5-1,0.3-1c0.6,0,1.5-0.3,1.6,0.9c0.1,1.5,0.3,2.9,0.5,4.4C284.7,205,284.8,205.1,284.9,205.1z"/>
	<path class="st4" d="M293.2,23.4c0.3,2.2,0.5,4.2,0.8,6.3c0.1,0.7-0.2,1.6,0.9,2c0.3,0.1,0.2,0.4-0.2,0.6c-0.5,0.2-1,0.4-1.4,0.6
		c-1.3,0.7-1.3,0.7-1.6-0.7c-0.5-0.1-0.5,0.3-0.7,0.5c-0.9,0.9-1.9,1.4-3.2,1.1c-1.3-0.4-1.6-1.4-1.8-2.6c-0.2-1.3-0.3-2.6-0.5-3.9
		c-0.1-0.5,0-1.1-0.8-1.3c-0.4-0.1-0.3-0.4,0-0.6c0.3-0.2,0.6-0.3,0.9-0.3c0.7-0.2,1.5-1.2,2.1-0.7c0.5,0.4,0.3,1.5,0.4,2.3
		c0.2,1.4,0.3,2.8,0.5,4.2c0.1,0.9,0.6,1.4,1.5,1.2c0.8-0.2,1.5-0.6,1.3-1.7c-0.2-1.3-0.3-2.6-0.5-3.9c-0.1-0.4,0-0.9-0.6-1.1
		c-0.5-0.2-0.2-0.5,0.2-0.6C291.4,24.2,292.2,23.8,293.2,23.4z"/>
	<path class="st3" d="M221.5,86.9c0,0.1-0.1,0.2-0.1,0.3c-0.6,1.5-1.2,3-1.7,4.5c-0.1,0.2-0.1,0.5-0.4,0.5c-0.4,0-0.4-0.4-0.3-0.6
		c0.2-0.7-0.3-1-0.8-1.2c-3.1-1.3-6.2-2.6-9.3-3.9c-0.6-0.3-1.2-0.3-1.5,0.4c-0.1,0.2-0.2,0.3-0.5,0.2c-0.3-0.2-0.1-0.4,0-0.6
		c0.6-1.5,1.2-3,1.8-4.6c0.1-0.2,0.2-0.5,0.5-0.4s0.3,0.3,0.2,0.5c-0.3,0.8,0.3,1.2,0.9,1.4c3,1.3,6.1,2.6,9.2,3.8
		c0.6,0.2,1.2,0.3,1.5-0.4c0.1-0.2,0.2-0.3,0.5-0.3C221.4,86.5,221.5,86.7,221.5,86.9z"/>
	<path class="st4" d="M238.5,48.5c2.5,0,4.9,2.4,4.9,5s-2.4,5.1-4.8,5c-2.4-0.1-4.7-2.6-4.7-5.2C233.8,50.8,236,48.5,238.5,48.5z
		 M241.6,54.5c-0.1-1.8-3.3-4.4-5-4c-1.1,0.2-1.7,1.4-1.1,2.5c0.8,1.7,2.2,2.8,4.1,3.1C240.7,56.3,241.7,55.5,241.6,54.5z"/>
	<path class="st4" d="M278.4,35.9c-2.5,0-4.4-2-4.4-4.9c0-2.8,2-4.9,4.7-5c2.6-0.1,4.7,2.3,4.7,5.2
		C283.4,33.8,281.2,35.9,278.4,35.9z M281.1,32.2c-0.2-1.6-0.6-3.1-1.7-4.2c-0.5-0.6-1.2-0.9-2-0.6c-0.8,0.3-1.1,1-1.1,1.8
		c0,1.7,0.5,3.1,1.7,4.3c0.6,0.6,1.3,0.9,2.2,0.6C281,33.7,281.1,33,281.1,32.2z"/>
	<path class="st4" d="M372.4,53.5c2.5,0,4.7,2.2,4.7,4.8s-2.3,5-4.8,5s-4.9-2.4-4.8-5C367.4,55.8,369.8,53.5,372.4,53.5z
		 M371.2,61.6c1.8,0,4.5-3.3,4.1-5.1c-0.2-1.1-1.1-1.6-2.3-1.2c-1.5,0.5-3.3,2.8-3.4,4.4C369.6,60.8,370.3,61.6,371.2,61.6z"/>
	<path class="st4" d="M342.7,189.8c0.1-0.1,0.1-0.2,0.2-0.2c1.7-1.2,1.7-1.2,3.2,0.2c1.2,1.1,2.5,2.3,3.7,3.4c0.2,0.2,0.4,0.6,1,0.5
		c0-1.2-0.4-2.4-0.6-3.6c-0.2-1.3-0.5-2.5-0.8-3.8c-0.1-0.5,1.3-1.8,1.8-1.7c0.3,0.1,0.2,0.4,0.3,0.6c0.6,3.4,1.1,6.9,1.8,10.3
		c0.2,1.1-0.7,1-1.2,1.5c-0.4,0.3-0.8,0.4-1.2,0C348.2,194.6,345.5,192.2,342.7,189.8z"/>
	<path class="st5" d="M352.5,35.8c0.7,0.3,0.7-0.2,0.9-0.5c0.6-0.9,1.3-1.8,2.2-2.3c1.3-0.8,2.9-0.5,3.8,0.7
		c0.5,0.6,0.5,1.3,0.2,1.9c-0.2,0.4-0.4,0.8-0.9,0.6c-0.5-0.2-0.8-0.5-0.7-1.1c0.1-0.2,0.2-0.4,0.3-0.7s0.2-0.6-0.1-0.7
		c-0.3-0.2-0.5-0.1-0.7,0.2c-0.9,1-1.5,2.2-2.1,3.3c-0.3,0.5,0.3,0.5,0.5,0.7c0.2,0.2,0.7,0.2,0.4,0.7c-0.3,0.5-0.6,0.2-0.8,0
		c-0.6-0.6-0.9-0.3-1.2,0.3c-0.9,1.6-1.9,3.1-2.8,4.7c-0.3,0.4-0.6,0.9-0.3,1.5c0.1,0.2,0.4,0.5,0.1,0.7c-0.2,0.2-0.4-0.1-0.6-0.2
		c-0.9-0.6-1.8-1.2-2.7-1.8c-0.2-0.1-0.5-0.2-0.4-0.5c0.1-0.2,0.3-0.2,0.5-0.2c0.6,0.1,0.9-0.4,1.1-0.7c1-1.7,2-3.3,3-5
		c0.2-0.3,0.4-0.5,0.1-0.8C351.6,35.9,352.1,35.8,352.5,35.8z"/>
	<path class="st4" d="M304.8,202.6c0.7-0.7,1.3-1.1,2.1-1.3c1.7-0.2,2.8,0.5,3,2.1c0.2,1.7,0.3,3.4,0.5,5.1c0.1,1.1-0.7,0.7-1.2,0.9
		s-0.9,0-0.9-0.7c-0.1-1.4-0.3-2.9-0.4-4.3c-0.1-0.8-0.3-1.5-1.3-1.5c-0.9,0-1.4,0.6-1.5,1.5c-0.1,1.4,0.1,2.9,0.3,4.3
		c0.1,1.1-0.6,0.9-1.2,1.1c-0.8,0.2-0.9-0.3-0.9-0.8c-0.3-3.2-0.5-6.4-0.8-9.5c-0.1-0.9,0.5-0.8,1-0.8c0.6,0,1.1-0.2,1.1,0.7
		C304.5,200.4,304.7,201.4,304.8,202.6z"/>
	<path class="st4" d="M327.3,22.4c2.2-0.1,2.2-0.1,1.7,2.1c-0.9,3.4-1.8,6.9-2.7,10.3c-0.1,0.5-0.3,0.9,0,1.4
		c0.1,0.2,0.6,0.4,0.3,0.8c-0.2,0.2-0.5-0.1-0.8-0.1c-1-0.3-1.9-0.5-2.9-0.8c-0.2,0-0.4,0-0.5-0.3c0-0.2,0.2-0.4,0.4-0.4
		c0.7-0.1,0.8-0.6,0.9-1.1c0.9-3.3,1.7-6.6,2.6-9.9c0.1-0.2,0.2-0.6,0.1-0.7C325.1,21.9,326.7,22.5,327.3,22.4z"/>
	<path class="st3" d="M224.3,80.8c-0.7,1.3-1.4,2.6-2,3.9c-0.2-1.5-1.4-1.8-2.4-2.3c-2.4-1.4-4.9-2.7-7.3-4c-0.5-0.3-1-0.7-1.6-0.1
		c-0.4,0.3-0.5-0.1-0.4-0.5c0.2-1,0.4-2,0.5-3.1c0.4-0.1,0.7,0.2,1.1,0.4c3.2,1.8,6.4,3.5,9.7,5.3c0.8,0.4,1.5,0.9,2.4,0.2
		C224.2,80.6,224.2,80.7,224.3,80.8z"/>
	<path class="st3" d="M227.2,75.5c-0.6,1.1-1.3,2.3-1.9,3.4c-0.1,0.2-0.2,0.4-0.4,0.3c-0.3-0.1-0.2-0.3-0.2-0.5
		c0.1-0.6-0.3-0.9-0.7-1.1c-2.9-1.8-5.8-3.6-8.6-5.4c-0.3-0.2-0.7-0.4-1.1-0.2c-1,0.6-0.7-0.1-0.6-0.6c0.2-0.7,0.4-1.4,0.4-2.1
		c0.1-1,0.4-0.8,1-0.4c3.1,1.9,6.2,3.9,9.3,5.8C225.2,75.3,226,76,227.2,75.5z"/>
	<path class="st4" d="M375.3,70c-0.8-1.1-1.6-2.2-2.3-3.3c-0.1-0.1-0.2-0.3-0.1-0.4c0.1-0.1,0.3-0.1,0.4,0c0.7,0.4,1.1-0.1,1.6-0.4
		c2.6-1.9,5.2-3.9,7.8-5.8c0.4-0.3,0.9-0.6,0.7-1.3c-0.1-0.4,0.3-0.5,0.6-0.2c0.7,0.6,1.5,1.1,2.2,1.6c0.7,0.5-0.1,0.7-0.3,0.9
		c-3,2.3-6.1,4.6-9.1,6.8c-0.7,0.5-1.6,0.9-1.1,2.2C375.6,70,375.4,70,375.3,70z"/>
	<path class="st4" d="M393.6,85.9c0,0.7-0.2,1.3-0.6,1.9c-0.4,0.7-1,1.3-1.7,1.3c-0.6,0-0.6-0.9-0.8-1.5c-0.4-0.9-0.8-1.9-1.1-2.9
		c-0.2-0.6-0.4-0.7-0.9-0.3c-1,0.6-1.8,1.3-1.8,2.5s0.6,2.1,1.7,2.7c0.3,0.2,0.7,0.1,0.7,0.6c-0.1,0.5-0.6,0.3-0.9,0.3
		c-1.9-0.1-3.3-1.2-3.8-2.9c-0.5-1.7,0.1-3.3,1.7-4.4c1.2-0.8,2.6-1.4,4.2-1.2C392.1,82.2,393.6,83.9,393.6,85.9z M390.9,83.5
		c-0.4,0.1-1,0-1.1,0.6c-0.1,0.4,1,2.5,1.2,2.4c0.7-0.3,1.4-0.7,1.4-1.6S391.8,83.6,390.9,83.5z"/>
	<path class="st4" d="M357.6,193.5c-2.1,0-4-2.1-4.1-4.4c0-2.1,2-4.2,4.1-4.2c2.2,0,4.2,2.1,4.2,4.4S359.8,193.5,357.6,193.5z
		 M357.3,186.9c-1,0-1.8,0.8-1.8,1.9c0,1.3,1.4,2.9,2.6,2.8c1,0,1.7-0.8,1.7-1.9C359.8,188.3,358.5,186.9,357.3,186.9z"/>
	<path class="st4" d="M269.1,198.3c0,2.4-1.8,4.5-4,4.5c-2.2,0-4.2-1.8-4.2-3.9c-0.1-2.4,1.8-4.6,3.9-4.7
		C267.1,194.2,269.1,196.1,269.1,198.3z M263,199c0,1.2,0.7,2,1.7,2c1.2,0,2.3-1.3,2.4-2.8c0-1.1-0.7-2-1.7-2
		C264.2,196.1,263,197.4,263,199z"/>
	<path class="st5" d="M385.5,73.4c2.2,0,4.3,1.9,4.4,4.1c0.1,0.8-0.2,1.4-0.7,1.9s-1.2,1-1.8,0.1c-0.5-0.7-0.9-1.5,0.1-2.1
		c0.2-0.1,0.5-0.3,0.7-0.5c0.7-0.7,0.5-1.4-0.4-1.8c-1.4-0.6-4,0.7-4.7,2.4c-0.6,1.5,0.1,2.9,1.8,3.7c0.2,0.1,0.5,0,0.5,0.4
		c-0.1,0.4-0.4,0.3-0.7,0.4c-1.7,0.2-3.3-0.6-4-2c-0.8-1.6-0.7-3.3,0.4-4.6C382.2,74.3,384,73.4,385.5,73.4z"/>
	<path class="st5" d="M337.8,200.2c0.3,0.9,0.9,1.4,1.7,1.3c0.8,0,1.2-0.5,1.4-1.4c0.2-0.8,1.2-0.7,1.8-0.6c0.5,0.1,0.1,0.8,0,1.1
		c-0.4,1.5-1.6,2.2-3,2.5c-1.3,0.3-2.4-0.1-3.2-1.1c-0.9-1.1-1.4-2.4-1.3-3.9c0.1-1.9,1.5-3.3,3.4-3.4c1.7-0.1,3.4,1.2,3.9,2.9
		c0.2,0.6-0.3,0.6-0.6,0.7C340.5,199.1,339.1,199.7,337.8,200.2z M337.3,199c0.8-0.3,1.6-0.7,2.3-0.9c0.6-0.2,0.4-0.5,0.2-0.9
		c-0.5-0.6-1.1-0.8-1.8-0.5C337,197.2,337,198,337.3,199z"/>
	<path class="st5" d="M313.1,24.2c2.1,0,3.4,1.1,3.3,2.8c-0.1,0.7-0.3,1.2-1.1,1.1c-0.8-0.1-1.5-0.2-1.5-1.2v-0.1
		c-0.1-0.7,0.3-1.7-0.8-1.9c-1-0.1-1.4,0.7-1.8,1.5c-0.4,1.1-0.5,2.2-0.2,3.3c0.5,1.9,2.5,2.5,4.2,1.4c0.2-0.1,0.4-0.5,0.7-0.3
		c0.4,0.3,0,0.6-0.1,0.8c-1,1.8-2.6,2.5-4.4,2.1c-1.7-0.4-2.8-1.8-3-3.7C308.1,26.9,310.2,24.2,313.1,24.2z"/>
	<path class="st5" d="M374.3,178.7c-1.7-0.2-3-1.2-3.9-2.9c-0.7-1.4-0.5-2.8,0.5-4c1.5-1.8,4-1.8,5.6,0c0.4,0.4,0.1,0.6-0.1,0.9
		c-0.8,1-1.6,2-2.5,2.9c-0.6,0.7-0.2,0.9,0.4,1.1c1.2,0.4,2.2-0.5,2-1.7c-0.1-0.5,0.8-1.7,1.2-1.8c0.4,0,0.4,0.4,0.5,0.6
		C378.9,175.8,376.9,178.6,374.3,178.7z M372.6,175.2c0.6-0.7,1.1-1.3,1.7-2c0.4-0.4,0.1-0.6-0.3-0.8c-0.7-0.3-1.3-0.3-1.8,0.4
		C371.6,173.7,371.8,174.5,372.6,175.2z"/>
	<path class="st4" d="M273.1,197.9c0.7-0.3,1.3-0.4,2-0.4c1.8,0.2,2.8,1.5,2.4,3.3c-0.5,1.7-1.1,3.3-1.6,5c-0.2,0.8-0.6,0.5-1,0.4
		c-0.5-0.2-1.3-0.1-0.9-1.1c0.5-1.2,0.8-2.5,1.2-3.7c0.3-0.8,0.6-1.8-0.5-2.3c-0.9-0.4-1.8,0.1-2.2,1.4c-0.5,1.2-0.9,2.4-1.2,3.6
		c-0.2,0.8-0.6,0.7-1.1,0.4c-0.5-0.2-1.2-0.2-0.9-1.1c0.7-1.9,1.3-3.9,2-5.8c0.1-0.4-0.1-1.2,0.8-1
		C272.5,196.7,273.4,196.7,273.1,197.9z"/>
	<path class="st5" d="M257.5,191.8c-0.1,0.2-0.1,0.7-0.4,1.1c-0.9,1.5-1.9,3.1-2.8,4.6c-0.4,0.7-0.8,0.2-1.1-0.1
		c-0.4-0.3-1.2-0.3-0.6-1.2c0.8-1.1,1.5-2.4,2.2-3.6c0.5-0.8,0.8-1.6-0.2-2.2c-0.9-0.6-1.7-0.2-2.3,0.6c-0.7,1.1-1.5,2.2-2.1,3.3
		c-0.3,0.5-0.6,0.8-1.2,0.3c-0.4-0.4-1.3-0.5-0.6-1.5c1.2-1.7,2.3-3.6,3.4-5.3c0.2-0.3,0.3-0.8,0.7-0.5c0.4,0.3,1.3,0.4,1.1,1
		c-0.2,0.8,0.2,0.6,0.6,0.6C255.9,189,257.4,190.2,257.5,191.8z"/>
	<path class="st5" d="M328.1,199.7c0.5-1,1-1.6,1.7-2c1.5-0.7,2.9-0.3,3.5,1.3s1.1,3.3,1.7,5c0.4,1-0.6,0.7-0.9,1
		c-0.4,0.2-0.9,0.5-1.1-0.3c-0.4-1.4-0.9-2.7-1.4-4.1c-0.3-0.8-0.6-1.5-1.6-1.2c-0.9,0.3-1.3,1-1.1,2c0.2,1.5,0.8,2.8,1.3,4.2
		c0.4,1.2-0.6,0.9-1,1.1c-0.5,0.3-0.8,0.2-1-0.5c-0.6-2-1.3-4-2-6c-0.2-0.5-0.5-1,0.3-1.2C327.2,198.8,327.9,198.3,328.1,199.7z"/>
	<path class="st5" d="M251.3,44.6c-0.6,0-1.1,0-1.7-0.1c-1.3-0.2-2.2-0.9-2.5-2.1c-0.3-1.2,0.1-2.3,1.2-3c0.7-0.5,1.6-0.8,2.3-1.2
		c0.3-0.1,0.4,0,0.6,0.3c0.3,0.5,0.9,0.9,0.8,1.4c-0.1,0.4-0.4,0.1-0.6-0.1c-0.8-0.5-1.6-0.6-2.3-0.1c-0.4,0.3-0.6,0.6-0.5,1.1
		c0.1,0.5,0.4,0.7,0.9,0.9c0.7,0.2,1.4,0,2.1,0c2.5,0,4.1,1.7,3.6,3.9c-0.2,0.8-0.7,1.4-1.4,1.9c-0.4,0.2-0.8,0.4-1.2,0.5
		c-0.6,0.1-1.3,0.8-1.7,0.4c-0.6-0.5-0.9-1.4-1.3-2.1c0-0.1,0-0.2,0-0.3c0.1-0.2,0.3-0.1,0.4,0c0.2,0.2,0.4,0.4,0.7,0.5
		c0.8,0.5,1.6,0.7,2.5,0.2c0.5-0.3,0.9-0.6,0.8-1.3c-0.1-0.6-0.6-0.8-1.1-0.8C252.3,44.5,251.8,44.6,251.3,44.6L251.3,44.6z"/>
	<path class="st4" d="M372.1,181.3c-0.1,1.4-1,2.5-2.4,3.2c-1.3,0.7-2.5,0.4-3.6-0.5c-2.8-2-2.9-5.3-0.2-7.1
		c0.6-0.4,1.2-0.6,1.9-0.6c0.6,0.1,1.3,0,1.4,0.7c0.1,0.6-1,1.3-1.7,1.3c-1.1-0.1-2,1-1.6,2.1c0.3,0.9,1,1.5,1.8,2
		c0.6,0.4,1.2,0.4,1.8,0s0.7-1,0.6-1.7c-0.1-0.6,0.6-1.7,1.2-1.7c0.3,0,0.3,0.2,0.4,0.3C371.9,179.8,372.1,180.5,372.1,181.3z"/>
	<path class="st5" d="M300.5,199c0,0.8,0,1.4,0,2.1c0,0.5,0.1,0.9,0.7,0.8c0.9-0.1,0.7,0.5,0.7,1c0,0.6-0.1,0.8-0.7,0.7
		s-0.7,0.2-0.7,0.7c0,1-0.1,2.1-0.1,3.1c0,0.5,0.1,1,0.6,0.9c1-0.2,0.7,0.5,0.8,1c0.1,0.7-0.4,0.7-0.9,0.8c-1.9,0.2-2.6-0.4-2.6-2.3
		c0-0.9,0.1-1.8,0-2.8c0-0.6,0.5-1.6-0.7-1.8c-0.3-0.1-0.1-1.5,0.3-1.6c0.3-0.1,0.6,0,0.6-0.4C298.2,199.7,299.5,199.6,300.5,199z"
		/>
	<path class="st5" d="M319.2,27.7c0-0.3,0-0.5,0-0.6c-1.4-1.7,0.5-1.1,0.9-1.1c2.2-0.2,2.2-0.2,1.7,2c-0.4,1.7-0.8,3.3-1.1,5
		c-0.1,0.5-0.3,1.1,0,1.6c0.2,0.2,0.6,0.4,0.3,0.8c-0.2,0.2-0.5-0.1-0.8-0.1c-1-0.2-1.9-0.5-2.9-0.7c-0.2,0-0.4,0-0.5-0.2
		c-0.1-0.3,0.2-0.4,0.4-0.5c0.4-0.1,0.6-0.3,0.6-0.6C318.4,31.4,318.8,29.4,319.2,27.7z"/>
	<path class="st5" d="M378.5,75.1c-0.1-0.1-0.2-0.2-0.3-0.3c-0.6-1-1.2-2-1.8-2.9c-0.1-0.2-0.3-0.3-0.1-0.5c0.1-0.2,0.3-0.1,0.4,0
		c0.6,0.5,1.1,0.1,1.5-0.2c1.3-0.9,2.7-1.8,4-2.7c0.3-0.2,0.7-0.4,0.7-0.8c-0.1-1.5,0.5-0.8,0.9-0.3c0.1,0.1,0.2,0.2,0.4,0.3
		c1.7,1.5,1.7,1.5-0.2,2.8c-1.2,0.8-2.5,1.6-3.7,2.5c-0.7,0.5-1.6,0.8-1.5,1.9C378.9,75,378.8,75.1,378.5,75.1z"/>
	<path class="st5" d="M227.9,74c-0.1-1.3-1-1.8-1.8-2.3c-1.1-0.7-2.2-1.5-3.3-2.2c-0.3-0.2-0.6-0.5-1-0.3c-1.5,0.8-0.6-0.3-0.6-0.8
		v-0.1c0.3-0.8,0-2.1,0.9-2.3c0.6-0.1,1.5,0.8,2.2,1.3c1.3,0.8,2.5,1.7,3.8,2.5c0.5,0.3,1,0.8,1.7,0.3c0.1-0.1,0.3-0.1,0.4,0.1
		c0,0.1,0,0.3-0.1,0.4C229.3,71.7,228.6,72.9,227.9,74z"/>
	<path class="st4" d="M249.6,50.3c0,0-0.2,0.1-0.3,0.2c-0.9,0.7-1.8,1.5-2.7,2.2c-0.1,0.1-0.3,0.3-0.5,0.1c-0.1-0.1-0.1-0.3,0-0.4
		c0.4-0.6,0-1-0.3-1.4c-1-1.4-2-2.7-3-4c-0.3-0.4-0.5-0.7-1.1-0.5c-0.6,0.2-0.6-0.2-0.4-0.6c0.1-0.2,0.3-0.4,0.4-0.6
		c1.5-2.1,1.5-2.1,3.1,0c0.9,1.2,1.8,2.4,2.7,3.5c0.4,0.6,0.8,1.4,1.8,1.1C249.4,49.8,249.5,49.9,249.6,50.3z"/>
	<path class="st5" d="M293.7,208.1c0.2-2,0.4-4,0.5-5.9c0-1,0.7-0.7,1.2-0.7c0.7,0,1,0.1,0.9,0.9c-0.2,2.1-0.4,4.2-0.5,6.3
		c-0.1,0.9-0.4,1-1.2,0.9s-1.1-0.4-0.9-1.1C293.7,208.3,293.7,208.2,293.7,208.1z"/>
	<path class="st5" d="M366.5,187.5c-0.4,0.4-0.8,0.8-1.3,1.2s-0.6-0.2-0.8-0.4c-1.4-1.6-2.7-3.2-4.2-4.7c-0.8-0.9,0.1-1.1,0.4-1.5
		c0.4-0.6,0.7-0.4,1.2,0.1c1.3,1.6,2.8,3.2,4.1,4.8C366.1,187.1,366.3,187.3,366.5,187.5z"/>
	<path class="st5" d="M261.9,192.4c-0.1,0.3-0.2,0.4-0.3,0.6c-1,1.9-2.1,3.7-3.1,5.6c-0.3,0.6-0.6,0.7-1.1,0.3
		c-0.4-0.4-1.4-0.3-0.8-1.3c1.1-1.9,2.2-3.9,3.3-5.8c0.1-0.2,0.2-0.7,0.7-0.4C261,191.8,261.6,191.9,261.9,192.4z"/>
	<path class="st5" d="M323,22.7c-0.1,0.8-0.4,1.6-1.4,1.6c-0.9,0-1.5-0.5-1.5-1.4s0.4-1.6,1.4-1.6C322.4,21.2,323,21.7,323,22.7z"/>
	<path class="st5" d="M387.7,64.9c0.7,0.1,1.3,0.6,1.3,1.5c0,1-0.7,1.5-1.5,1.5c-0.9,0-1.4-0.6-1.4-1.5
		C386,65.7,386.8,64.9,387.7,64.9z"/>
	<path class="st5" d="M238.9,41.6c0.1-0.8,0.6-1.4,1.5-1.4c0.9,0,1.4,0.7,1.4,1.6s-0.6,1.5-1.4,1.4C239.4,43.2,239,42.5,238.9,41.6z
		"/>
	<path class="st4" d="M220.3,65.3c-0.1,0.9-0.5,1.5-1.4,1.6c-0.8,0.1-1.6-0.7-1.6-1.5c0-0.8,0.4-1.5,1.3-1.5
		C219.6,63.9,220.2,64.4,220.3,65.3z"/>
	<path class="st5" d="M295.3,198.3c0.7,0.1,1.6-0.1,1.3,1c-0.1,0.5,0.2,1.4-0.8,1.1c-0.5-0.1-1.5,0.3-1.3-0.9
		C294.6,198.8,294.4,198,295.3,198.3z"/>
	<path class="st5" d="M263.5,189.8c-0.6,0.5-0.5,1.5-1.2,1.4c-0.5-0.1-1.4-0.4-1.4-1.1c0-0.5,0.3-1.3,0.9-1.3
		C262.4,188.8,263,189.3,263.5,189.8z"/>
	<path class="st5" d="M360.5,180.7c-0.5,0.5-0.9,1.2-1.5,1.3c-0.5,0-0.9-0.7-1.2-1.2c-0.1-0.1,1.3-1.4,1.4-1.3
		C359.8,179.6,360.1,180.2,360.5,180.7z"/>
	<path class="st6" d="M303.5,161.8c-0.4,0.5,0.6,0.9,0.2,1.1c-0.6,0.3-0.6-0.7-1.4-0.8c-0.3,0,0.3,0.8-0.3,0.7
		c-0.5-0.1-1-0.3-1.2-0.8c-0.5-1.2-0.8-2.4-1.7-3.4c-0.2-0.2,0-0.5,0.2-0.6c1.4-0.8,0.6-1.8,0.2-2.7c-0.2-0.5-0.6-0.9-0.2-1.5
		c0.1-0.2,0-0.5-0.1-0.7c-0.1-0.5-2.8-3.1-3.3-3.2c-0.2-0.5-0.6-0.6-1.1-0.4c-0.3,0.2-0.8,0.1-0.8-0.2c-0.1-0.9-0.9-1.1-1.3-1.6
		c-0.8-1.1-1.9-1.8-2.9-2.7c-1-1-1.1-2-0.5-3.3c0.8-1.4,2.2-2.8,1.5-4.7c-0.1-0.3,0.1-0.6,0.3-0.8c1.2-1.3,1.1-1.6-0.6-2.1
		c-0.4-0.1-0.7-0.3-1.2-0.2c-0.9-0.9-1.1-0.9-1.5,0.2c-0.9,0.3-1.9,0.6-2.1-0.8c2.7-1.1,4.8-2.9,6.3-5.4c0.2-0.4,0.5-0.7,0-1.1
		c-0.6-0.5-0.8,0.1-1,0.3c-0.9,0.8-1.6,1.9-3,2c0.6-0.9,1.2-1.8,1.9-2.7c0.4-0.5,0.2-0.8-0.2-1.2c-0.5-0.5-0.7,0.1-0.9,0.3
		c-1.3,1.3-2.6,2.5-4.5,2.9c-1.4-1.6-3.3-2.6-4.6-4.4c-1.1-1.4-1.9-3-2.9-4.4c-0.1-0.1-0.2-0.3-0.1-0.4c0.4-0.8-0.1-1.5-0.4-2.2
		c-0.9-1.8-0.5-3.7,0.5-5c0.9-1.2,1-2,0.5-3.1c1.8-2.1,4.2-2.4,6.8-2.1c0.6,0.3,1,0.8,1.4,1.4c1.1,1.5,1.8,3.3,2.2,5.1
		c0.1,0.5,0.4,0.7,0.9,0.6c0.6,0,0.6-0.4,0.5-0.8c0-0.2,0-0.4,0-0.6c0.5,0.5,0.6,1.2,0.7,1.8c0.2,0.5,0.3,0.9,1,0.8
		c0.7-0.1,0.5-0.7,0.4-1c-0.2-2.1-0.1-4.3-0.2-6.4c-0.1-2.2-0.1-2.2-2.3-2.1c0-0.4-0.1-0.7-0.1-1.1s-0.1-0.6-0.6-0.5
		c-2,0.3-3.8-0.4-5.7-0.9c0.1-1.5,0.2-3-1.4-3.9c-0.3-0.2-0.3-0.5-0.2-0.9c0.1-0.6,0.3-1.1,0.5-1.7c0.2-0.7,0.6-0.9,1.4-1
		c1-0.1,2.1,0.1,3.1-0.5c0.6-0.4,1.3-0.6,2.1-0.7c0.8-0.1,1.5-0.6,1.7-1.6c0.1-0.6,0.3-1.4,0.7-1.7c1.2-1.1,1.6-2.4,1.7-3.9
		c0.1-1-0.1-1.8-1-2.3c-0.6-0.4-1.7-0.7-1.7-1.4c-0.1-1.4-1-2.1-1.8-2.9c1-0.4,2-0.8,3.1-1c8.5,0,17,0,25.5,0c0.4,0,0.8,0.1,1.1-0.2
		c1.2,0,1.4,0.6,1.3,1.7c-0.2,1.5-0.1,3,1,4.1c0.7,0.7,0.9,1.6,1.1,2.5c0.1,0.7,0.4,1.4,0.7,2c0.4,0.8,0.5,1.6,0.5,2.4
		c0,4-0.1,8,0.2,12c0.1,1.4,0,2.9,0,4.5c-0.9-0.5-1.2-1.4-2.2-1.4l0,0c0-0.2-0.1-0.3-0.3-0.3l0,0c0-0.2-0.2-0.2-0.4-0.3
		c-0.8-0.3-1.2-1-1.9-1.4c-3.3-2.2-6.9-2.8-10.8-2.3c-3.6,0.4-6.7,2-9.3,4.7c-5.8,6-5.3,20.1,5,24.1c0.1,0.1,0.2,0.1,0.4,0.2l0,0
		c0.1,0.3,0.4,0.4,0.6,0.5c4.9,2.6,12.6,2,16.9-1.5c0.9-0.7,1.1-0.4,1.5,0.4c0.7,1.3,0.9,2.8,1,4.2c0.1,0.7,0.1,1.5-0.5,1.9
		s-0.7,0.8-0.8,1.4c-0.2,0.6-0.2,1.4-1.1,1.5c-0.3,0-0.2,0.3-0.2,0.6c0,1-1.2,2.3-2.1,2.5c-0.4,0.1-0.8,0.5-0.5,0.7
		c0.7,0.8,0.3,1.4-0.1,2c-0.4,0.6-0.4,1.4-0.5,2c-0.1,0.5-0.4,1.2-0.2,1.6c0.5,0.9,0.1,1.4-0.5,1.9c-0.7,0.7-0.9,1.5-0.4,2.4
		c0.9,1.4,0.9,1.4-0.7,1.9c-0.3,0.1-0.7,0.2-1,0.2c-2.6,0.2-3.1,1.1-2.1,3.5c0.3,0.6,0.2,1.2-0.1,1.9c-0.6,0.4-1.1,0.2-1.8,0
		c-1.2-0.5-2.5-0.8-3.5-1.7c-1-0.5-1.8-0.3-2.4,0.7C304,160.8,303.8,161.3,303.5,161.8z"/>
	<path class="st7" d="M338.8,133.5c2.2,6.9,4.4,13.8,6.6,20.7c2.3,7.1,4.6,14.1,6.8,21.2c0.1,0.5,0.7,1,0,1.5
		c-0.6,0.4-1-0.2-1.3-0.4c-10.5-6.8-21.1-13.7-31.6-20.6c-0.3-0.2-0.7-0.4-1-0.6c0.3-0.4,0.1-0.6-0.2-0.9c-1.1-1.3-1-1.7,0.1-3
		c0.2-0.2,0.5-0.4,0.5-0.8c0-0.6-0.3-1.2-0.1-1.9c0.3-1.1,0.4-2.2,1-3.2c0.3-0.5,0.3-0.7,0-1.1c-0.5-0.6-0.3-1,0.5-1.1
		c0.5-0.1,0.8-0.4,1.1-0.7c0.9-0.8,0.8-2.1,1.8-3c0.7-0.6,1-1.8,1.4-2.8c0.6-1.3,0.2-2.9-0.3-4.4c-0.3-0.9-1.4-1.6-0.8-2.8
		c0.3-0.5,0.6-0.9,0.1-1.5c-0.2-0.2,0-0.4,0.1-0.6c2.9-5,3-10.2,0.7-15.5c-0.3-0.6-0.4-1.2-0.5-1.8c-0.1-5.8-0.2-11.5-0.3-17.3
		c0-1.2-0.1-2.4-0.7-3.5c-0.5-0.9-0.6-1.8-0.7-2.8c0.4,0,0.6,0.4,0.9,0.5c0.2,0.5,0.4,1,0.5,1.4c0.2,0.9,0.7,1.2,1.6,1.1
		c1.4-0.1,2.8,0,4.2,0c0.8,0.6,1.2,1.4,1.8,2.2c1.4,1.7,3.9,2.6,5.7,2c0.3-0.1,0.7-0.1,0.8-0.6c0-0.5-0.3-0.6-0.6-0.7
		c-1.4-0.4-1.9-1.4-2.1-2.7c12.9,0.1,25.7,0.2,38.6,0.3c0.5,0,1.3-0.4,1.6,0.4c0.3,0.8-0.5,1-0.9,1.3c-7.8,6.3-15.7,12.5-23.6,18.7
		c-0.1,0.1-0.2,0.2-0.3,0.3c-0.2-0.7-0.4-1.5-0.7-2.1c-0.6-1.2-1.4-2.4-2.9-2.7c-1.6-1.9-3.9-2.5-6.2-2.6c-4.7-0.1-9.3,0-14-0.1
		c-0.5,0-0.8,0-0.8,0.6c0,0.5,0.1,0.8,0.7,0.9c1.8,0.3,2,0.5,2,2.2c0,7.1,0,14.3,0,21.4c0,1.8-0.2,2-1.9,2.2
		c-0.8,0.1-0.7,0.6-0.7,1.1c0,0.7,0.5,0.4,0.8,0.4c0.6,0,1.1,0,1.7,0c-0.2,1.4-0.2,1.4,1.1,1.3c0.2,0,0.5-0.1,0.7-0.1
		C332.9,133.3,335.9,133,338.8,133.5z"/>
	<path class="st7" d="M289.5,133.7c0.4-0.1,0.8,0.1,1.2,0.2c1.7,0.6,1.8,0.8,0.6,2.1c-0.2,0.2-0.4,0.5-0.3,0.8
		c0.7,1.9-0.7,3.3-1.5,4.7c-0.7,1.3-0.6,2.3,0.5,3.3c0.9,0.9,2.1,1.6,2.9,2.7c0.4,0.5,1.2,0.8,1.3,1.6c0,0.3,0.5,0.4,0.8,0.2
		c0.5-0.2,0.9-0.1,1.1,0.4c-13.3,8.9-26.5,17.8-39.8,26.7c-0.4,0.3-0.7,0.8-1.4,0.4c-0.5-0.4-0.2-0.8-0.1-1.2
		c4.6-15.6,9.2-31.2,13.8-46.8c0.1-0.2,0.2-0.4,0.2-0.7c1.5,1.7,3.1,3,5.3,3.7c0.3,0.5,0.8,0.6,1.3,0.9c3.5,1.5,7,1.4,10.5,0.3
		c0.2,1.5,1.2,1.1,2.1,0.8C288.6,134.5,289,134.2,289.5,133.7z"/>
	<path class="st7" d="M287.5,80.4c0.8,0.9,1.7,1.5,1.8,2.9c0.1,0.7,1.1,1,1.7,1.4c1,0.5,1.1,1.3,1,2.3c-0.1,1.5-0.4,2.8-1.7,3.9
		c-0.4,0.4-0.6,1.1-0.7,1.7c-0.1,1-0.9,1.5-1.7,1.6c-0.8,0.1-1.5,0.3-2.1,0.7c-1,0.6-2.1,0.4-3.1,0.5c-0.8,0.1-1.2,0.3-1.4,1
		c-0.2,0.6-0.3,1.1-0.5,1.7c-0.1,0.3-0.1,0.7,0.2,0.9c1.7,0.9,1.5,2.4,1.4,3.9c-0.2,0-0.4,0-0.6,0c-6.3-1.1-12,1.7-15,7.3
		c-1.5,2.8-1.9,5.9-1.8,9c-1.4-1.1-2.8-2.1-4.2-3.2c0-2.5,0-4.9,0-7.4c0-2.1,0.2-2.3,2.2-2.8c0.5-0.1,0.6-0.3,0.6-0.7
		c0-0.5-0.3-0.6-0.7-0.5c-0.6,0-1.1,0-1.7,0c0.3-1,0.2-1.5-1.1-1.5c-3.4,0.1-6.8,0-10.2,0c-0.4,0-0.9-0.2-1,0.5
		c0,0.7,0.2,0.9,0.9,0.9c1.2,0.1,1.8,0.8,1.8,1.9c0,0.8,0,1.5,0,2.3c-7-5.4-13.9-10.7-20.9-16.1c-0.7-0.5-1.3-1-2-1.5
		c-0.3-0.2-0.7-0.4-0.5-0.9c0.2-0.5,0.6-0.5,1-0.5c1.8,0,3.6,0,5.4,0c10.5-0.1,20.9-0.1,31.4-0.2c-0.1,0.6,0.1,0.9,0.8,0.9
		c1.1,0,2.1-0.1,3.2-0.3c1-0.2,1.9-0.9,3-0.5c-0.6,1.2-1.2,2.4-2.1,3.4c-0.2,0.2-0.6,0.4-0.3,0.8c0.2,0.3,0.6,0.2,0.9,0.2
		c1.5-0.2,2.8-0.8,4.1-1.6c1.2-0.7,1.6-2,2.5-2.9c1.4,0,2.8,0,4.2,0c0.4,0,0.8,0.1,1-0.5c0.3-0.9,0.8-1.8,0.9-2.8l0,0
		c0.2,0,0.2-0.2,0.2-0.3c0.3-0.4,0.5-0.8,0.5-1.4c0.5-1.2,1-2.3,1.3-3.6l0,0c0.2,0,0.2-0.1,0.2-0.2
		C286.9,80.6,287.2,80.5,287.5,80.4z"/>
	<path class="st7" d="M290.8,69.6c-0.2-0.4,0-0.7,0.1-1c3.6-9.9,7.3-19.9,10.9-29.8c0.1-0.4,0.1-0.9,0.8-0.9c0.6,0,0.7,0.5,0.8,0.8
		c4,10,8,19.9,12,29.9c-5.8-0.8-11.6-0.9-17.4-0.2C295.7,68.7,293.3,69.2,290.8,69.6z"/>
	<path class="st8" d="M290.8,69.6c2.4-0.4,4.8-0.9,7.3-1.2c5.8-0.6,11.6-0.6,17.4,0.2c3.6,0.8,7,1.9,10.2,3.6
		c2.3,1.2,4.6,2.3,6.4,4.3c1.2,1.3,1.2,2,0,3.2c-0.2,0.3-0.4,0.6-0.7,0.8c-0.3,0.4-0.5,0.7,0.2,0.9c0.6,0.2,1,0.8,1.3,1.4
		c1.1,2.4,3.2,3.8,5.6,4.7c0.4,0.1,0.8,0.2,0.7,0.7c0,0.6-0.5,0.5-0.9,0.5c-1.3,0.1-2.6-0.3-3.9-0.2c0,0-0.1,0-0.1-0.1
		c0,0,0.1,0,0.1,0.1c0,0.4,0.2,0.6,0.4,0.9c0.2,1.3,0.7,2.4,2.1,2.7c0.4,0.1,0.7,0.3,0.6,0.7c0,0.5-0.4,0.5-0.8,0.6
		c-1.8,0.6-4.4-0.3-5.7-2c-0.6-0.7-1-1.6-1.8-2.2c-1.8-1.6-4.1-1.9-6.3-2.5c-0.3-0.1-0.4-0.5-0.9-0.5c0.1,1,0.3,2,0.7,2.8
		c0.6,1.1,0.7,2.3,0.7,3.5c0.1,5.8,0.2,11.5,0.3,17.3c0,0.7,0.2,1.2,0.5,1.8c2.2,5.3,2.1,10.5-0.7,15.5c-0.1,0.2-0.3,0.4-0.1,0.6
		c0.5,0.6,0.2,1-0.1,1.5c-0.7,1.2,0.5,1.9,0.8,2.8c0.5,1.5,0.9,3.1,0.3,4.4c-0.4,0.9-0.8,2.2-1.4,2.8c-1,0.9-0.9,2.2-1.8,3
		c-0.4,0.3-0.6,0.7-1.1,0.7c-0.8,0.1-1,0.5-0.5,1.1c0.3,0.4,0.3,0.7,0,1.1c-0.6,1-0.7,2.1-1,3.2c-0.2,0.7,0.1,1.3,0.1,1.9
		c0,0.5-0.3,0.6-0.5,0.8c-1.1,1.2-1.2,1.7-0.1,3c0.3,0.3,0.4,0.5,0.2,0.9c-1.2,0.5-2.5,0.8-3.8,1c-0.9,0.1-1.5,1.4-1.1,2.4
		c0.1,0.3,0.4,0.5,0.5,0.8c0.2,0.6,0.4,1.3-0.1,1.8s-1.1,0.3-1.7,0c0.3-0.6,0.3-1.2,0.1-1.9c-1-2.4-0.5-3.3,2.1-3.5
		c0.4,0,0.7-0.1,1-0.2c1.6-0.5,1.5-0.6,0.7-1.9c-0.6-0.9-0.4-1.7,0.4-2.4c0.6-0.5,1-1,0.5-1.9c-0.2-0.4,0.1-1.1,0.2-1.6
		c0.2-0.7,0.1-1.4,0.5-2c0.4-0.6,0.8-1.2,0.1-2c-0.2-0.2,0.1-0.6,0.5-0.7c1-0.2,2.1-1.5,2.1-2.5c0-0.3-0.1-0.5,0.2-0.6
		c0.9-0.1,0.9-0.9,1.1-1.5c0.1-0.6,0.2-1,0.8-1.4s0.6-1.2,0.5-1.9c-0.1-1.5-0.3-2.9-1-4.2c-0.4-0.8-0.7-1.1-1.5-0.4
		c-4.3,3.5-12,4.2-16.9,1.5c-0.2-0.1-0.5-0.2-0.6-0.5c1.8,0.5,3.6,0.8,5.4,0.8c4.2,0,7.9-1.1,10.9-4c4.9-4.7,5.9-13.2,2.2-19.2
		c-0.5-0.8-1.2-1.4-1.5-2.2c0.9,0,1.3,0.9,2.2,1.4c0-1.6,0.1-3,0-4.5c-0.3-4-0.2-8-0.2-12c0-0.9-0.2-1.6-0.5-2.4
		c-0.3-0.6-0.5-1.3-0.7-2c-0.2-0.9-0.4-1.8-1.1-2.5c-1.2-1.2-1.2-2.6-1-4.1c0.1-1.1-0.1-1.7-1.3-1.7c-2.1-0.4-4.3-0.9-6.4-1.3
		c0-0.1,0-0.2,0-0.3c0.9,0.1,1.9,0.2,2.8,0.4c4.3,0.7,8.4,1.9,12.3,3.8c-1.2-0.2-1.7,0.7-2.3,1.4c-0.2,0.3,0.4,0.9-0.6,1
		c3.2,1,3.2,1,5.4,0.7c-0.9,1.1-2.2,0.3-3.2,0.8c0.3,0.5,0.3,0.5-0.3,0.8c0.2,0.4,0.6,0.3,1,0.4c2.4,0.5,4.4,1.6,5.6,3.8
		c0.4,0.6,0.9,1.1,1.5,1.5c1.1,0.7,2.3,1.2,3.8,0.6c-1.5-0.6-2-1.7-2.4-3c-0.3-0.9-0.7-1.6-1.4-2.1c-0.3-0.2-0.6-0.5-0.4-1
		c1.5,1,3.1,1.2,5.2,1.2c-2.1-1.2-3.9-2.4-4.8-4.4c-0.7-1.7-1.2-1.9-3-1.7c-0.2-0.4,0-0.8,0.2-1.2c0-0.1,0.1-0.2,0.1-0.2l0,0
		c1.2-0.5,0.4-1.6,0.7-2.5c0.3,0.2,0.6,0.4,0.8,0.5c0.1-0.3,0.3-0.6,0.2-1c0-0.6-0.5-0.9-0.9-1.2c-2.5-2-5.3-3.3-8.2-4.6
		c-1.6-0.7-3.2-1.3-4.8-1.7c-6.1-1.5-12.2-1.5-18.3-0.9c-5.9,0.5-11.4,2.3-16.8,4.6c-1.9,0.8-3.4,2.2-5.3,2.8
		c-1.3,0.4-1.5,2-0.7,2.9c0.1,0.3,0.1,0.6,0.3,0.9c0.6,0.9,1.2,1.9,1.3,3c0,0.2-0.2,0.6,0.2,0.7c0.5,0.2,0.6-0.3,0.9-0.5
		c0.1,0,0.2,0,0.3,0c0.2,0.6-0.9,0.7-0.5,1.1c0.6,0.6-0.1,0.6-0.2,0.9c-1,0.3-1-0.5-1.2-1.1c-0.2-0.7-0.3-1.5-0.4-2.2
		c-0.1-0.5-0.3-0.6-0.8-0.5c-1.3,0.5-2.3,1.2-3,2.4c-0.4,0.7-0.8,1.3-1.3,1.8c-1.5,1.4-3.1,2.6-4.9,3.8c2.7,0.1,4.8-1,7.2-2
		c-0.5,2.1-1.7,3.7-2.8,5.5c2.5-0.5,4.5-1.5,5.5-3.6c0.7-1.4,1.8-2.3,3.3-2.7c1.1-0.3,2.1-0.6,3-1.4c0-0.3-0.1-0.6-0.5-0.3
		c-0.4,0.2-0.8,0-1.2-0.2c0-0.1,0-0.2,0-0.3c0.5-0.2,1.1-0.5,1.6-0.7c0.4-0.1,0.6-0.3,0.2-0.6c-0.6-0.5-0.7-1.5-1.7-1.5
		c3.7-2,7.7-3.2,11.8-4c0,0.1,0,0.2,0,0.3c-1,0.4-2.2,0.4-3.1,1c-1.6,0.8-2.6,1.2-3.6,1.6c-0.3,0.1-0.6,0.2-1,0.3
		c-0.1,0.1-0.1,0.1-0.2,0.2l0,0c-1,0.1-2.1,0.3-2.6,1.1c-0.4,0.8,0.6,1.4,1,2.1c0.1,0.1,0.2,0.3,0.3,0.4c0,0.5-0.2,1-0.5,1.4
		c-0.1,0.1-0.1,0.2-0.2,0.3l0,0c-1.4,0.7-2.7,1.4-4.2,1.8c-0.7,0.2-1.6,0.6-1.8,1.5c-0.8,0.9-1.3,2.2-2.5,2.9
		c-1.3,0.8-2.6,1.4-4.1,1.6c-0.3,0-0.7,0.1-0.9-0.2c-0.2-0.4,0.1-0.6,0.3-0.8c0.9-1,1.5-2.1,2.1-3.4c-1.1-0.4-2,0.3-3,0.5
		c-1.1,0.2-2.1,0.3-3.2,0.3c-0.6,0-0.8-0.3-0.8-0.9c2.7-1.5,5.3-3.3,6.8-6.1c0.5-0.9,1.4-1.5,2.4-1.8c0.9-0.3,0.9-0.7,0.4-1.3
		c-0.1-0.1-0.2-0.3-0.3-0.4c-1-1.5-0.9-2.1,0.6-3.2c2.9-2.2,6-3.9,9.4-5.1c1.6-0.6,3.2-1.4,4.9-1.8
		C290.8,69.8,290.9,69.8,290.8,69.6L290.8,69.6z M320.3,80.5c-0.5,2-0.3,3.7,1.4,5.2c0-0.5,0.1-0.9,0.1-1.4c0.8-0.6,1.1-1.5,1.5-2.4
		c0.1-0.2,0.1-0.4,0-0.6C323.2,81,320.9,80.4,320.3,80.5z M283.8,84.8c0-0.1,0-0.2-0.1-0.2c0,0-0.1,0-0.2,0.1c0,0.1,0.1,0.2,0.1,0.2
		C283.7,84.9,283.8,84.8,283.8,84.8z M321.9,86.1C322,86.1,322,86.1,321.9,86.1C322,86,321.9,86,321.9,86.1
		C321.9,86,321.9,86,321.9,86.1L321.9,86.1z"/>
	<path class="st9" d="M328.2,132.1c-0.6,0-1.1,0-1.7,0c-0.4,0-0.8,0.3-0.8-0.4c0-0.5-0.1-1,0.7-1.1c1.8-0.2,1.9-0.5,1.9-2.2
		c0-7.1,0-14.3,0-21.4c0-1.7-0.2-1.9-2-2.2c-0.6-0.1-0.7-0.3-0.7-0.9s0.3-0.6,0.8-0.6c4.7,0,9.3,0,14,0.1c2.4,0.1,4.6,0.7,6.2,2.6
		c3.5,5.6,1.1,11.8-5.3,13.5c-1.7,0.5-3.5,0.5-5.2,0.5c-0.4,0-0.9-0.2-0.9,0.6c0,2.7,0,5.4,0.1,8.2c0.1,1.7,0.8,2.2,2.5,1.9
		c0.3,0.4,0.2,0.8,0.3,1.3c-0.2,0.6-0.6,0.3-1,0.3C334.2,132,331.2,131.9,328.2,132.1z M339.3,106.5c-0.5-1.4-1.8-1.2-2.9-1.3
		c-0.8-0.1-1.2,0.3-1.2,1.2c0,3.3,0,6.6,0,9.9c0,2.1,0,2.1,2.1,1.6h0.1c1.5-0.2,2.5-1,3.1-2.4c0.9-2.4,0.9-4.8,0.1-7.2
		C340.4,107.5,340.3,106.6,339.3,106.5z"/>
	<path class="st10" d="M265.4,119.3c-0.1-3.1,0.3-6.2,1.8-9c2.9-5.6,8.7-8.5,15-7.3c0.2,0,0.4,0,0.6,0c1.9,0.5,3.7,1.2,5.7,0.9
		c0.5-0.1,0.5,0.1,0.6,0.5c0,0.4,0.1,0.7,0.1,1.1c0.1,2.1,0.1,4.2,0.2,6.3c-0.1,0.3-0.1,0.5,0.1,0.7l0,0c0,0.2-0.1,0.4,0,0.6
		c0,0.4,0.1,0.8-0.5,0.8c-0.5,0-0.8-0.1-0.9-0.6c-0.5-1.8-1.1-3.6-2.2-5.1c-0.4-0.5-0.8-1.1-1.4-1.4c-2.7-2.5-7.7-1.8-9.8,1.5
		c-2.5,3.9-2.5,8.1-1.4,12.4c0.7,2.7,2,5.2,4.6,6.7l0,0c0.1,0.3,0.3,0.3,0.5,0.2l0,0c0,0.2,0.1,0.2,0.3,0.3c1.9,1.1,4,1.3,6,0.5
		c1.9-0.4,3.2-1.6,4.5-2.9c0.2-0.2,0.4-0.8,0.9-0.3c0.4,0.4,0.6,0.7,0.2,1.2c-0.7,0.9-1.2,1.8-1.9,2.7l0,0c-0.4-0.1-0.5,0.3-0.7,0.5
		c-4,3.3-8.5,3.9-13.4,2.5c-2.2-0.7-3.8-2.1-5.3-3.7C266.7,125.6,265.6,122.6,265.4,119.3z"/>
	<path class="st10" d="M251.9,108.9c0-0.8,0-1.5,0-2.3c0-1.2-0.6-1.9-1.8-1.9c-0.7,0-0.9-0.3-0.9-0.9c0.1-0.7,0.6-0.5,1-0.5
		c3.4,0,6.8,0.1,10.2,0c1.3,0,1.4,0.4,1.1,1.5c-2.1,0.2-2.6,0.5-2.6,2.2c0,7.2,0,14.4,0,21.6c0,1.6,0.5,2,2.2,2.2
		c0.8,0.1,0.5,0.7,0.6,1.1c-0.1,0.6-0.6,0.4-0.9,0.4c-3-0.1-6-0.2-9,0c-0.5,0-1,0-1.6,0c-0.4,0-0.9,0.3-0.9-0.5c0-0.5,0-1,0.8-1
		c1.2,0,1.9-0.7,1.9-1.9C252,122.1,252,115.5,251.9,108.9z"/>
	<path class="st11" d="M361.6,117.1c-0.2,0.3,0.2,0.8-0.5,0.9c-0.6,0-0.7-0.3-0.9-0.7c-0.2-0.7-0.5-1.4-1.2-1.8
		c-0.9-1.2-2.2-1.4-3.6-1.1c-1.6,0.3-2.1,2.1-1,3.3c0.5,0.6,1.2,1.1,1.9,1.4c1.5,0.9,3,1.6,4.3,2.8c0.1,0.1,0.2,0.2,0.3,0.3l0,0
		c0.1,0.2,0.2,0.5,0.5,0.3h-0.1c-0.1,0.4,0.3,0.6,0.4,0.8c1.7,3.4,0.6,8.2-4,9.3c-2,0.5-3.9-0.2-5.9-0.6c-0.2-0.1-0.5-0.3-0.7-0.2
		c-1.6,0.2-1.7-0.7-1.6-2c0.1-1.3,0-2.5,0.1-3.8c0-0.4,0-0.7,0.5-0.7c0.4,0,0.6,0.1,0.8,0.5c0.2,0.9,0.5,1.8,1.1,2.6
		c0.5,0.8,1.2,1.5,2.2,1.8c0.8,0.5,1.7,0.4,2.5,0.3c0.8-0.1,1.4-0.5,1.7-1.3c0.3-0.8,0.1-1.4-0.4-2c-0.9-1-2.1-1.5-3.2-2.2
		c-0.7-0.4-1.4-0.8-2-1.2c-2.7-1.7-3.7-4.1-3-7.2l0,0c0.2-0.1,0.2-0.3,0.2-0.5V116c0.2-0.1,0.3-0.3,0.3-0.6l0,0
		c2.1-2.6,4.8-3.2,7.9-2.3c0.6,0.2,1.2,0.4,1.8,0.3c1.3-0.2,1.7,0.3,1.5,1.5C361.4,115.5,361.3,116.3,361.6,117.1z"/>
	<path class="st12" d="M349.9,115.8C349.9,115.8,349.9,115.9,349.9,115.8c-0.2,0.2-0.2,0.3-0.2,0.5l0,0c-1.1,1.3-2.1,2.7-3.7,3.4
		c-2.3,1.1-4.7,1.4-7.2,1.4c-1,0-1.3,0.3-1.3,1.3c0.1,2.2,0,4.5,0,6.7c0,0.5-0.1,1,0.3,1.4c-1.8,0.2-2.5-0.2-2.5-1.9
		c-0.1-2.7,0-5.4-0.1-8.2c0-0.8,0.5-0.6,0.9-0.6c1.8,0,3.5,0,5.2-0.5c6.3-1.7,8.8-8,5.3-13.5c1.6,0.2,2.3,1.4,2.9,2.7
		c0.3,0.7,0.5,1.4,0.7,2.1c0.3,1.5-0.2,3.1-0.1,4.6l0,0C349.9,115.3,349.9,115.6,349.9,115.8z"/>
	<path class="st12" d="M261.1,130.6c-1.7-0.1-2.2-0.6-2.2-2.2c0-7.2,0-14.4,0-21.6c0-1.7,0.5-2,2.6-2.2c0.6,0,1.1,0,1.7,0
		c0.4,0,0.7,0,0.7,0.5c0,0.4-0.1,0.6-0.6,0.7c-2,0.5-2.2,0.8-2.2,2.8c0,2.5,0,4.9,0,7.4C261.1,121,261.1,125.8,261.1,130.6z"/>
	<path class="st12" d="M351.9,131.8c1.9,0.4,3.9,1.1,5.9,0.6c4.6-1.1,5.7-5.9,4-9.3c-0.1-0.3-0.4-0.5-0.4-0.8
		c1.5,0.4,2.3,1.5,2.8,2.8c1.3,3.4,0.1,7.3-3.7,8.5c-1.3,0.4-2.6,0.4-3.9,0.1c-1.3-0.4-2.7-0.8-4.1-0.9
		C351.7,132.7,351.9,132.3,351.9,131.8z"/>
	<path class="st12" d="M328.2,132.1c3-0.2,6-0.1,9,0c0.3,0,0.8,0.3,1-0.3c0.4,0.1,0.8,0.2,1.2,0.3c0.6,0,1,0,1,0.8s-0.6,0.6-1,0.6
		c-0.2,0-0.3,0-0.5,0c-2.9-0.4-5.8-0.2-8.8-0.2c-0.2,0-0.5,0.1-0.7,0.1C327.9,133.5,327.9,133.5,328.2,132.1z"/>
	<path class="st12" d="M251.8,132.1c3-0.2,6-0.1,9,0c0.4,0,0.8,0.2,0.9-0.4c0.5,0.1,0.9,0.3,1.4,0.3c0.6,0.1,0.9,0.3,0.8,0.9
		c-0.1,0.7-0.6,0.5-1,0.5c-2.4-0.3-4.8-0.2-7.2-0.2c-0.9,0-1.7,0-2.6,0.2C251.8,133.7,251.7,133.5,251.8,132.1z"/>
	<path class="st12" d="M356.4,118.9c-0.8-0.3-1.4-0.8-1.9-1.4c-1.1-1.2-0.6-2.9,1-3.3c1.4-0.3,2.7-0.1,3.6,1.1
		C356.4,115.5,355.7,116.4,356.4,118.9z"/>
	<path class="st12" d="M361.6,117.1c-0.3-0.8-0.2-1.6-0.2-2.4c2.1,0,2.1,0,2.2,2.2c0,0.4,0.1,0.9,0.1,1.3s0.3,0.9-0.2,1
		c-0.5,0.2-0.7-0.2-0.9-0.7C362.4,118,362.2,117.4,361.6,117.1z"/>
	<path class="st12" d="M303.5,161.8c0.3-0.5,0.6-1,0.9-1.5c0.6-0.9,1.4-1.2,2.4-0.7c-0.9,0.9-1.6,1.8-1.6,3.3
		C304.6,162.5,304.2,161.9,303.5,161.8z"/>
	<path class="st12" d="M354.2,130c-1-0.3-1.6-1-2.2-1.8c0.2-0.5-0.4-1.5,0.5-1.6s0.7,0.8,0.8,1.3C353.6,128.6,354.2,129.2,354.2,130
		z"/>
	<path class="st12" d="M361.4,122.3c-0.3,0.2-0.4-0.1-0.5-0.3C361.2,121.9,361.3,122,361.4,122.3z"/>
	<path class="st12" d="M360.9,122c-0.1-0.1-0.2-0.2-0.3-0.3C360.8,121.8,360.8,121.9,360.9,122z"/>
	<path class="st7" d="M290.9,69.6c0,0.2-0.1,0.2-0.3,0.2C290.7,69.7,290.6,69.5,290.9,69.6z"/>
	<path class="st10" d="M339,34.9c0-2,0.5-3.7,1.5-5.3c1.1-1.7,2.5-2.5,4.1-2.1s2.7,1.9,2.7,3.9c0,2.2-0.7,4.2-1.9,6.1
		c-0.8,1.2-1.9,2.1-3.5,1.8c-1.6-0.3-2.3-1.6-2.6-3.1C339.1,35.8,339.1,35.3,339,34.9z"/>
	<path class="st13" d="M370.7,45.3c0,1.4-1.5,3.4-2.8,3.8c-0.9,0.3-1.5-0.1-2.2-0.6c-0.3-0.3-0.1-0.5,0-0.7c1.1-1.4,2.2-2.7,3.3-4.1
		c0.3-0.4,0.6-0.3,0.9,0C370.5,44.2,370.7,44.7,370.7,45.3z"/>
	<path class="st11" d="M323.2,202.8c0,1.7-0.9,2.9-2.3,3.2c-1.5,0.3-2.7-0.3-3.4-1.8c-0.4-1-0.7-2-0.6-3.1c0.1-1.3,1-2.2,2.4-2.5
		c1.3-0.3,2.3,0.2,3,1.4C322.9,200.8,323.1,201.8,323.2,202.8z"/>
	<path class="st13" d="M237.5,175.6c-0.8,1.4-1.4,2.5-2,3.7c-0.1,0-0.2,0-0.3-0.1c-1.8-2.1-1.8-2.1,0.8-3
		C236.4,176,236.8,175.9,237.5,175.6z"/>
	<path class="st14" d="M241.6,54.5c0,1-0.9,1.8-2,1.7c-1.9-0.3-3.3-1.4-4.1-3.1c-0.6-1.2,0-2.3,1.1-2.5
		C238.4,50.1,241.6,52.7,241.6,54.5z"/>
	<path class="st14" d="M281.1,32.2c0,0.8-0.1,1.6-0.9,1.9c-0.8,0.4-1.6,0-2.2-0.6c-1.2-1.2-1.7-2.7-1.7-4.3c0-0.8,0.3-1.5,1.1-1.8
		c0.8-0.4,1.5,0,2,0.6C280.5,29.1,280.9,30.6,281.1,32.2z"/>
	<path class="st14" d="M371.2,61.6c-0.9,0-1.6-0.8-1.6-1.9c0-1.6,1.8-4,3.4-4.4c1.1-0.3,2,0.1,2.3,1.2
		C375.7,58.2,373,61.6,371.2,61.6z"/>
	<path class="st13" d="M390.9,83.5c0.9,0,1.5,0.5,1.5,1.4s-0.7,1.3-1.4,1.6c-0.2,0.1-1.3-2-1.2-2.4C390,83.5,390.5,83.6,390.9,83.5z
		"/>
	<path class="st14" d="M357.3,186.9c1.2,0,2.5,1.5,2.5,2.8c0,1.1-0.7,1.9-1.7,1.9c-1.2,0-2.6-1.5-2.6-2.8
		C355.5,187.7,356.3,186.9,357.3,186.9z"/>
	<path class="st14" d="M263,199c0-1.5,1.2-2.9,2.4-2.8c1,0,1.8,0.9,1.7,2c-0.1,1.5-1.2,2.8-2.4,2.8C263.7,200.9,263,200.1,263,199z"
		/>
	<path class="st13" d="M337.3,199c-0.3-1-0.3-1.8,0.7-2.3c0.7-0.3,1.3-0.1,1.8,0.5c0.3,0.4,0.5,0.7-0.2,0.9
		C338.8,198.3,338.1,198.7,337.3,199z"/>
	<path class="st13" d="M372.6,175.2c-0.8-0.8-1-1.6-0.4-2.4c0.5-0.6,1.1-0.7,1.8-0.4c0.4,0.2,0.6,0.4,0.3,0.8
		C373.7,173.9,373.2,174.6,372.6,175.2z"/>
	<path class="st10" d="M319.9,107.1c0.3,0.9,1.1,1.5,1.5,2.2c3.6,6,2.7,14.5-2.2,19.2c-3.1,2.9-6.8,4-10.9,4c-1.9,0-3.6-0.3-5.4-0.8
		l0,0c-0.1-0.1-0.2-0.1-0.4-0.2c-10.3-3.9-10.8-18.1-5-24.1c2.6-2.7,5.7-4.2,9.3-4.7c3.8-0.5,7.5,0.1,10.8,2.3
		c0.7,0.4,1.1,1.2,1.9,1.4c0.1,0.2,0.2,0.3,0.4,0.3l0,0C319.6,107,319.7,107.1,319.9,107.1L319.9,107.1z M306.4,128.5
		c0,0.2,0.1,0.2,0.3,0.3c3.4,1.6,6.9,0.4,8.4-3.1c2.3-5.5,2.1-11-0.5-16.4c-0.5-1-1.2-2.1-2.3-2.6c-1.1-1-2.4-1.4-3.8-1.4
		c-3.3-0.1-6.1,2-7.1,5.6c-1.3,4.7-0.9,9.4,1.3,13.8C303.6,126.2,304.6,127.8,306.4,128.5L306.4,128.5z"/>
	<path class="st12" d="M277.6,127.3c-2.6-1.5-3.9-3.9-4.6-6.7c-1.1-4.3-1.2-8.5,1.4-12.4c2.1-3.3,7.1-4,9.8-1.5
		c-2.6-0.4-5-0.1-6.8,2.1c-0.9,0.6-1.4,1.5-1.8,2.5c-1.9,5.1-1.4,10.1,1.4,14.8C277.3,126.4,277.9,126.7,277.6,127.3z"/>
	<path class="st7" d="M277.6,127.3c0.3-0.6-0.4-0.9-0.6-1.2c-2.8-4.7-3.3-9.6-1.4-14.8c0.4-1,0.9-1.9,1.8-2.5c0.5,1.2,0.4,2-0.5,3.1
		c-1,1.3-1.3,3.2-0.5,5c0.3,0.7,0.8,1.3,0.4,2.2c-0.1,0.1,0,0.3,0.1,0.4c1.1,1.4,1.9,3,2.9,4.4c1.3,1.7,3.2,2.8,4.6,4.4
		c-2.1,0.8-4.1,0.6-6-0.5c-0.1-0.1-0.2-0.2-0.3-0.3l0,0C278,127.3,278,127,277.6,127.3L277.6,127.3z"/>
	<path class="st7" d="M310.8,78c2.1,0.4,4.3,0.9,6.4,1.3c-0.3,0.3-0.8,0.2-1.1,0.2c-8.5,0-17,0-25.5,0c1-0.6,2.1-0.6,3.1-1
		c4.4-0.8,8.8-1.1,13.2-0.7C308.2,77.9,309.5,77.9,310.8,78z"/>
	<path class="st12" d="M274,131.9c4.9,1.4,9.4,0.8,13.4-2.5c0.4,0,0.7-0.1,0.7-0.5l0,0c1.3-0.2,2-1.3,3-2c0.3-0.3,0.5-0.8,1-0.3
		c0.5,0.4,0.2,0.8,0,1.1c-1.5,2.5-3.6,4.3-6.3,5.4c-3.5,1-7.1,1.2-10.5-0.3C274.8,132.6,274.3,132.4,274,131.9z"/>
	<path class="st12" d="M289.2,111.7c-0.1-2.1-0.1-4.2-0.2-6.3c2.2-0.1,2.2-0.1,2.3,2.1c0.1,2.1,0,4.3,0.2,6.4c0,0.4,0.3,0.9-0.4,1
		c-0.6,0.1-0.8-0.2-1-0.8c-0.2-0.6-0.2-1.3-0.7-1.8l0,0C289.5,112.1,289.5,111.9,289.2,111.7z"/>
	<path class="st12" d="M289.5,133.7c-0.4,0.5-0.9,0.7-1.5,0.2C288.4,132.8,288.6,132.8,289.5,133.7z"/>
	<path class="st8" d="M319.7,106.9c-0.2,0-0.3-0.1-0.4-0.3C319.4,106.6,319.6,106.6,319.7,106.9z"/>
	<path class="st8" d="M319.9,107.1c-0.2,0-0.3-0.1-0.3-0.3C319.8,106.8,319.9,106.9,319.9,107.1z"/>
	<path class="st8" d="M302.4,131.6c0.1,0.1,0.2,0.1,0.4,0.2C302.6,131.7,302.5,131.7,302.4,131.6z"/>
	<path class="st0" d="M323,87c2.2,0.7,4.5,1,6.3,2.5c-1.4,0-2.8,0-4.2,0c-0.9,0-1.4-0.2-1.6-1.1C323.4,87.9,323.2,87.4,323,87z"/>
	<path class="st0" d="M278.4,89.5c0.3-0.9,1.2-1.3,1.8-1.5c1.5-0.4,2.8-1.1,4.2-1.8c-0.1,1-0.6,1.9-0.9,2.8c-0.2,0.5-0.6,0.5-1,0.5
		C281.1,89.5,279.8,89.5,278.4,89.5z"/>
	<path class="st2" d="M285.1,84.5c-0.1-0.1-0.2-0.3-0.3-0.4c-0.5-0.7-1.5-1.3-1-2.1c0.5-0.8,1.6-1,2.6-1.1
		C286.1,82.2,285.6,83.4,285.1,84.5z"/>
	<path class="st0" d="M284.4,86.2c0.1-0.1,0.1-0.2,0.2-0.3C284.6,86.1,284.6,86.2,284.4,86.2z"/>
	<path class="st2" d="M286.3,80.9c0.1-0.1,0.1-0.1,0.2-0.2C286.5,80.9,286.5,81,286.3,80.9z"/>
	<path class="st14" d="M276.7,79.6c-0.8-1-0.6-2.5,0.7-2.9c2-0.6,3.5-2,5.3-2.8c5.4-2.3,10.9-4.1,16.8-4.6
		c6.2-0.6,12.3-0.6,18.3,0.9c1.7,0.4,3.3,1,4.8,1.7c2.9,1.3,5.7,2.6,8.2,4.6c0.4,0.3,0.8,0.6,0.9,1.2c0,0.4-0.1,0.7-0.2,1
		c-0.2-0.2-0.5-0.3-0.8-0.5c-0.2,0.8,0.6,2-0.7,2.5l0,0c0,0.1-0.1,0.2-0.1,0.2c-0.2-0.2-0.2-0.7-0.7-0.2c-1,0.8-0.6,1.9-1,2.8
		c-0.9-0.3-1.4-1.3-2.4-1.5c-3.9-1.9-8-3.1-12.3-3.8c-0.9-0.2-1.9-0.3-2.8-0.4c-5.7-0.7-11.4-0.8-17.1,0.5c-4.1,0.8-8.1,2-11.8,4
		c-1,0.3-1.6,1-2.4,1.6c-0.1,0-0.2,0-0.3,0c-0.1-0.4-0.7-0.6-0.4-1.1c0.1-0.1,0.2-0.2,0.2-0.2c0.1,0,0.2-0.1,0.1-0.2
		c0,0-0.2,0.1-0.3,0.1c-0.1,0.1-0.2,0.1-0.3,0.2c-0.7-0.2-0.8-0.6-0.5-1.2c0-0.1,0.1-0.2,0.1-0.4h0.1H278c-0.1,0.1-0.2,0.2-0.2,0.2
		c-0.6-0.3-0.9-0.9-1-1.5C277.1,79,276.8,79.9,276.7,79.6z"/>
	<path class="st13" d="M283.4,85.7c-0.8,0.8-1.9,1.1-3,1.4c-1.5,0.5-2.6,1.3-3.3,2.7c-1.1,2.2-3,3.2-5.5,3.6
		c1.2-1.8,2.3-3.4,2.8-5.5c-2.3,1.1-4.5,2.1-7.2,2c1.8-1.2,3.4-2.4,4.9-3.8c0.6-0.5,1-1.1,1.3-1.8c0.6-1.2,1.7-2,3-2.4
		c0.5-0.2,0.7-0.1,0.8,0.5c0.1,0.7,0.2,1.5,0.4,2.2c0.1,0.6,0.2,1.4,1.2,1.1l0,0c0.6,0.4,1.1,0.4,1.7,0l0,0c0.3,0,0.6,0.1,0.7-0.2
		l0,0c0.2,0,0.4,0,0.5-0.2c0.4,0.2,0.7,0.4,1.2,0.2C283,85.8,283.2,85.7,283.4,85.7z"/>
	<path class="st13" d="M329.8,81.9c1.8-0.2,2.2,0,3,1.7c0.9,2.1,2.7,3.2,4.8,4.4c-2,0-3.6-0.2-5.2-1.2c-0.1,0.5,0.1,0.8,0.4,1
		c0.8,0.5,1.2,1.3,1.4,2.1c0.4,1.2,0.9,2.4,2.4,3c-1.5,0.6-2.7,0.1-3.8-0.6c-0.6-0.4-1.2-0.9-1.5-1.5c-1.3-2.2-3.2-3.3-5.6-3.8
		c-0.3-0.1-0.7,0-1-0.4c0.6-0.3,0.6-0.3,0.3-0.8c1-0.5,2.3,0.3,3.2-0.8c0.6-0.3,0.3-1,0.5-1.4c0-0.1,0-0.1,0-0.2
		C329.4,83,329.6,82.5,329.8,81.9L329.8,81.9z"/>
	<path class="st6" d="M328.8,83.6c-0.2,0.5,0.2,1.1-0.5,1.4c-2.2,0.3-2.2,0.3-5.4-0.7c1-0.1,0.4-0.7,0.6-1c0.6-0.7,1.1-1.7,2.3-1.4
		c1,0.2,1.5,1.2,2.4,1.5l0,0C328.3,83.7,328.6,83.6,328.8,83.6z"/>
	<path class="st6" d="M279.6,83.8c0.8-0.6,1.4-1.3,2.4-1.6c1,0,1.1,1,1.7,1.5c0.4,0.3,0.2,0.5-0.2,0.6c-0.6,0.2-1.1,0.5-1.6,0.7
		c-0.2,0.1-0.5,0.1-0.5,0.5l0,0c-0.4-0.1-0.7-0.1-0.9,0.2l0,0c-0.6,0-1.1,0-1.7,0l0,0c0.2-0.3,0.8-0.3,0.2-0.9
		C278.7,84.4,279.8,84.3,279.6,83.8z"/>
	<path class="st5" d="M293.7,78.2c5.7-1.4,11.4-1.2,17.1-0.5c0,0.1,0,0.2,0,0.3c-1.3-0.1-2.6-0.1-3.8-0.2c-4.4-0.4-8.8-0.1-13.2,0.7
		C293.7,78.4,293.7,78.3,293.7,78.2z"/>
	<path class="st2" d="M320.3,80.5c0.5-0.2,2.8,0.5,3,0.9c0.1,0.2,0.1,0.4,0,0.6c-0.4,0.9-0.7,1.8-1.5,2.4
		C321.4,83.1,320.9,81.8,320.3,80.5z"/>
	<path class="st7" d="M320.3,80.5c0.5,1.3,1,2.5,1.6,3.8c0,0.4-0.1,0.9-0.1,1.4C320.1,84.3,319.8,82.5,320.3,80.5z"/>
	<path class="st8" d="M278.9,82.6c-0.3,0.5,0.4,0.8,0.5,1.2c-0.3,0.2-0.5,0.7-1,0.5c-0.4-0.2-0.1-0.5-0.2-0.7
		c-0.1-1.1-0.7-2.1-1.3-3c-0.2-0.3-0.1-0.7-0.2-1c0.1,0.3,0.4-0.6,0.5,0.1c0,0.6,0.4,1.2,1,1.5l0.1,0.1c-0.3,0.6-0.2,1,0.5,1.2
		C278.8,82.5,278.8,82.6,278.9,82.6z"/>
	<path class="st8" d="M328.3,83.3c0.4-0.9,0.1-2.1,1-2.8c0.5-0.4,0.5,0,0.7,0.2c-0.2,0.4-0.3,0.8-0.2,1.2l0,0
		c-0.7,0.1-0.8,0.7-1.1,1.1C328.6,83.1,328.3,83.1,328.3,83.3L328.3,83.3z"/>
	<path class="st5" d="M283.4,85.7c-0.2,0-0.4,0-0.5-0.3C283.4,85.1,283.4,85.4,283.4,85.7z"/>
	<path class="st5" d="M283.8,84.8c-0.1,0-0.1,0.1-0.2,0.1c0-0.1-0.1-0.2-0.1-0.2c0.1,0,0.1-0.1,0.2-0.1
		C283.8,84.6,283.8,84.7,283.8,84.8z"/>
	<path class="st5" d="M281.3,85.5c0-0.3,0.2-0.4,0.5-0.5c0,0.1,0,0.2,0,0.3C281.7,85.5,281.5,85.5,281.3,85.5z"/>
	<path class="st7" d="M321.9,86.1L321.9,86.1C321.9,86,321.9,86,321.9,86.1C322,86,322,86,321.9,86.1C322,86.1,322,86.1,321.9,86.1z
		"/>
	<path class="st2" d="M334.5,88.6c0,0-0.1,0-0.1-0.1C334.5,88.6,334.5,88.6,334.5,88.6L334.5,88.6z"/>
	<path class="st6" d="M330.1,80.5L330.1,80.5L330.1,80.5z"/>
	<path class="st7" d="M339.3,106.5c1,0.1,1.1,1.1,1.3,1.7c0.8,2.4,0.8,4.8-0.1,7.2c-0.5,1.4-1.6,2.2-3.1,2.4c0-3.2,0-6.4,0-9.5
		C337.5,106.5,337.5,106.5,339.3,106.5z"/>
	<path class="st8" d="M339.3,106.5c-1.8,0-1.8,0-1.8,1.8c0,3.2,0,6.4,0,9.5h-0.1c-2.1,0.5-2.1,0.5-2.1-1.6c0-3.3,0-6.6,0-9.9
		c0-0.9,0.4-1.3,1.2-1.2C337.6,105.3,338.8,105.1,339.3,106.5z"/>
	<path class="st6" d="M288.2,128.9c-0.1,0.4-0.4,0.5-0.7,0.5C287.7,129.2,287.8,128.8,288.2,128.9z"/>
	<path class="st6" d="M289.2,111.7c0.2,0.2,0.2,0.5,0.1,0.7C289.2,112.2,289.2,111.9,289.2,111.7z"/>
	<path class="st12" d="M277.6,127.3c0.3-0.2,0.4,0,0.5,0.2C277.9,127.6,277.7,127.5,277.6,127.3z"/>
	<path class="st12" d="M278.1,127.5c0.1,0.1,0.2,0.2,0.3,0.3C278.3,127.7,278.1,127.7,278.1,127.5z"/>
	<path class="st2" d="M349.9,115.8c0-0.2-0.1-0.5,0.3-0.6C350.2,115.5,350.2,115.7,349.9,115.8z"/>
	<path class="st2" d="M349.7,116.3c0-0.2,0-0.3,0.2-0.5C349.9,116.1,349.9,116.2,349.7,116.3z"/>
	<path class="st6" d="M312.3,106.6c1.1,0.6,1.8,1.6,2.3,2.6c2.6,5.4,2.8,10.9,0.5,16.4c-1.5,3.5-5,4.7-8.4,3.1
		c0-0.2-0.1-0.3-0.3-0.3l0,0c0-0.1,0-0.3-0.1-0.4c-3.4-4.5-3.8-9.6-2.9-14.8c0.5-3,2.1-5.5,5.4-6.5
		C309.9,106.4,311.1,106.6,312.3,106.6z"/>
	<path class="st12" d="M312.3,106.6c-1.2,0-2.4-0.2-3.6,0.1c-3.2,1-4.8,3.4-5.4,6.5c-0.9,5.3-0.5,10.4,2.9,14.8
		c0.1,0.1,0.1,0.3,0.1,0.4c-1.9-0.7-2.8-2.3-3.7-3.9c-2.2-4.4-2.6-9.1-1.3-13.8c1-3.6,3.8-5.8,7.1-5.6
		C309.9,105.2,311.3,105.5,312.3,106.6z"/>
	<path class="st12" d="M306.4,128.5c0.2,0,0.3,0.1,0.3,0.3C306.6,128.7,306.4,128.7,306.4,128.5z"/>
	<path d="M279.1,82.4c-0.1,0.1-0.2,0.2-0.2,0.2c-0.1,0-0.1-0.1-0.1-0.2c0.1-0.1,0.2-0.1,0.3-0.2C279,82.3,279.1,82.3,279.1,82.4z"/>
	<path d="M279,82.3c0.1,0,0.2-0.1,0.3-0.1c0.1,0.1,0,0.2-0.1,0.2C279.1,82.3,279,82.3,279,82.3z"/>
	<path d="M278.3,80.9c0,0.1-0.1,0.2-0.1,0.4l-0.1-0.1C278.2,81.1,278.3,81,278.3,80.9L278.3,80.9z"/>
	<path class="st5" d="M278.8,85.7c0.6,0,1.1,0,1.7,0C280,86.1,279.4,86.1,278.8,85.7z"/>
	<path class="st5" d="M280.5,85.7c0.2-0.4,0.4-0.3,0.7-0.2C281.1,85.8,280.8,85.8,280.5,85.7z"/>
	<path class="st8" d="M328.7,83.1c0.3-0.5,0.4-1.1,1.1-1.1c-0.2,0.6-0.4,1.1-1,1.4C328.8,83.2,328.7,83.1,328.7,83.1z"/>
	<path d="M328.7,83.1c0,0.1,0,0.2,0,0.3c0,0.1,0,0.1,0,0.2c-0.2,0-0.5,0.1-0.5-0.2C328.3,83.1,328.6,83.1,328.7,83.1z"/>
	<polygon class="st2" points="304.7,69.8 305.4,71.7 307.3,71.8 305.8,73 306.3,74.9 304.7,73.8 303,74.9 303.5,73 302,71.8 
		304,71.7 	"/>
	<polygon class="st2" points="295.6,70.7 296.6,72.5 298.5,72.2 297.2,73.7 298,75.5 296.2,74.7 294.8,76 295,74.1 293.3,73.1 
		295.2,72.7 	"/>
	<polygon class="st2" points="313.8,70.7 312.8,72.5 310.8,72.2 312.2,73.7 311.3,75.5 313.1,74.7 314.6,76 314.4,74.1 316.1,73.1 
		314.2,72.7 	"/>
	<polygon class="st2" points="322.5,73.3 321.2,74.8 319.3,74.1 320.3,75.8 319.1,77.4 321,77 322.2,78.6 322.4,76.6 324.3,76 
		322.5,75.3 	"/>
	<polygon class="st2" points="286.2,73.4 287.6,74.9 289.4,74.2 288.4,75.9 289.6,77.5 287.7,77.1 286.5,78.7 286.3,76.7 
		284.4,76.2 286.3,75.4 	"/>
</g>
<text transform="matrix(1 0 0 1 9.6656 292.5557)" class="st15 st16 st17">Illinois Council of Police</text>
<text transform="matrix(1.0477 0 0 1 94.1261 340.7422)" class="st18 st19 st20">A UNION WITH ONE VOICE</text>
</svg>
