<?xml version="1.0" encoding="utf-8"?>
<!-- Generator: Adobe Illustrator 22.0.1, SVG Export Plug-In . SVG Version: 6.00 Build 0)  -->
<svg version="1.1" id="ICOPS_x5F_logo_x5F_fnl07_xA0_Image_1_"
	 xmlns="http://www.w3.org/2000/svg" xmlns:xlink="http://www.w3.org/1999/xlink" x="0px" y="0px" viewBox="0 0 864.8 220.8"
	 style="enable-background:new 0 0 864.8 220.8;" xml:space="preserve">
<style type="text/css">
	.st0{fill:#30468C;}
	.st1{fill:#FCFCFD;}
	.st2{fill:#283F87;}
	.st3{fill:#241F1C;}
	.st4{fill:#25201E;}
	.st5{fill:#27221F;}
	.st6{fill:#9C6937;}
	.st7{fill:#F3C533;}
	.st8{fill:#1E1E1D;}
	.st9{fill:#FDFCFB;}
	.st10{fill:#FCFBFB;}
	.st11{fill:#F9FAFB;}
	.st12{fill:#191A1A;}
	.st13{fill:#F6F6F6;}
	.st14{fill:#F8F8F9;}
	.st15{enable-background:new    ;}
	.st16{fill:#FFFFFF;}
	.st17{opacity:0.8;enable-background:new    ;}
</style>
<path class="st0" d="M113.2,6.6c22.7,0.2,45.3,8,64.9,23.9c19.2,15.6,31.7,35.5,36.6,59.8c5.5,27.3,0.6,52.9-14.7,76.2
	c-16.3,24.8-39.3,40.3-68.4,46c-30.7,6-59.1-0.2-84.4-18.6c-21.5-15.7-35.3-36.7-40.7-62.8C1.4,105.9,5.2,82,18.1,59.8
	C33.8,33.1,57,16.4,87.1,9.2C94.9,7.4,102.7,6.7,113.2,6.6z M192.9,112.4c0-45-36.7-81.8-81.6-81.8c-44.8,0-81.4,36.7-81.5,81.7
	c-0.1,45,36.5,81.7,81.5,81.8C156.1,194.3,192.9,157.4,192.9,112.4z"/>
<path class="st1" d="M113.1,9.6c22,0.2,44,7.7,63.1,23.2c18.7,15.1,30.8,34.5,35.6,58.1c5.3,26.5,0.6,51.4-14.3,74
	c-15.9,24.1-38.2,39.2-66.5,44.7c-29.8,5.9-57.4-0.2-82-18.1c-20.9-15.2-34.3-35.6-39.5-61c-5-24.4-1.3-47.7,11.3-69.2
	c15.2-26,37.8-42.2,67-49.1C95.3,10.3,102.9,9.6,113.1,9.6z M190.5,112.4c0-43.7-35.7-79.5-79.3-79.5S32.1,68.5,32,112.3
	c-0.1,43.7,35.4,79.4,79.2,79.5C154.8,191.9,190.6,156.1,190.5,112.4z"/>
<path class="st2" d="M190.5,112.4c0,43.7-35.7,79.6-79.3,79.5C67.5,191.8,32,156,32.1,112.3c0.1-43.8,35.6-79.4,79.2-79.4
	S190.5,68.6,190.5,112.4z M169.4,118.6c-0.1-0.1-0.2-0.2-0.3-0.3c-1.3-1.1-2.8-1.9-4.3-2.8c-0.6-2.5,0.1-3.4,2.7-3.5
	c0.6,0.4,0.9,1.1,1.2,1.8c0.1,0.5,0.3,0.8,0.9,0.7c0.7,0,0.3-0.6,0.5-0.9c0.6,0.3,0.7,0.9,1,1.5c0.2,0.5,0.4,0.9,0.9,0.7
	c0.5-0.2,0.3-0.7,0.2-1c0-0.4-0.1-0.9-0.1-1.3c0-2.1,0-2.1-2.2-2.2c0.2-1.2-0.3-1.7-1.5-1.5c-0.6,0.1-1.2-0.1-1.8-0.3
	c-3.1-0.9-5.8-0.3-7.9,2.3c-0.1-1.5,0.4-3.1,0.1-4.6c0.1-0.1,0.2-0.2,0.3-0.3c7.9-6.2,15.7-12.5,23.6-18.7c0.4-0.3,1.2-0.5,0.9-1.3
	s-1-0.4-1.6-0.4c-12.9-0.1-25.7-0.2-38.6-0.3c-0.2-0.3-0.4-0.6-0.4-0.9l0,0c1.3,0,2.6,0.4,3.9,0.2c0.4,0,0.8,0.1,0.9-0.5
	c0-0.5-0.3-0.6-0.7-0.7c-2.4-0.9-4.5-2.2-5.6-4.7c-0.3-0.6-0.7-1.1-1.3-1.4c-0.7-0.3-0.5-0.5-0.2-0.9c0.2-0.3,0.4-0.6,0.7-0.8
	c1.2-1.2,1.2-1.9,0-3.2c-1.8-1.9-4.1-3.1-6.4-4.3c-3.2-1.7-6.7-2.8-10.2-3.6c-4-10-8-19.9-12-29.9c-0.2-0.4-0.2-0.9-0.8-0.8
	c-0.6,0-0.6,0.5-0.8,0.9c-3.7,9.9-7.3,19.9-10.9,29.8c-0.1,0.3-0.4,0.6-0.1,1l0,0c-0.2-0.1-0.2,0.1-0.3,0.2
	c-1.7,0.4-3.3,1.2-4.9,1.8c-3.4,1.2-6.5,2.9-9.4,5.1c-1.4,1.1-1.6,1.7-0.6,3.2c0.1,0.1,0.2,0.3,0.3,0.4c0.5,0.6,0.6,1.1-0.4,1.3
	c-1,0.3-1.9,0.9-2.4,1.8c-1.6,2.9-4.1,4.6-6.8,6.1c-10.5,0.1-20.9,0.1-31.4,0.2c-1.8,0-3.6,0-5.4,0c-0.4,0-0.8-0.1-1,0.5
	s0.2,0.7,0.5,0.9c0.7,0.5,1.3,1,2,1.5c7,5.4,13.9,10.7,20.9,16.1c0,6.6,0,13.2,0,19.7c0,1.3-0.7,1.9-1.9,1.9c-0.8,0-0.8,0.5-0.8,1
	c0,0.8,0.5,0.5,0.9,0.5c0.5,0,1,0,1.6,0c-0.1,1.4,0,1.6,1.4,1.3c0.9-0.2,1.7-0.2,2.6-0.2c2.4,0,4.8-0.1,7.2,0.2
	c0.4,0.1,0.9,0.2,1-0.5c0.1-0.6-0.2-0.9-0.8-0.9c-0.5,0-0.9-0.2-1.4-0.3c-0.1-0.4,0.1-1.1-0.6-1.1c0-4.8,0-9.6,0-14.4
	c1.4,1.1,2.8,2.1,4.2,3.2c0.3,3.3,1.4,6.2,3.4,8.9c-0.1,0.2-0.2,0.4-0.2,0.7c-4.6,15.6-9.2,31.2-13.8,46.8c-0.1,0.4-0.5,0.8,0.1,1.2
	c0.6,0.4,1-0.1,1.4-0.4c13.3-8.9,26.5-17.8,39.8-26.7c0.5,0.2,3.1,2.8,3.3,3.2c0.1,0.2,0.2,0.5,0.1,0.7c-0.3,0.6,0,1,0.2,1.5
	c0.4,0.9,1.2,1.9-0.2,2.7c-0.2,0.1-0.4,0.4-0.2,0.6c0.9,1,1.2,2.2,1.7,3.4c0.2,0.4,0.7,0.7,1.2,0.8c0.6,0.1,0-0.7,0.3-0.7
	c0.7,0.1,0.7,1.1,1.4,0.8c0.5-0.2-0.5-0.7-0.2-1.1c0.7,0.1,1.1,0.8,1.7,1.1c0-1.4,0.8-2.4,1.6-3.3c1,0.9,2.2,1.3,3.5,1.7
	c0.6,0.2,1.2,0.4,1.8,0c0.6,0.3,1.2,0.5,1.7,0s0.3-1.2,0.1-1.8c-0.1-0.3-0.3-0.5-0.5-0.8c-0.4-0.9,0.2-2.3,1.1-2.4
	c1.3-0.2,2.6-0.5,3.8-1c0.3,0.2,0.7,0.4,1,0.6c10.5,6.9,21.1,13.7,31.6,20.6c0.4,0.2,0.7,0.9,1.3,0.4c0.7-0.5,0.2-1,0-1.5
	c-2.3-7.1-4.5-14.1-6.8-21.2c-2.2-6.9-4.4-13.8-6.6-20.7c0.2,0,0.3,0,0.5,0c0.4,0,1,0.2,1-0.6s-0.4-0.8-1-0.8
	c-0.4,0-0.8-0.2-1.2-0.3c-0.1-0.4,0.1-0.9-0.3-1.3c-0.4-0.4-0.3-0.9-0.3-1.4c0-2.2,0-4.5,0-6.7c0-1,0.3-1.3,1.3-1.3
	c2.5,0.1,4.9-0.3,7.2-1.4c1.6-0.8,2.6-2.1,3.7-3.4c-0.7,3.1,0.3,5.5,3,7.2c0.7,0.4,1.4,0.8,2,1.2c1.1,0.7,2.3,1.2,3.2,2.2
	c0.5,0.6,0.7,1.2,0.4,2s-0.8,1.3-1.7,1.3c-0.9,0.1-1.8,0.2-2.5-0.3c0-0.8-0.6-1.4-0.8-2.1c-0.2-0.5,0-1.5-0.8-1.3
	c-0.9,0.1-0.3,1.1-0.5,1.6c-0.6-0.7-0.9-1.7-1.1-2.6c-0.1-0.5-0.3-0.5-0.8-0.5c-0.6,0-0.5,0.3-0.5,0.7c0,1.3,0.1,2.6-0.1,3.8
	c-0.1,1.3-0.1,2.2,1.6,2c0.2,0,0.4,0.1,0.7,0.2c0,0.4-0.1,0.9,0.6,0.9c1.4,0.1,2.7,0.5,4.1,0.9c1.3,0.4,2.6,0.3,3.9-0.1
	c3.8-1.2,5.1-5.1,3.7-8.5c-0.5-1.3-1.4-2.4-2.8-2.8h0.1C169.8,118.6,169.7,118.5,169.4,118.6L169.4,118.6z"/>
<path class="st3" d="M158.7,29.8c0.1,4.3-3.1,7.8-6.9,7.8c-4.1,0-7.5-3.1-7.6-6.9c0-4.3,3-7.9,6.8-7.9
	C155.3,22.7,158.6,25.7,158.7,29.8z M147.5,31.5c0,0.3,0,0.9,0.1,1.4c0.3,1.5,1,2.7,2.6,3.1c1.6,0.3,2.7-0.6,3.5-1.8
	c1.3-1.8,1.9-3.8,1.9-6.1c0-2.1-1-3.5-2.7-3.9c-1.5-0.4-3,0.3-4.1,2.1C148.1,27.8,147.6,29.5,147.5,31.5z"/>
<path class="st3" d="M177.8,47.8c-1.5-0.1-2.7-0.7-3.7-1.7c-0.6-0.6-1-0.5-1.4,0.2c-0.5,0.7-1.1,1.4-1.6,2.1c-0.5,0.6-1,1.2-0.3,2
	c0.2,0.2,0.2,0.4,0,0.5c-0.2,0.2-0.4,0-0.5-0.1c-1.2-1.2-2.5-2.3-3.8-3.3c-0.2-0.1-0.3-0.3-0.2-0.5s0.4-0.2,0.5-0.1
	c0.7,0.5,1.2,0,1.6-0.5c2.1-2.6,4.2-5.1,6.3-7.7c0.5-0.6,0.8-1.1,0.2-1.8c-0.2-0.2-0.1-0.4,0-0.5s0.3,0,0.4,0.1
	c1.8,1.9,4.1,3.1,5.7,5.1c0.9,1.1,1.3,2.4,0.5,3.8C180.6,46.8,179.5,47.8,177.8,47.8z M179.2,41.9c0-0.6-0.2-1.2-0.8-1.6
	c-0.3-0.3-0.6-0.4-0.9,0c-1.1,1.4-2.2,2.7-3.3,4.1c-0.2,0.2-0.4,0.4,0,0.7c0.7,0.5,1.3,0.9,2.2,0.6
	C177.7,45.3,179.2,43.3,179.2,41.9z"/>
<path class="st4" d="M68.2,29c0.1-4.1,2.2-6.6,5.8-7.3c0.4-0.1,0.9-0.1,1.3-0.2c1.7-0.3,1.7-0.3,2.4,1.2c0.3,0.7,0.6,1.3,0.8,2
	c0.1,0.2,0.4,0.5,0.1,0.7c-0.4,0.3-0.5-0.2-0.7-0.4c-0.2-0.2-0.4-0.5-0.6-0.7c-1.3-1.4-2.7-1.8-4.1-1.2c-1.4,0.6-2.3,2-2.2,3.8
	c0.2,2.3,1,4.3,2.7,5.8c2.4,2.1,5.3,1.5,6.8-1.3c0.1-0.3,0.1-0.9,0.6-0.7c0.5,0.2,0.2,0.7,0.1,1.1c-0.7,2.6-2.5,4.1-5,4.6
	c-2.4,0.5-4.3-0.4-5.9-2.2C68.8,32.6,68.2,30.7,68.2,29z"/>
<path class="st4" d="M133.9,199.3c0,2.8-1.6,4.7-4.4,5.2c-2.5,0.5-4.7-0.7-5.6-3.1c-0.4-0.9-0.6-1.9-0.6-2.9
	c-0.1-2.9,1.5-4.8,4.4-5.4c2.5-0.5,4.7,0.7,5.7,3.3C133.7,197.3,134,198.4,133.9,199.3z M131.7,199.4c-0.1-0.9-0.3-2-0.8-2.9
	c-0.7-1.2-1.7-1.7-3-1.4s-2.2,1.2-2.4,2.5c-0.1,1.1,0.1,2.1,0.6,3.1c0.7,1.5,1.9,2.1,3.4,1.8C130.8,202.3,131.7,201,131.7,199.4z"/>
<path class="st5" d="M109,21.4c0.5-0.4,0.9-0.8,1.4-1.1c2-1.2,4-0.2,4.1,2.1c0.1,1.6,0,3.1,0,4.7c0,0.6-0.2,1.3,0.6,1.8
	c0.4,0.2,0.3,0.6-0.2,0.5c-1.2,0-2.3,0-3.5-0.1c-0.1,0-0.3,0.1-0.4-0.1s0-0.4,0.2-0.5c0.4-0.1,0.6-0.4,0.6-0.8
	c0.2-1.8,0.2-3.7,0.1-5.5c-0.1-0.8-0.7-1-1.4-0.9c-0.7,0.1-1.4,0.3-1.4,1.2c0,1.6,0,3.3,0,4.9c0,0.5,0.1,0.9,0.6,1.1
	c0.2,0.1,0.4,0.2,0.3,0.4c-0.1,0.2-0.3,0.2-0.5,0.2c-1.1,0-2.2,0-3.2-0.1c-0.2,0-0.5,0.1-0.6-0.2c-0.1-0.3,0.2-0.3,0.3-0.4
	c0.5-0.3,0.6-0.7,0.6-1.2c0-1.7,0.1-3.4,0.1-5c0-0.4,0.1-0.8-0.3-1.1c-1.2-0.7-0.2-0.7,0.3-0.9c0.3-0.1,0.5-0.1,0.8-0.2
	C108.8,19.7,108.8,19.7,109,21.4z"/>
<path class="st4" d="M36,58.1c0-0.7-0.1-1.5,0-2.2c0.4-2.3,2.4-3,4.2-1.6c1,0.7,1.9,1.5,2.8,2.3c0.8,0.7,1.5,1.6,3.1,1
	c-1,1.4-1.8,2.4-2.7,3.5c-0.1,0.1-0.3,0.2-0.4,0.2c-0.3,0-0.3-0.3-0.2-0.5c0.2-0.6-0.2-0.9-0.5-1.2c-1.2-1-2.3-2-3.5-2.9
	c-0.6-0.5-1.3-0.7-1.9,0.1C36.4,57.5,36,58.2,37,59c1.1,0.9,2.2,1.8,3.3,2.7c0.3,0.3,0.7,0.6,1.2,0.5c0.3,0,0.6-0.5,0.8,0
	c0.1,0.3-0.2,0.5-0.4,0.7c-0.6,0.8-1.3,1.6-1.9,2.5c-0.1,0.2-0.2,0.4-0.5,0.3c-0.2-0.1-0.2-0.3-0.1-0.5c0.2-0.6-0.2-0.9-0.6-1.2
	c-1.3-1.1-2.6-2.2-3.9-3.2c-0.3-0.3-0.7-0.5-1.2-0.3c-0.6,0.3-0.6,0-0.5-0.5c0.1-0.3,0.3-0.7,0.4-1C34.5,57.1,34.5,57.1,36,58.1z"/>
<path class="st4" d="M47,169.7c0.7,0,1.7,1.8,1.4,2.4c-1.6,3.1-3.2,6.2-4.8,9.4c-0.3,0.5-0.4,0.7-0.9,0.1c-0.8-0.8-1.2-1.6-0.3-2.6
	c0.6-0.7,0.5-1.4-0.2-2c-0.2-0.2-0.4-0.4-0.5-0.6c-0.8-1.3-1.8-2.2-3.4-1.1c-0.4,0.2-1.8-1-1.8-1.5c0-0.3,0.2-0.3,0.4-0.4
	c3.3-1.2,6.6-2.3,9.9-3.5C46.8,169.7,46.9,169.7,47,169.7z M46,172.2c-0.7,0.3-1.1,0.4-1.5,0.6c-2.6,1-2.6,1-0.8,3
	c0,0,0.1,0,0.3,0.1C44.6,174.7,45.3,173.6,46,172.2z"/>
<path class="st4" d="M53.2,188.7c-1.6-0.2-3-1.4-4-3c-0.9-1.4-0.5-2.8,0.5-4.1c1.3-1.8,2.7-3.5,4.1-5.3c0.4-0.6,0.8-0.5,1.1,0
	c0.3,0.4,1.4,0.5,0.6,1.5c-1.4,1.7-2.7,3.4-4,5.2c-0.8,1.1-0.6,2.1,0.4,2.9c1.1,0.9,1.9,0.9,2.8-0.2c1.4-1.6,2.6-3.3,3.9-5
	c0.4-0.5,0.7-1,1.4-0.3c0.5,0.5,1.2,0.8,0.4,1.7c-1.4,1.6-2.6,3.3-4,4.9C55.7,187.9,54.8,188.7,53.2,188.7z"/>
<path class="st4" d="M93.4,201.7c0.6-1.3,1.2-2.6,1.7-3.9c0.3-0.9,0.9-0.5,1.4-0.5c0.6,0,0.9,0.2,1,0.9c0,1.4,0.2,2.8,0.5,4.3
	c0.5-1,0.9-2,1.4-3c0.8-1.7,0.8-1.7,2.7-1.1c-1.2,2.4-2.4,4.7-3.6,7c-0.4,0.8-1,0.2-1.5,0.2s-0.8-0.2-0.8-0.8
	c-0.1-1.4-0.2-2.8-0.5-4.3c-0.5,1.1-1.1,2.2-1.5,3.3c-0.4,1-0.9,1.2-1.9,0.9c-0.5-0.2-0.7-0.3-0.8-0.8c-0.3-2.2-0.6-4.4-0.9-6.7
	c0-0.3-0.5-1,0.3-1c0.6,0,1.5-0.3,1.6,0.9c0.1,1.5,0.3,2.9,0.5,4.4C93.2,201.6,93.3,201.7,93.4,201.7z"/>
<path class="st4" d="M101.7,20c0.3,2.2,0.5,4.2,0.8,6.3c0.1,0.7-0.2,1.6,0.9,2c0.3,0.1,0.2,0.4-0.2,0.6c-0.5,0.2-1,0.4-1.4,0.6
	c-1.3,0.7-1.3,0.7-1.6-0.7c-0.5-0.1-0.5,0.3-0.7,0.5c-0.9,0.9-1.9,1.4-3.2,1.1C95,30,94.7,29,94.5,27.8c-0.2-1.3-0.3-2.6-0.5-3.9
	c-0.1-0.5,0-1.1-0.8-1.3c-0.4-0.1-0.3-0.4,0-0.6s0.6-0.3,0.9-0.3c0.7-0.2,1.5-1.2,2.1-0.7c0.5,0.4,0.3,1.5,0.4,2.3
	c0.2,1.4,0.3,2.8,0.5,4.2c0.1,0.9,0.6,1.4,1.5,1.2c0.8-0.2,1.5-0.6,1.3-1.7c-0.2-1.3-0.3-2.6-0.5-3.9c-0.1-0.4,0-0.9-0.6-1.1
	c-0.5-0.2-0.2-0.5,0.2-0.6C99.9,20.8,100.7,20.4,101.7,20z"/>
<path class="st3" d="M30,83.5c0,0.1-0.1,0.2-0.1,0.3c-0.6,1.5-1.2,3-1.7,4.5c-0.1,0.2-0.1,0.5-0.4,0.5c-0.4,0-0.4-0.4-0.3-0.6
	c0.2-0.7-0.3-1-0.8-1.2c-3.1-1.3-6.2-2.6-9.3-3.9c-0.6-0.3-1.2-0.3-1.5,0.4c-0.1,0.2-0.2,0.3-0.5,0.2c-0.3-0.2-0.1-0.4,0-0.6
	c0.6-1.5,1.2-3,1.8-4.6c0.1-0.2,0.2-0.5,0.5-0.4s0.3,0.3,0.2,0.5c-0.3,0.8,0.3,1.2,0.9,1.4c3,1.3,6.1,2.6,9.2,3.8
	c0.6,0.2,1.2,0.3,1.5-0.4c0.1-0.2,0.2-0.3,0.5-0.3C29.9,83.1,30,83.3,30,83.5z"/>
<path class="st4" d="M47,45.1c2.5,0,4.9,2.4,4.9,5s-2.4,5.1-4.8,5c-2.4-0.1-4.7-2.6-4.7-5.2C42.3,47.4,44.5,45.1,47,45.1z
	 M50.1,51.1c-0.1-1.8-3.3-4.4-5-4c-1.1,0.2-1.7,1.4-1.1,2.5c0.8,1.7,2.2,2.8,4.1,3.1C49.2,52.9,50.2,52.1,50.1,51.1z"/>
<path class="st4" d="M86.9,32.5c-2.5,0-4.4-2-4.4-4.9c0-2.8,2-4.9,4.7-5c2.6-0.1,4.7,2.3,4.7,5.2C91.9,30.4,89.7,32.5,86.9,32.5z
	 M89.6,28.8c-0.2-1.6-0.6-3.1-1.7-4.2c-0.5-0.6-1.2-0.9-2-0.6s-1.1,1-1.1,1.8c0,1.7,0.5,3.1,1.7,4.3c0.6,0.6,1.3,0.9,2.2,0.6
	C89.5,30.3,89.6,29.6,89.6,28.8z"/>
<path class="st4" d="M180.9,50.1c2.5,0,4.7,2.2,4.7,4.8s-2.3,5-4.8,5s-4.9-2.4-4.8-5C175.9,52.4,178.3,50.1,180.9,50.1z M179.7,58.2
	c1.8,0,4.5-3.3,4.1-5.1c-0.2-1.1-1.1-1.6-2.3-1.2c-1.5,0.5-3.3,2.8-3.4,4.4C178.1,57.4,178.8,58.2,179.7,58.2z"/>
<path class="st4" d="M151.2,186.4c0.1-0.1,0.1-0.2,0.2-0.2c1.7-1.2,1.7-1.2,3.2,0.2c1.2,1.1,2.5,2.3,3.7,3.4c0.2,0.2,0.4,0.6,1,0.5
	c0-1.2-0.4-2.4-0.6-3.6c-0.2-1.3-0.5-2.5-0.8-3.8c-0.1-0.5,1.3-1.8,1.8-1.7c0.3,0.1,0.2,0.4,0.3,0.6c0.6,3.4,1.1,6.9,1.8,10.3
	c0.2,1.1-0.7,1-1.2,1.5c-0.4,0.3-0.8,0.4-1.2,0C156.7,191.2,154,188.8,151.2,186.4z"/>
<path class="st5" d="M161,32.4c0.7,0.3,0.7-0.2,0.9-0.5c0.6-0.9,1.3-1.8,2.2-2.3c1.3-0.8,2.9-0.5,3.8,0.7c0.5,0.6,0.5,1.3,0.2,1.9
	c-0.2,0.4-0.4,0.8-0.9,0.6s-0.8-0.5-0.7-1.1c0.1-0.2,0.2-0.4,0.3-0.7c0.1-0.3,0.2-0.6-0.1-0.7c-0.3-0.2-0.5-0.1-0.7,0.2
	c-0.9,1-1.5,2.2-2.1,3.3c-0.3,0.5,0.3,0.5,0.5,0.7s0.7,0.2,0.4,0.7s-0.6,0.2-0.8,0c-0.6-0.6-0.9-0.3-1.2,0.3
	c-0.9,1.6-1.9,3.1-2.8,4.7c-0.3,0.4-0.6,0.9-0.3,1.5c0.1,0.2,0.4,0.5,0.1,0.7c-0.2,0.2-0.4-0.1-0.6-0.2c-0.9-0.6-1.8-1.2-2.7-1.8
	c-0.2-0.1-0.5-0.2-0.4-0.5c0.1-0.2,0.3-0.2,0.5-0.2c0.6,0.1,0.9-0.4,1.1-0.7c1-1.7,2-3.3,3-5c0.2-0.3,0.4-0.5,0.1-0.8
	C160.1,32.5,160.6,32.4,161,32.4z"/>
<path class="st4" d="M113.3,199.2c0.7-0.7,1.3-1.1,2.1-1.3c1.7-0.2,2.8,0.5,3,2.1c0.2,1.7,0.3,3.4,0.5,5.1c0.1,1.1-0.7,0.7-1.2,0.9
	s-0.9,0-0.9-0.7c-0.1-1.4-0.3-2.9-0.4-4.3c-0.1-0.8-0.3-1.5-1.3-1.5c-0.9,0-1.4,0.6-1.5,1.5c-0.1,1.4,0.1,2.9,0.3,4.3
	c0.1,1.1-0.6,0.9-1.2,1.1c-0.8,0.2-0.9-0.3-0.9-0.8c-0.3-3.2-0.5-6.4-0.8-9.5c-0.1-0.9,0.5-0.8,1-0.8c0.6,0,1.1-0.2,1.1,0.7
	C113,197,113.2,198,113.3,199.2z"/>
<path class="st4" d="M135.8,19c2.2-0.1,2.2-0.1,1.7,2.1c-0.9,3.4-1.8,6.9-2.7,10.3c-0.1,0.5-0.3,0.9,0,1.4c0.1,0.2,0.6,0.4,0.3,0.8
	c-0.2,0.2-0.5-0.1-0.8-0.1c-1-0.3-1.9-0.5-2.9-0.8c-0.2,0-0.4,0-0.5-0.3c0-0.2,0.2-0.4,0.4-0.4c0.7-0.1,0.8-0.6,0.9-1.1
	c0.9-3.3,1.7-6.6,2.6-9.9c0.1-0.2,0.2-0.6,0.1-0.7C133.6,18.5,135.2,19.1,135.8,19z"/>
<path class="st3" d="M32.8,77.4c-0.7,1.3-1.4,2.6-2,3.9c-0.2-1.5-1.4-1.8-2.4-2.3c-2.4-1.4-4.9-2.7-7.3-4c-0.5-0.3-1-0.7-1.6-0.1
	c-0.4,0.3-0.5-0.1-0.4-0.5c0.2-1,0.4-2,0.5-3.1c0.4-0.1,0.7,0.2,1.1,0.4c3.2,1.8,6.4,3.5,9.7,5.3c0.8,0.4,1.5,0.9,2.4,0.2
	C32.7,77.2,32.7,77.3,32.8,77.4z"/>
<path class="st3" d="M35.7,72.1c-0.6,1.1-1.3,2.3-1.9,3.4c-0.1,0.2-0.2,0.4-0.4,0.3c-0.3-0.1-0.2-0.3-0.2-0.5
	c0.1-0.6-0.3-0.9-0.7-1.1c-2.9-1.8-5.8-3.6-8.6-5.4c-0.3-0.2-0.7-0.4-1.1-0.2c-1,0.6-0.7-0.1-0.6-0.6c0.2-0.7,0.4-1.4,0.4-2.1
	c0.1-1,0.4-0.8,1-0.4c3.1,1.9,6.2,3.9,9.3,5.8C33.7,71.9,34.5,72.6,35.7,72.1z"/>
<path class="st4" d="M183.8,66.6c-0.8-1.1-1.6-2.2-2.3-3.3c-0.1-0.1-0.2-0.3-0.1-0.4c0.1-0.1,0.3-0.1,0.4,0c0.7,0.4,1.1-0.1,1.6-0.4
	c2.6-1.9,5.2-3.9,7.8-5.8c0.4-0.3,0.9-0.6,0.7-1.3c-0.1-0.4,0.3-0.5,0.6-0.2c0.7,0.6,1.5,1.1,2.2,1.6s-0.1,0.7-0.3,0.9
	c-3,2.3-6.1,4.6-9.1,6.8c-0.7,0.5-1.6,0.9-1.1,2.2C184.1,66.6,183.9,66.6,183.8,66.6z"/>
<path class="st4" d="M202.1,82.5c0,0.7-0.2,1.3-0.6,1.9c-0.4,0.7-1,1.3-1.7,1.3c-0.6,0-0.6-0.9-0.8-1.5c-0.4-0.9-0.8-1.9-1.1-2.9
	c-0.2-0.6-0.4-0.7-0.9-0.3c-1,0.6-1.8,1.3-1.8,2.5s0.6,2.1,1.7,2.7c0.3,0.2,0.7,0.1,0.7,0.6c-0.1,0.5-0.6,0.3-0.9,0.3
	c-1.9-0.1-3.3-1.2-3.8-2.9c-0.5-1.7,0.1-3.3,1.7-4.4c1.2-0.8,2.6-1.4,4.2-1.2C200.6,78.8,202.1,80.5,202.1,82.5z M199.4,80.1
	c-0.4,0.1-1,0-1.1,0.6c-0.1,0.4,1,2.5,1.2,2.4c0.7-0.3,1.4-0.7,1.4-1.6C200.9,80.6,200.3,80.2,199.4,80.1z"/>
<path class="st4" d="M166.1,190.1c-2.1,0-4-2.1-4.1-4.4c0-2.1,2-4.2,4.1-4.2c2.2,0,4.2,2.1,4.2,4.4S168.3,190.1,166.1,190.1z
	 M165.8,183.5c-1,0-1.8,0.8-1.8,1.9c0,1.3,1.4,2.9,2.6,2.8c1,0,1.7-0.8,1.7-1.9C168.3,184.9,167,183.5,165.8,183.5z"/>
<path class="st4" d="M77.6,194.9c0,2.4-1.8,4.5-4,4.5s-4.2-1.8-4.2-3.9c-0.1-2.4,1.8-4.6,3.9-4.7C75.6,190.8,77.6,192.7,77.6,194.9z
	 M71.5,195.6c0,1.2,0.7,2,1.7,2c1.2,0,2.3-1.3,2.4-2.8c0-1.1-0.7-2-1.7-2C72.7,192.7,71.5,194,71.5,195.6z"/>
<path class="st5" d="M194,70c2.2,0,4.3,1.9,4.4,4.1c0.1,0.8-0.2,1.4-0.7,1.9s-1.2,1-1.8,0.1c-0.5-0.7-0.9-1.5,0.1-2.1
	c0.2-0.1,0.5-0.3,0.7-0.5c0.7-0.7,0.5-1.4-0.4-1.8c-1.4-0.6-4,0.7-4.7,2.4c-0.6,1.5,0.1,2.9,1.8,3.7c0.2,0.1,0.5,0,0.5,0.4
	c-0.1,0.4-0.4,0.3-0.7,0.4c-1.7,0.2-3.3-0.6-4-2c-0.8-1.6-0.7-3.3,0.4-4.6C190.7,70.9,192.5,70,194,70z"/>
<path class="st5" d="M146.3,196.8c0.3,0.9,0.9,1.4,1.7,1.3c0.8,0,1.2-0.5,1.4-1.4c0.2-0.8,1.2-0.7,1.8-0.6c0.5,0.1,0.1,0.8,0,1.1
	c-0.4,1.5-1.6,2.2-3,2.5c-1.3,0.3-2.4-0.1-3.2-1.1c-0.9-1.1-1.4-2.4-1.3-3.9c0.1-1.9,1.5-3.3,3.4-3.4c1.7-0.1,3.4,1.2,3.9,2.9
	c0.2,0.6-0.3,0.6-0.6,0.7C149,195.7,147.6,196.3,146.3,196.8z M145.8,195.6c0.8-0.3,1.6-0.7,2.3-0.9c0.6-0.2,0.4-0.5,0.2-0.9
	c-0.5-0.6-1.1-0.8-1.8-0.5C145.5,193.8,145.5,194.6,145.8,195.6z"/>
<path class="st5" d="M121.6,20.8c2.1,0,3.4,1.1,3.3,2.8c-0.1,0.7-0.3,1.2-1.1,1.1c-0.8-0.1-1.5-0.2-1.5-1.2v-0.1
	c-0.1-0.7,0.3-1.7-0.8-1.9c-1-0.1-1.4,0.7-1.8,1.5c-0.4,1.1-0.5,2.2-0.2,3.3c0.5,1.9,2.5,2.5,4.2,1.4c0.2-0.1,0.4-0.5,0.7-0.3
	c0.4,0.3,0,0.6-0.1,0.8c-1,1.8-2.6,2.5-4.4,2.1c-1.7-0.4-2.8-1.8-3-3.7C116.6,23.5,118.7,20.8,121.6,20.8z"/>
<path class="st5" d="M182.8,175.3c-1.7-0.2-3-1.2-3.9-2.9c-0.7-1.4-0.5-2.8,0.5-4c1.5-1.8,4-1.8,5.6,0c0.4,0.4,0.1,0.6-0.1,0.9
	c-0.8,1-1.6,2-2.5,2.9c-0.6,0.7-0.2,0.9,0.4,1.1c1.2,0.4,2.2-0.5,2-1.7c-0.1-0.5,0.8-1.7,1.2-1.8c0.4,0,0.4,0.4,0.5,0.6
	C187.4,172.4,185.4,175.2,182.8,175.3z M181.1,171.8c0.6-0.7,1.1-1.3,1.7-2c0.4-0.4,0.1-0.6-0.3-0.8c-0.7-0.3-1.3-0.3-1.8,0.4
	C180.1,170.3,180.3,171.1,181.1,171.8z"/>
<path class="st4" d="M81.6,194.5c0.7-0.3,1.3-0.4,2-0.4c1.8,0.2,2.8,1.5,2.4,3.3c-0.5,1.7-1.1,3.3-1.6,5c-0.2,0.8-0.6,0.5-1,0.4
	c-0.5-0.2-1.3-0.1-0.9-1.1c0.5-1.2,0.8-2.5,1.2-3.7c0.3-0.8,0.6-1.8-0.5-2.3c-0.9-0.4-1.8,0.1-2.2,1.4c-0.5,1.2-0.9,2.4-1.2,3.6
	c-0.2,0.8-0.6,0.7-1.1,0.4c-0.5-0.2-1.2-0.2-0.9-1.1c0.7-1.9,1.3-3.9,2-5.8c0.1-0.4-0.1-1.2,0.8-1C81,193.3,81.9,193.3,81.6,194.5z"
	/>
<path class="st5" d="M66,188.4c-0.1,0.2-0.1,0.7-0.4,1.1c-0.9,1.5-1.9,3.1-2.8,4.6c-0.4,0.7-0.8,0.2-1.1-0.1
	c-0.4-0.3-1.2-0.3-0.6-1.2c0.8-1.1,1.5-2.4,2.2-3.6c0.5-0.8,0.8-1.6-0.2-2.2c-0.9-0.6-1.7-0.2-2.3,0.6c-0.7,1.1-1.5,2.2-2.1,3.3
	c-0.3,0.5-0.6,0.8-1.2,0.3c-0.4-0.4-1.3-0.5-0.6-1.5c1.2-1.7,2.3-3.6,3.4-5.3c0.2-0.3,0.3-0.8,0.7-0.5s1.3,0.4,1.1,1
	c-0.2,0.8,0.2,0.6,0.6,0.6C64.4,185.6,65.9,186.8,66,188.4z"/>
<path class="st5" d="M136.6,196.3c0.5-1,1-1.6,1.7-2c1.5-0.7,2.9-0.3,3.5,1.3s1.1,3.3,1.7,5c0.4,1-0.6,0.7-0.9,1
	c-0.4,0.2-0.9,0.5-1.1-0.3c-0.4-1.4-0.9-2.7-1.4-4.1c-0.3-0.8-0.6-1.5-1.6-1.2c-0.9,0.3-1.3,1-1.1,2c0.2,1.5,0.8,2.8,1.3,4.2
	c0.4,1.2-0.6,0.9-1,1.1c-0.5,0.3-0.8,0.2-1-0.5c-0.6-2-1.3-4-2-6c-0.2-0.5-0.5-1,0.3-1.2C135.7,195.4,136.4,194.9,136.6,196.3z"/>
<path class="st5" d="M59.8,41.2c-0.6,0-1.1,0-1.7-0.1c-1.3-0.2-2.2-0.9-2.5-2.1c-0.3-1.2,0.1-2.3,1.2-3c0.7-0.5,1.6-0.8,2.3-1.2
	c0.3-0.1,0.4,0,0.6,0.3c0.3,0.5,0.9,0.9,0.8,1.4c-0.1,0.4-0.4,0.1-0.6-0.1c-0.8-0.5-1.6-0.6-2.3-0.1c-0.4,0.3-0.6,0.6-0.5,1.1
	s0.4,0.7,0.9,0.9c0.7,0.2,1.4,0,2.1,0c2.5,0,4.1,1.7,3.6,3.9c-0.2,0.8-0.7,1.4-1.4,1.9c-0.4,0.2-0.8,0.4-1.2,0.5
	c-0.6,0.1-1.3,0.8-1.7,0.4c-0.6-0.5-0.9-1.4-1.3-2.1c0-0.1,0-0.2,0-0.3c0.1-0.2,0.3-0.1,0.4,0c0.2,0.2,0.4,0.4,0.7,0.5
	c0.8,0.5,1.6,0.7,2.5,0.2c0.5-0.3,0.9-0.6,0.8-1.3c-0.1-0.6-0.6-0.8-1.1-0.8C60.8,41.1,60.3,41.2,59.8,41.2L59.8,41.2z"/>
<path class="st4" d="M180.6,177.9c-0.1,1.4-1,2.5-2.4,3.2c-1.3,0.7-2.5,0.4-3.6-0.5c-2.8-2-2.9-5.3-0.2-7.1c0.6-0.4,1.2-0.6,1.9-0.6
	c0.6,0.1,1.3,0,1.4,0.7c0.1,0.6-1,1.3-1.7,1.3c-1.1-0.1-2,1-1.6,2.1c0.3,0.9,1,1.5,1.8,2c0.6,0.4,1.2,0.4,1.8,0s0.7-1,0.6-1.7
	c-0.1-0.6,0.6-1.7,1.2-1.7c0.3,0,0.3,0.2,0.4,0.3C180.4,176.4,180.6,177.1,180.6,177.9z"/>
<path class="st5" d="M109,195.6c0,0.8,0,1.4,0,2.1c0,0.5,0.1,0.9,0.7,0.8c0.9-0.1,0.7,0.5,0.7,1c0,0.6-0.1,0.8-0.7,0.7
	s-0.7,0.2-0.7,0.7c0,1-0.1,2.1-0.1,3.1c0,0.5,0.1,1,0.6,0.9c1-0.2,0.7,0.5,0.8,1c0.1,0.7-0.4,0.7-0.9,0.8c-1.9,0.2-2.6-0.4-2.6-2.3
	c0-0.9,0.1-1.8,0-2.8c0-0.6,0.5-1.6-0.7-1.8c-0.3-0.1-0.1-1.5,0.3-1.6c0.3-0.1,0.6,0,0.6-0.4C106.7,196.3,108,196.2,109,195.6z"/>
<path class="st5" d="M127.7,24.3c0-0.3,0-0.5,0-0.6c-1.4-1.7,0.5-1.1,0.9-1.1c2.2-0.2,2.2-0.2,1.7,2c-0.4,1.7-0.8,3.3-1.1,5
	c-0.1,0.5-0.3,1.1,0,1.6c0.2,0.2,0.6,0.4,0.3,0.8c-0.2,0.2-0.5-0.1-0.8-0.1c-1-0.2-1.9-0.5-2.9-0.7c-0.2,0-0.4,0-0.5-0.2
	c-0.1-0.3,0.2-0.4,0.4-0.5c0.4-0.1,0.6-0.3,0.6-0.6C126.9,28,127.3,26,127.7,24.3z"/>
<path class="st5" d="M187,71.7c-0.1-0.1-0.2-0.2-0.3-0.3c-0.6-1-1.2-2-1.8-2.9c-0.1-0.2-0.3-0.3-0.1-0.5c0.1-0.2,0.3-0.1,0.4,0
	c0.6,0.5,1.1,0.1,1.5-0.2c1.3-0.9,2.7-1.8,4-2.7c0.3-0.2,0.7-0.4,0.7-0.8c-0.1-1.5,0.5-0.8,0.9-0.3c0.1,0.1,0.2,0.2,0.4,0.3
	c1.7,1.5,1.7,1.5-0.2,2.8c-1.2,0.8-2.5,1.6-3.7,2.5c-0.7,0.5-1.6,0.8-1.5,1.9C187.4,71.6,187.3,71.7,187,71.7z"/>
<path class="st5" d="M36.4,70.6c-0.1-1.3-1-1.8-1.8-2.3c-1.1-0.7-2.2-1.5-3.3-2.2c-0.3-0.2-0.6-0.5-1-0.3c-1.5,0.8-0.6-0.3-0.6-0.8
	v-0.1c0.3-0.8,0-2.1,0.9-2.3c0.6-0.1,1.5,0.8,2.2,1.3c1.3,0.8,2.5,1.7,3.8,2.5c0.5,0.3,1,0.8,1.7,0.3c0.1-0.1,0.3-0.1,0.4,0.1
	c0,0.1,0,0.3-0.1,0.4C37.8,68.3,37.1,69.5,36.4,70.6z"/>
<path class="st4" d="M58.1,46.9c0,0-0.2,0.1-0.3,0.2c-0.9,0.7-1.8,1.5-2.7,2.2c-0.1,0.1-0.3,0.3-0.5,0.1c-0.1-0.1-0.1-0.3,0-0.4
	c0.4-0.6,0-1-0.3-1.4c-1-1.4-2-2.7-3-4c-0.3-0.4-0.5-0.7-1.1-0.5s-0.6-0.2-0.4-0.6c0.1-0.2,0.3-0.4,0.4-0.6c1.5-2.1,1.5-2.1,3.1,0
	c0.9,1.2,1.8,2.4,2.7,3.5c0.4,0.6,0.8,1.4,1.8,1.1C57.9,46.4,58,46.5,58.1,46.9z"/>
<path class="st5" d="M102.2,204.7c0.2-2,0.4-4,0.5-5.9c0-1,0.7-0.7,1.2-0.7c0.7,0,1,0.1,0.9,0.9c-0.2,2.1-0.4,4.2-0.5,6.3
	c-0.1,0.9-0.4,1-1.2,0.9c-0.8-0.1-1.1-0.4-0.9-1.1C102.2,204.9,102.2,204.8,102.2,204.7z"/>
<path class="st5" d="M175,184.1c-0.4,0.4-0.8,0.8-1.3,1.2s-0.6-0.2-0.8-0.4c-1.4-1.6-2.7-3.2-4.2-4.7c-0.8-0.9,0.1-1.1,0.4-1.5
	c0.4-0.6,0.7-0.4,1.2,0.1c1.3,1.6,2.8,3.2,4.1,4.8C174.6,183.7,174.8,183.9,175,184.1z"/>
<path class="st5" d="M70.4,189c-0.1,0.3-0.2,0.4-0.3,0.6c-1,1.9-2.1,3.7-3.1,5.6c-0.3,0.6-0.6,0.7-1.1,0.3c-0.4-0.4-1.4-0.3-0.8-1.3
	c1.1-1.9,2.2-3.9,3.3-5.8c0.1-0.2,0.2-0.7,0.7-0.4C69.5,188.4,70.1,188.5,70.4,189z"/>
<path class="st5" d="M131.5,19.3c-0.1,0.8-0.4,1.6-1.4,1.6c-0.9,0-1.5-0.5-1.5-1.4s0.4-1.6,1.4-1.6
	C130.9,17.8,131.5,18.3,131.5,19.3z"/>
<path class="st5" d="M196.2,61.5c0.7,0.1,1.3,0.6,1.3,1.5c0,1-0.7,1.5-1.5,1.5c-0.9,0-1.4-0.6-1.4-1.5
	C194.5,62.3,195.3,61.5,196.2,61.5z"/>
<path class="st5" d="M47.4,38.2c0.1-0.8,0.6-1.4,1.5-1.4s1.4,0.7,1.4,1.6c0,0.9-0.6,1.5-1.4,1.4C47.9,39.8,47.5,39.1,47.4,38.2z"/>
<path class="st4" d="M28.8,61.9c-0.1,0.9-0.5,1.5-1.4,1.6c-0.8,0.1-1.6-0.7-1.6-1.5s0.4-1.5,1.3-1.5C28.1,60.5,28.7,61,28.8,61.9z"
	/>
<path class="st5" d="M103.8,194.9c0.7,0.1,1.6-0.1,1.3,1c-0.1,0.5,0.2,1.4-0.8,1.1c-0.5-0.1-1.5,0.3-1.3-0.9
	C103.1,195.4,102.9,194.6,103.8,194.9z"/>
<path class="st5" d="M72,186.4c-0.6,0.5-0.5,1.5-1.2,1.4c-0.5-0.1-1.4-0.4-1.4-1.1c0-0.5,0.3-1.3,0.9-1.3
	C70.9,185.4,71.5,185.9,72,186.4z"/>
<path class="st5" d="M169,177.3c-0.5,0.5-0.9,1.2-1.5,1.3c-0.5,0-0.9-0.7-1.2-1.2c-0.1-0.1,1.3-1.4,1.4-1.3
	C168.3,176.2,168.6,176.8,169,177.3z"/>
<path class="st6" d="M112,158.4c-0.4,0.5,0.6,0.9,0.2,1.1c-0.6,0.3-0.6-0.7-1.4-0.8c-0.3,0,0.3,0.8-0.3,0.7c-0.5-0.1-1-0.3-1.2-0.8
	c-0.5-1.2-0.8-2.4-1.7-3.4c-0.2-0.2,0-0.5,0.2-0.6c1.4-0.8,0.6-1.8,0.2-2.7c-0.2-0.5-0.6-0.9-0.2-1.5c0.1-0.2,0-0.5-0.1-0.7
	c-0.1-0.5-2.8-3.1-3.3-3.2c-0.2-0.5-0.6-0.6-1.1-0.4c-0.3,0.2-0.8,0.1-0.8-0.2c-0.1-0.9-0.9-1.1-1.3-1.6c-0.8-1.1-1.9-1.8-2.9-2.7
	c-1-1-1.1-2-0.5-3.3c0.8-1.4,2.2-2.8,1.5-4.7c-0.1-0.3,0.1-0.6,0.3-0.8c1.2-1.3,1.1-1.6-0.6-2.1c-0.4-0.1-0.7-0.3-1.2-0.2
	c-0.9-0.9-1.1-0.9-1.5,0.2c-0.9,0.3-1.9,0.6-2.1-0.8c2.7-1.1,4.8-2.9,6.3-5.4c0.2-0.4,0.5-0.7,0-1.1c-0.6-0.5-0.8,0.1-1,0.3
	c-0.9,0.8-1.6,1.9-3,2c0.6-0.9,1.2-1.8,1.9-2.7c0.4-0.5,0.2-0.8-0.2-1.2c-0.5-0.5-0.7,0.1-0.9,0.3c-1.3,1.3-2.6,2.5-4.5,2.9
	c-1.4-1.6-3.3-2.6-4.6-4.4c-1.1-1.4-1.9-3-2.9-4.4c-0.1-0.1-0.2-0.3-0.1-0.4c0.4-0.8-0.1-1.5-0.4-2.2c-0.9-1.8-0.5-3.7,0.5-5
	c0.9-1.2,1-2,0.5-3.1c1.8-2.1,4.2-2.4,6.8-2.1c0.6,0.3,1,0.8,1.4,1.4c1.1,1.5,1.8,3.3,2.2,5.1c0.1,0.5,0.4,0.7,0.9,0.6
	c0.6,0,0.6-0.4,0.5-0.8c0-0.2,0-0.4,0-0.6c0.5,0.5,0.6,1.2,0.7,1.8c0.2,0.5,0.3,0.9,1,0.8s0.5-0.7,0.4-1c-0.2-2.1-0.1-4.3-0.2-6.4
	c-0.1-2.2-0.1-2.2-2.3-2.1c0-0.4-0.1-0.7-0.1-1.1s-0.1-0.6-0.6-0.5c-2,0.3-3.8-0.4-5.7-0.9c0.1-1.5,0.2-3-1.4-3.9
	c-0.3-0.2-0.3-0.5-0.2-0.9c0.1-0.6,0.3-1.1,0.5-1.7c0.2-0.7,0.6-0.9,1.4-1c1-0.1,2.1,0.1,3.1-0.5c0.6-0.4,1.3-0.6,2.1-0.7
	c0.8-0.1,1.5-0.6,1.7-1.6c0.1-0.6,0.3-1.4,0.7-1.7c1.2-1.1,1.6-2.4,1.7-3.9c0.1-1-0.1-1.8-1-2.3c-0.6-0.4-1.7-0.7-1.7-1.4
	c-0.1-1.4-1-2.1-1.8-2.9c1-0.4,2-0.8,3.1-1c8.5,0,17,0,25.5,0c0.4,0,0.8,0.1,1.1-0.2c1.2,0,1.4,0.6,1.3,1.7c-0.2,1.5-0.1,3,1,4.1
	c0.7,0.7,0.9,1.6,1.1,2.5c0.1,0.7,0.4,1.4,0.7,2c0.4,0.8,0.5,1.6,0.5,2.4c0,4-0.1,8,0.2,12c0.1,1.4,0,2.9,0,4.5
	c-0.9-0.5-1.2-1.4-2.2-1.4l0,0c0-0.2-0.1-0.3-0.3-0.3l0,0c0-0.2-0.2-0.2-0.4-0.3c-0.8-0.3-1.2-1-1.9-1.4c-3.3-2.2-6.9-2.8-10.8-2.3
	c-3.6,0.4-6.7,2-9.3,4.7c-5.8,6-5.3,20.1,5,24.1c0.1,0.1,0.2,0.1,0.4,0.2l0,0c0.1,0.3,0.4,0.4,0.6,0.5c4.9,2.6,12.6,2,16.9-1.5
	c0.9-0.7,1.1-0.4,1.5,0.4c0.7,1.3,0.9,2.8,1,4.2c0.1,0.7,0.1,1.5-0.5,1.9s-0.7,0.8-0.8,1.4c-0.2,0.6-0.2,1.4-1.1,1.5
	c-0.3,0-0.2,0.3-0.2,0.6c0,1-1.2,2.3-2.1,2.5c-0.4,0.1-0.8,0.5-0.5,0.7c0.7,0.8,0.3,1.4-0.1,2s-0.4,1.4-0.5,2
	c-0.1,0.5-0.4,1.2-0.2,1.6c0.5,0.9,0.1,1.4-0.5,1.9c-0.7,0.7-0.9,1.5-0.4,2.4c0.9,1.4,0.9,1.4-0.7,1.9c-0.3,0.1-0.7,0.2-1,0.2
	c-2.6,0.2-3.1,1.1-2.1,3.5c0.3,0.6,0.2,1.2-0.1,1.9c-0.6,0.4-1.1,0.2-1.8,0c-1.2-0.5-2.5-0.8-3.5-1.7c-1-0.5-1.8-0.3-2.4,0.7
	C112.5,157.4,112.3,157.9,112,158.4z"/>
<path class="st7" d="M147.3,130.1c2.2,6.9,4.4,13.8,6.6,20.7c2.3,7.1,4.6,14.1,6.8,21.2c0.1,0.5,0.7,1,0,1.5c-0.6,0.4-1-0.2-1.3-0.4
	c-10.5-6.8-21.1-13.7-31.6-20.6c-0.3-0.2-0.7-0.4-1-0.6c0.3-0.4,0.1-0.6-0.2-0.9c-1.1-1.3-1-1.7,0.1-3c0.2-0.2,0.5-0.4,0.5-0.8
	c0-0.6-0.3-1.2-0.1-1.9c0.3-1.1,0.4-2.2,1-3.2c0.3-0.5,0.3-0.7,0-1.1c-0.5-0.6-0.3-1,0.5-1.1c0.5-0.1,0.8-0.4,1.1-0.7
	c0.9-0.8,0.8-2.1,1.8-3c0.7-0.6,1-1.8,1.4-2.8c0.6-1.3,0.2-2.9-0.3-4.4c-0.3-0.9-1.4-1.6-0.8-2.8c0.3-0.5,0.6-0.9,0.1-1.5
	c-0.2-0.2,0-0.4,0.1-0.6c2.9-5,3-10.2,0.7-15.5c-0.3-0.6-0.4-1.2-0.5-1.8c-0.1-5.8-0.2-11.5-0.3-17.3c0-1.2-0.1-2.4-0.7-3.5
	c-0.5-0.9-0.6-1.8-0.7-2.8c0.4,0,0.6,0.4,0.9,0.5c0.2,0.5,0.4,1,0.5,1.4c0.2,0.9,0.7,1.2,1.6,1.1c1.4-0.1,2.8,0,4.2,0
	c0.8,0.6,1.2,1.4,1.8,2.2c1.4,1.7,3.9,2.6,5.7,2c0.3-0.1,0.7-0.1,0.8-0.6c0-0.5-0.3-0.6-0.6-0.7c-1.4-0.4-1.9-1.4-2.1-2.7
	c12.9,0.1,25.7,0.2,38.6,0.3c0.5,0,1.3-0.4,1.6,0.4s-0.5,1-0.9,1.3c-7.8,6.3-15.7,12.5-23.6,18.7c-0.1,0.1-0.2,0.2-0.3,0.3
	c-0.2-0.7-0.4-1.5-0.7-2.1c-0.6-1.2-1.4-2.4-2.9-2.7c-1.6-1.9-3.9-2.5-6.2-2.6c-4.7-0.1-9.3,0-14-0.1c-0.5,0-0.8,0-0.8,0.6
	c0,0.5,0.1,0.8,0.7,0.9c1.8,0.3,2,0.5,2,2.2c0,7.1,0,14.3,0,21.4c0,1.8-0.2,2-1.9,2.2c-0.8,0.1-0.7,0.6-0.7,1.1
	c0,0.7,0.5,0.4,0.8,0.4c0.6,0,1.1,0,1.7,0c-0.2,1.4-0.2,1.4,1.1,1.3c0.2,0,0.5-0.1,0.7-0.1C141.4,129.9,144.4,129.6,147.3,130.1z"/>
<path class="st7" d="M98,130.3c0.4-0.1,0.8,0.1,1.2,0.2c1.7,0.6,1.8,0.8,0.6,2.1c-0.2,0.2-0.4,0.5-0.3,0.8c0.7,1.9-0.7,3.3-1.5,4.7
	c-0.7,1.3-0.6,2.3,0.5,3.3c0.9,0.9,2.1,1.6,2.9,2.7c0.4,0.5,1.2,0.8,1.3,1.6c0,0.3,0.5,0.4,0.8,0.2c0.5-0.2,0.9-0.1,1.1,0.4
	c-13.3,8.9-26.5,17.8-39.8,26.7c-0.4,0.3-0.7,0.8-1.4,0.4c-0.5-0.4-0.2-0.8-0.1-1.2c4.6-15.6,9.2-31.2,13.8-46.8
	c0.1-0.2,0.2-0.4,0.2-0.7c1.5,1.7,3.1,3,5.3,3.7c0.3,0.5,0.8,0.6,1.3,0.9c3.5,1.5,7,1.4,10.5,0.3c0.2,1.5,1.2,1.1,2.1,0.8
	C97.1,131.1,97.5,130.8,98,130.3z"/>
<path class="st7" d="M96,77c0.8,0.9,1.7,1.5,1.8,2.9c0.1,0.7,1.1,1,1.7,1.4c1,0.5,1.1,1.3,1,2.3c-0.1,1.5-0.4,2.8-1.7,3.9
	c-0.4,0.4-0.6,1.1-0.7,1.7c-0.1,1-0.9,1.5-1.7,1.6c-0.8,0.1-1.5,0.3-2.1,0.7c-1,0.6-2.1,0.4-3.1,0.5c-0.8,0.1-1.2,0.3-1.4,1
	c-0.2,0.6-0.3,1.1-0.5,1.7c-0.1,0.3-0.1,0.7,0.2,0.9c1.7,0.9,1.5,2.4,1.4,3.9c-0.2,0-0.4,0-0.6,0c-6.3-1.1-12,1.7-15,7.3
	c-1.5,2.8-1.9,5.9-1.8,9c-1.4-1.1-2.8-2.1-4.2-3.2c0-2.5,0-4.9,0-7.4c0-2.1,0.2-2.3,2.2-2.8c0.5-0.1,0.6-0.3,0.6-0.7
	c0-0.5-0.3-0.6-0.7-0.5c-0.6,0-1.1,0-1.7,0c0.3-1,0.2-1.5-1.1-1.5c-3.4,0.1-6.8,0-10.2,0c-0.4,0-0.9-0.2-1,0.5
	c0,0.7,0.2,0.9,0.9,0.9c1.2,0.1,1.8,0.8,1.8,1.9c0,0.8,0,1.5,0,2.3c-7-5.4-13.9-10.7-20.9-16.1c-0.7-0.5-1.3-1-2-1.5
	c-0.3-0.2-0.7-0.4-0.5-0.9s0.6-0.5,1-0.5c1.8,0,3.6,0,5.4,0c10.5-0.1,20.9-0.1,31.4-0.2c-0.1,0.6,0.1,0.9,0.8,0.9
	c1.1,0,2.1-0.1,3.2-0.3c1-0.2,1.9-0.9,3-0.5c-0.6,1.2-1.2,2.4-2.1,3.4c-0.2,0.2-0.6,0.4-0.3,0.8c0.2,0.3,0.6,0.2,0.9,0.2
	c1.5-0.2,2.8-0.8,4.1-1.6c1.2-0.7,1.6-2,2.5-2.9c1.4,0,2.8,0,4.2,0c0.4,0,0.8,0.1,1-0.5c0.3-0.9,0.8-1.8,0.9-2.8l0,0
	c0.2,0,0.2-0.2,0.2-0.3c0.3-0.4,0.5-0.8,0.5-1.4c0.5-1.2,1-2.3,1.3-3.6l0,0c0.2,0,0.2-0.1,0.2-0.2C95.4,77.2,95.7,77.1,96,77z"/>
<path class="st7" d="M99.3,66.2c-0.2-0.4,0-0.7,0.1-1c3.6-9.9,7.3-19.9,10.9-29.8c0.1-0.4,0.1-0.9,0.8-0.9c0.6,0,0.7,0.5,0.8,0.8
	c4,10,8,19.9,12,29.9c-5.8-0.8-11.6-0.9-17.4-0.2C104.2,65.3,101.8,65.8,99.3,66.2z"/>
<path class="st8" d="M99.3,66.2c2.4-0.4,4.8-0.9,7.3-1.2c5.8-0.6,11.6-0.6,17.4,0.2c3.6,0.8,7,1.9,10.2,3.6c2.3,1.2,4.6,2.3,6.4,4.3
	c1.2,1.3,1.2,2,0,3.2c-0.2,0.3-0.4,0.6-0.7,0.8c-0.3,0.4-0.5,0.7,0.2,0.9c0.6,0.2,1,0.8,1.3,1.4c1.1,2.4,3.2,3.8,5.6,4.7
	c0.4,0.1,0.8,0.2,0.7,0.7c0,0.6-0.5,0.5-0.9,0.5c-1.3,0.1-2.6-0.3-3.9-0.2c0,0-0.1,0-0.1-0.1c0,0,0.1,0,0.1,0.1
	c0,0.4,0.2,0.6,0.4,0.9c0.2,1.3,0.7,2.4,2.1,2.7c0.4,0.1,0.7,0.3,0.6,0.7c0,0.5-0.4,0.5-0.8,0.6c-1.8,0.6-4.4-0.3-5.7-2
	c-0.6-0.7-1-1.6-1.8-2.2c-1.8-1.6-4.1-1.9-6.3-2.5c-0.3-0.1-0.4-0.5-0.9-0.5c0.1,1,0.3,2,0.7,2.8c0.6,1.1,0.7,2.3,0.7,3.5
	c0.1,5.8,0.2,11.5,0.3,17.3c0,0.7,0.2,1.2,0.5,1.8c2.2,5.3,2.1,10.5-0.7,15.5c-0.1,0.2-0.3,0.4-0.1,0.6c0.5,0.6,0.2,1-0.1,1.5
	c-0.7,1.2,0.5,1.9,0.8,2.8c0.5,1.5,0.9,3.1,0.3,4.4c-0.4,0.9-0.8,2.2-1.4,2.8c-1,0.9-0.9,2.2-1.8,3c-0.4,0.3-0.6,0.7-1.1,0.7
	c-0.8,0.1-1,0.5-0.5,1.1c0.3,0.4,0.3,0.7,0,1.1c-0.6,1-0.7,2.1-1,3.2c-0.2,0.7,0.1,1.3,0.1,1.9c0,0.5-0.3,0.6-0.5,0.8
	c-1.1,1.2-1.2,1.7-0.1,3c0.3,0.3,0.4,0.5,0.2,0.9c-1.2,0.5-2.5,0.8-3.8,1c-0.9,0.1-1.5,1.4-1.1,2.4c0.1,0.3,0.4,0.5,0.5,0.8
	c0.2,0.6,0.4,1.3-0.1,1.8s-1.1,0.3-1.7,0c0.3-0.6,0.3-1.2,0.1-1.9c-1-2.4-0.5-3.3,2.1-3.5c0.4,0,0.7-0.1,1-0.2
	c1.6-0.5,1.5-0.6,0.7-1.9c-0.6-0.9-0.4-1.7,0.4-2.4c0.6-0.5,1-1,0.5-1.9c-0.2-0.4,0.1-1.1,0.2-1.6c0.2-0.7,0.1-1.4,0.5-2
	s0.8-1.2,0.1-2c-0.2-0.2,0.1-0.6,0.5-0.7c1-0.2,2.1-1.5,2.1-2.5c0-0.3-0.1-0.5,0.2-0.6c0.9-0.1,0.9-0.9,1.1-1.5
	c0.1-0.6,0.2-1,0.8-1.4s0.6-1.2,0.5-1.9c-0.1-1.5-0.3-2.9-1-4.2c-0.4-0.8-0.7-1.1-1.5-0.4c-4.3,3.5-12,4.2-16.9,1.5
	c-0.2-0.1-0.5-0.2-0.6-0.5c1.8,0.5,3.6,0.8,5.4,0.8c4.2,0,7.9-1.1,10.9-4c4.9-4.7,5.9-13.2,2.2-19.2c-0.5-0.8-1.2-1.4-1.5-2.2
	c0.9,0,1.3,0.9,2.2,1.4c0-1.6,0.1-3,0-4.5c-0.3-4-0.2-8-0.2-12c0-0.9-0.2-1.6-0.5-2.4c-0.3-0.6-0.5-1.3-0.7-2
	c-0.2-0.9-0.4-1.8-1.1-2.5c-1.2-1.2-1.2-2.6-1-4.1c0.1-1.1-0.1-1.7-1.3-1.7c-2.1-0.4-4.3-0.9-6.4-1.3c0-0.1,0-0.2,0-0.3
	c0.9,0.1,1.9,0.2,2.8,0.4c4.3,0.7,8.4,1.9,12.3,3.8c-1.2-0.2-1.7,0.7-2.3,1.4c-0.2,0.3,0.4,0.9-0.6,1c3.2,1,3.2,1,5.4,0.7
	c-0.9,1.1-2.2,0.3-3.2,0.8c0.3,0.5,0.3,0.5-0.3,0.8c0.2,0.4,0.6,0.3,1,0.4c2.4,0.5,4.4,1.6,5.6,3.8c0.4,0.6,0.9,1.1,1.5,1.5
	c1.1,0.7,2.3,1.2,3.8,0.6c-1.5-0.6-2-1.7-2.4-3c-0.3-0.9-0.7-1.6-1.4-2.1c-0.3-0.2-0.6-0.5-0.4-1c1.5,1,3.1,1.2,5.2,1.2
	c-2.1-1.2-3.9-2.4-4.8-4.4c-0.7-1.7-1.2-1.9-3-1.7c-0.2-0.4,0-0.8,0.2-1.2c0-0.1,0.1-0.2,0.1-0.2l0,0c1.2-0.5,0.4-1.6,0.7-2.5
	c0.3,0.2,0.6,0.4,0.8,0.5c0.1-0.3,0.3-0.6,0.2-1c0-0.6-0.5-0.9-0.9-1.2c-2.5-2-5.3-3.3-8.2-4.6c-1.6-0.7-3.2-1.3-4.8-1.7
	c-6.1-1.5-12.2-1.5-18.3-0.9c-5.9,0.5-11.4,2.3-16.8,4.6c-1.9,0.8-3.4,2.2-5.3,2.8c-1.3,0.4-1.5,2-0.7,2.9c0.1,0.3,0.1,0.6,0.3,0.9
	c0.6,0.9,1.2,1.9,1.3,3c0,0.2-0.2,0.6,0.2,0.7c0.5,0.2,0.6-0.3,0.9-0.5c0.1,0,0.2,0,0.3,0c0.2,0.6-0.9,0.7-0.5,1.1
	c0.6,0.6-0.1,0.6-0.2,0.9c-1,0.3-1-0.5-1.2-1.1c-0.2-0.7-0.3-1.5-0.4-2.2c-0.1-0.5-0.3-0.6-0.8-0.5c-1.3,0.5-2.3,1.2-3,2.4
	c-0.4,0.7-0.8,1.3-1.3,1.8c-1.5,1.4-3.1,2.6-4.9,3.8c2.7,0.1,4.8-1,7.2-2c-0.5,2.1-1.7,3.7-2.8,5.5c2.5-0.5,4.5-1.5,5.5-3.6
	c0.7-1.4,1.8-2.3,3.3-2.7c1.1-0.3,2.1-0.6,3-1.4c0-0.3-0.1-0.6-0.5-0.3c-0.4,0.2-0.8,0-1.2-0.2c0-0.1,0-0.2,0-0.3
	c0.5-0.2,1.1-0.5,1.6-0.7c0.4-0.1,0.6-0.3,0.2-0.6c-0.6-0.5-0.7-1.5-1.7-1.5c3.7-2,7.7-3.2,11.8-4c0,0.1,0,0.2,0,0.3
	c-1,0.4-2.2,0.4-3.1,1C98,76.2,97,76.6,96,77c-0.3,0.1-0.6,0.2-1,0.3c-0.1,0.1-0.1,0.1-0.2,0.2l0,0c-1,0.1-2.1,0.3-2.6,1.1
	c-0.4,0.8,0.6,1.4,1,2.1c0.1,0.1,0.2,0.3,0.3,0.4c0,0.5-0.2,1-0.5,1.4c-0.1,0.1-0.1,0.2-0.2,0.3l0,0c-1.4,0.7-2.7,1.4-4.2,1.8
	c-0.7,0.2-1.6,0.6-1.8,1.5C86,87,85.5,88.3,84.3,89c-1.3,0.8-2.6,1.4-4.1,1.6c-0.3,0-0.7,0.1-0.9-0.2c-0.2-0.4,0.1-0.6,0.3-0.8
	c0.9-1,1.5-2.1,2.1-3.4c-1.1-0.4-2,0.3-3,0.5c-1.1,0.2-2.1,0.3-3.2,0.3c-0.6,0-0.8-0.3-0.8-0.9c2.7-1.5,5.3-3.3,6.8-6.1
	c0.5-0.9,1.4-1.5,2.4-1.8c0.9-0.3,0.9-0.7,0.4-1.3c-0.1-0.1-0.2-0.3-0.3-0.4c-1-1.5-0.9-2.1,0.6-3.2c2.9-2.2,6-3.9,9.4-5.1
	c1.6-0.6,3.2-1.4,4.9-1.8C99.3,66.4,99.4,66.4,99.3,66.2L99.3,66.2z M128.8,77.1c-0.5,2-0.3,3.7,1.4,5.2c0-0.5,0.1-0.9,0.1-1.4
	c0.8-0.6,1.1-1.5,1.5-2.4c0.1-0.2,0.1-0.4,0-0.6C131.7,77.6,129.4,77,128.8,77.1z M92.3,81.4c0-0.1,0-0.2-0.1-0.2c0,0-0.1,0-0.2,0.1
	c0,0.1,0.1,0.2,0.1,0.2C92.2,81.5,92.3,81.4,92.3,81.4z M130.4,82.7C130.5,82.7,130.5,82.7,130.4,82.7
	C130.5,82.6,130.4,82.6,130.4,82.7C130.4,82.6,130.4,82.6,130.4,82.7L130.4,82.7z"/>
<path class="st9" d="M136.7,128.7c-0.6,0-1.1,0-1.7,0c-0.4,0-0.8,0.3-0.8-0.4c0-0.5-0.1-1,0.7-1.1c1.8-0.2,1.9-0.5,1.9-2.2
	c0-7.1,0-14.3,0-21.4c0-1.7-0.2-1.9-2-2.2c-0.6-0.1-0.7-0.3-0.7-0.9s0.3-0.6,0.8-0.6c4.7,0,9.3,0,14,0.1c2.4,0.1,4.6,0.7,6.2,2.6
	c3.5,5.6,1.1,11.8-5.3,13.5c-1.7,0.5-3.5,0.5-5.2,0.5c-0.4,0-0.9-0.2-0.9,0.6c0,2.7,0,5.4,0.1,8.2c0.1,1.7,0.8,2.2,2.5,1.9
	c0.3,0.4,0.2,0.8,0.3,1.3c-0.2,0.6-0.6,0.3-1,0.3C142.7,128.6,139.7,128.5,136.7,128.7z M147.8,103.1c-0.5-1.4-1.8-1.2-2.9-1.3
	c-0.8-0.1-1.2,0.3-1.2,1.2c0,3.3,0,6.6,0,9.9c0,2.1,0,2.1,2.1,1.6h0.1c1.5-0.2,2.5-1,3.1-2.4c0.9-2.4,0.9-4.8,0.1-7.2
	C148.9,104.1,148.8,103.2,147.8,103.1z"/>
<path class="st10" d="M73.9,115.9c-0.1-3.1,0.3-6.2,1.8-9c2.9-5.6,8.7-8.5,15-7.3c0.2,0,0.4,0,0.6,0c1.9,0.5,3.7,1.2,5.7,0.9
	c0.5-0.1,0.5,0.1,0.6,0.5c0,0.4,0.1,0.7,0.1,1.1c0.1,2.1,0.1,4.2,0.2,6.3c-0.1,0.3-0.1,0.5,0.1,0.7l0,0c0,0.2-0.1,0.4,0,0.6
	c0,0.4,0.1,0.8-0.5,0.8c-0.5,0-0.8-0.1-0.9-0.6c-0.5-1.8-1.1-3.6-2.2-5.1c-0.4-0.5-0.8-1.1-1.4-1.4c-2.7-2.5-7.7-1.8-9.8,1.5
	c-2.5,3.9-2.5,8.1-1.4,12.4c0.7,2.7,2,5.2,4.6,6.7l0,0c0.1,0.3,0.3,0.3,0.5,0.2l0,0c0,0.2,0.1,0.2,0.3,0.3c1.9,1.1,4,1.3,6,0.5
	c1.9-0.4,3.2-1.6,4.5-2.9c0.2-0.2,0.4-0.8,0.9-0.3c0.4,0.4,0.6,0.7,0.2,1.2c-0.7,0.9-1.2,1.8-1.9,2.7l0,0c-0.4-0.1-0.5,0.3-0.7,0.5
	c-4,3.3-8.5,3.9-13.4,2.5c-2.2-0.7-3.8-2.1-5.3-3.7C75.2,122.2,74.1,119.2,73.9,115.9z"/>
<path class="st10" d="M60.4,105.5c0-0.8,0-1.5,0-2.3c0-1.2-0.6-1.9-1.8-1.9c-0.7,0-0.9-0.3-0.9-0.9c0.1-0.7,0.6-0.5,1-0.5
	c3.4,0,6.8,0.1,10.2,0c1.3,0,1.4,0.4,1.1,1.5c-2.1,0.2-2.6,0.5-2.6,2.2c0,7.2,0,14.4,0,21.6c0,1.6,0.5,2,2.2,2.2
	c0.8,0.1,0.5,0.7,0.6,1.1c-0.1,0.6-0.6,0.4-0.9,0.4c-3-0.1-6-0.2-9,0c-0.5,0-1,0-1.6,0c-0.4,0-0.9,0.3-0.9-0.5c0-0.5,0-1,0.8-1
	c1.2,0,1.9-0.7,1.9-1.9C60.5,118.7,60.5,112.1,60.4,105.5z"/>
<path class="st11" d="M170.1,113.7c-0.2,0.3,0.2,0.8-0.5,0.9c-0.6,0-0.7-0.3-0.9-0.7c-0.2-0.7-0.5-1.4-1.2-1.8
	c-0.9-1.2-2.2-1.4-3.6-1.1c-1.6,0.3-2.1,2.1-1,3.3c0.5,0.6,1.2,1.1,1.9,1.4c1.5,0.9,3,1.6,4.3,2.8c0.1,0.1,0.2,0.2,0.3,0.3l0,0
	c0.1,0.2,0.2,0.5,0.5,0.3h-0.1c-0.1,0.4,0.3,0.6,0.4,0.8c1.7,3.4,0.6,8.2-4,9.3c-2,0.5-3.9-0.2-5.9-0.6c-0.2-0.1-0.5-0.3-0.7-0.2
	c-1.6,0.2-1.7-0.7-1.6-2c0.1-1.3,0-2.5,0.1-3.8c0-0.4,0-0.7,0.5-0.7c0.4,0,0.6,0.1,0.8,0.5c0.2,0.9,0.5,1.8,1.1,2.6
	c0.5,0.8,1.2,1.5,2.2,1.8c0.8,0.5,1.7,0.4,2.5,0.3s1.4-0.5,1.7-1.3s0.1-1.4-0.4-2c-0.9-1-2.1-1.5-3.2-2.2c-0.7-0.4-1.4-0.8-2-1.2
	c-2.7-1.7-3.7-4.1-3-7.2l0,0c0.2-0.1,0.2-0.3,0.2-0.5v-0.1c0.2-0.1,0.3-0.3,0.3-0.6l0,0c2.1-2.6,4.8-3.2,7.9-2.3
	c0.6,0.2,1.2,0.4,1.8,0.3c1.3-0.2,1.7,0.3,1.5,1.5C169.9,112.1,169.8,112.9,170.1,113.7z"/>
<path class="st12" d="M158.4,112.4C158.4,112.4,158.4,112.5,158.4,112.4c-0.2,0.2-0.2,0.3-0.2,0.5l0,0c-1.1,1.3-2.1,2.7-3.7,3.4
	c-2.3,1.1-4.7,1.4-7.2,1.4c-1,0-1.3,0.3-1.3,1.3c0.1,2.2,0,4.5,0,6.7c0,0.5-0.1,1,0.3,1.4c-1.8,0.2-2.5-0.2-2.5-1.9
	c-0.1-2.7,0-5.4-0.1-8.2c0-0.8,0.5-0.6,0.9-0.6c1.8,0,3.5,0,5.2-0.5c6.3-1.7,8.8-8,5.3-13.5c1.6,0.2,2.3,1.4,2.9,2.7
	c0.3,0.7,0.5,1.4,0.7,2.1c0.3,1.5-0.2,3.1-0.1,4.6l0,0C158.4,111.9,158.4,112.2,158.4,112.4z"/>
<path class="st12" d="M69.6,127.2c-1.7-0.1-2.2-0.6-2.2-2.2c0-7.2,0-14.4,0-21.6c0-1.7,0.5-2,2.6-2.2c0.6,0,1.1,0,1.7,0
	c0.4,0,0.7,0,0.7,0.5c0,0.4-0.1,0.6-0.6,0.7c-2,0.5-2.2,0.8-2.2,2.8c0,2.5,0,4.9,0,7.4C69.6,117.6,69.6,122.4,69.6,127.2z"/>
<path class="st12" d="M160.4,128.4c1.9,0.4,3.9,1.1,5.9,0.6c4.6-1.1,5.7-5.9,4-9.3c-0.1-0.3-0.4-0.5-0.4-0.8
	c1.5,0.4,2.3,1.5,2.8,2.8c1.3,3.4,0.1,7.3-3.7,8.5c-1.3,0.4-2.6,0.4-3.9,0.1c-1.3-0.4-2.7-0.8-4.1-0.9
	C160.2,129.3,160.4,128.9,160.4,128.4z"/>
<path class="st12" d="M136.7,128.7c3-0.2,6-0.1,9,0c0.3,0,0.8,0.3,1-0.3c0.4,0.1,0.8,0.2,1.2,0.3c0.6,0,1,0,1,0.8s-0.6,0.6-1,0.6
	c-0.2,0-0.3,0-0.5,0c-2.9-0.4-5.8-0.2-8.8-0.2c-0.2,0-0.5,0.1-0.7,0.1C136.4,130.1,136.4,130.1,136.7,128.7z"/>
<path class="st12" d="M60.3,128.7c3-0.2,6-0.1,9,0c0.4,0,0.8,0.2,0.9-0.4c0.5,0.1,0.9,0.3,1.4,0.3c0.6,0.1,0.9,0.3,0.8,0.9
	c-0.1,0.7-0.6,0.5-1,0.5c-2.4-0.3-4.8-0.2-7.2-0.2c-0.9,0-1.7,0-2.6,0.2C60.3,130.3,60.2,130.1,60.3,128.7z"/>
<path class="st12" d="M164.9,115.5c-0.8-0.3-1.4-0.8-1.9-1.4c-1.1-1.2-0.6-2.9,1-3.3c1.4-0.3,2.7-0.1,3.6,1.1
	C164.9,112.1,164.2,113,164.9,115.5z"/>
<path class="st12" d="M170.1,113.7c-0.3-0.8-0.2-1.6-0.2-2.4c2.1,0,2.1,0,2.2,2.2c0,0.4,0.1,0.9,0.1,1.3s0.3,0.9-0.2,1
	c-0.5,0.2-0.7-0.2-0.9-0.7C170.9,114.6,170.7,114,170.1,113.7z"/>
<path class="st12" d="M112,158.4c0.3-0.5,0.6-1,0.9-1.5c0.6-0.9,1.4-1.2,2.4-0.7c-0.9,0.9-1.6,1.8-1.6,3.3
	C113.1,159.1,112.7,158.5,112,158.4z"/>
<path class="st12" d="M162.7,126.6c-1-0.3-1.6-1-2.2-1.8c0.2-0.5-0.4-1.5,0.5-1.6s0.7,0.8,0.8,1.3
	C162.1,125.2,162.7,125.8,162.7,126.6z"/>
<path class="st12" d="M169.9,118.9c-0.3,0.2-0.4-0.1-0.5-0.3C169.7,118.5,169.8,118.6,169.9,118.9z"/>
<path class="st12" d="M169.4,118.6c-0.1-0.1-0.2-0.2-0.3-0.3C169.3,118.4,169.3,118.5,169.4,118.6z"/>
<path class="st7" d="M99.4,66.2c0,0.2-0.1,0.2-0.3,0.2C99.2,66.3,99.1,66.1,99.4,66.2z"/>
<path class="st10" d="M147.5,31.5c0-2,0.5-3.7,1.5-5.3c1.1-1.7,2.5-2.5,4.1-2.1s2.7,1.9,2.7,3.9c0,2.2-0.7,4.2-1.9,6.1
	c-0.8,1.2-1.9,2.1-3.5,1.8s-2.3-1.6-2.6-3.1C147.6,32.4,147.6,31.9,147.5,31.5z"/>
<path class="st13" d="M179.2,41.9c0,1.4-1.5,3.4-2.8,3.8c-0.9,0.3-1.5-0.1-2.2-0.6c-0.3-0.3-0.1-0.5,0-0.7c1.1-1.4,2.2-2.7,3.3-4.1
	c0.3-0.4,0.6-0.3,0.9,0C179,40.8,179.2,41.3,179.2,41.9z"/>
<path class="st11" d="M131.7,199.4c0,1.7-0.9,2.9-2.3,3.2c-1.5,0.3-2.7-0.3-3.4-1.8c-0.4-1-0.7-2-0.6-3.1c0.1-1.3,1-2.2,2.4-2.5
	c1.3-0.3,2.3,0.2,3,1.4C131.4,197.4,131.6,198.4,131.7,199.4z"/>
<path class="st13" d="M46,172.2c-0.8,1.4-1.4,2.5-2,3.7c-0.1,0-0.2,0-0.3-0.1c-1.8-2.1-1.8-2.1,0.8-3
	C44.9,172.6,45.3,172.5,46,172.2z"/>
<path class="st14" d="M50.1,51.1c0,1-0.9,1.8-2,1.7c-1.9-0.3-3.3-1.4-4.1-3.1c-0.6-1.2,0-2.3,1.1-2.5C46.9,46.7,50.1,49.3,50.1,51.1
	z"/>
<path class="st14" d="M89.6,28.8c0,0.8-0.1,1.6-0.9,1.9c-0.8,0.4-1.6,0-2.2-0.6c-1.2-1.2-1.7-2.7-1.7-4.3c0-0.8,0.3-1.5,1.1-1.8
	c0.8-0.4,1.5,0,2,0.6C89,25.7,89.4,27.2,89.6,28.8z"/>
<path class="st14" d="M179.7,58.2c-0.9,0-1.6-0.8-1.6-1.9c0-1.6,1.8-4,3.4-4.4c1.1-0.3,2,0.1,2.3,1.2
	C184.2,54.8,181.5,58.2,179.7,58.2z"/>
<path class="st13" d="M199.4,80.1c0.9,0,1.5,0.5,1.5,1.4s-0.7,1.3-1.4,1.6c-0.2,0.1-1.3-2-1.2-2.4C198.5,80.1,199,80.2,199.4,80.1z"
	/>
<path class="st14" d="M165.8,183.5c1.2,0,2.5,1.5,2.5,2.8c0,1.1-0.7,1.9-1.7,1.9c-1.2,0-2.6-1.5-2.6-2.8
	C164,184.3,164.8,183.5,165.8,183.5z"/>
<path class="st14" d="M71.5,195.6c0-1.5,1.2-2.9,2.4-2.8c1,0,1.8,0.9,1.7,2c-0.1,1.5-1.2,2.8-2.4,2.8
	C72.2,197.5,71.5,196.7,71.5,195.6z"/>
<path class="st13" d="M145.8,195.6c-0.3-1-0.3-1.8,0.7-2.3c0.7-0.3,1.3-0.1,1.8,0.5c0.3,0.4,0.5,0.7-0.2,0.9
	C147.3,194.9,146.6,195.3,145.8,195.6z"/>
<path class="st13" d="M181.1,171.8c-0.8-0.8-1-1.6-0.4-2.4c0.5-0.6,1.1-0.7,1.8-0.4c0.4,0.2,0.6,0.4,0.3,0.8
	C182.2,170.5,181.7,171.2,181.1,171.8z"/>
<path class="st10" d="M128.4,103.7c0.3,0.9,1.1,1.5,1.5,2.2c3.6,6,2.7,14.5-2.2,19.2c-3.1,2.9-6.8,4-10.9,4c-1.9,0-3.6-0.3-5.4-0.8
	l0,0c-0.1-0.1-0.2-0.1-0.4-0.2c-10.3-3.9-10.8-18.1-5-24.1c2.6-2.7,5.7-4.2,9.3-4.7c3.8-0.5,7.5,0.1,10.8,2.3
	c0.7,0.4,1.1,1.2,1.9,1.4c0.1,0.2,0.2,0.3,0.4,0.3l0,0C128.1,103.6,128.2,103.7,128.4,103.7L128.4,103.7z M114.9,125.1
	c0,0.2,0.1,0.2,0.3,0.3c3.4,1.6,6.9,0.4,8.4-3.1c2.3-5.5,2.1-11-0.5-16.4c-0.5-1-1.2-2.1-2.3-2.6c-1.1-1-2.4-1.4-3.8-1.4
	c-3.3-0.1-6.1,2-7.1,5.6c-1.3,4.7-0.9,9.4,1.3,13.8C112.1,122.8,113.1,124.4,114.9,125.1L114.9,125.1z"/>
<path class="st12" d="M86.1,123.9c-2.6-1.5-3.9-3.9-4.6-6.7c-1.1-4.3-1.2-8.5,1.4-12.4c2.1-3.3,7.1-4,9.8-1.5
	c-2.6-0.4-5-0.1-6.8,2.1c-0.9,0.6-1.4,1.5-1.8,2.5c-1.9,5.1-1.4,10.1,1.4,14.8C85.8,123,86.4,123.3,86.1,123.9z"/>
<path class="st7" d="M86.1,123.9c0.3-0.6-0.4-0.9-0.6-1.2c-2.8-4.7-3.3-9.6-1.4-14.8c0.4-1,0.9-1.9,1.8-2.5c0.5,1.2,0.4,2-0.5,3.1
	c-1,1.3-1.3,3.2-0.5,5c0.3,0.7,0.8,1.3,0.4,2.2c-0.1,0.1,0,0.3,0.1,0.4c1.1,1.4,1.9,3,2.9,4.4c1.3,1.7,3.2,2.8,4.6,4.4
	c-2.1,0.8-4.1,0.6-6-0.5c-0.1-0.1-0.2-0.2-0.3-0.3l0,0C86.5,123.9,86.5,123.6,86.1,123.9L86.1,123.9z"/>
<path class="st7" d="M119.3,74.6c2.1,0.4,4.3,0.9,6.4,1.3c-0.3,0.3-0.8,0.2-1.1,0.2c-8.5,0-17,0-25.5,0c1-0.6,2.1-0.6,3.1-1
	c4.4-0.8,8.8-1.1,13.2-0.7C116.7,74.5,118,74.5,119.3,74.6z"/>
<path class="st12" d="M82.5,128.5c4.9,1.4,9.4,0.8,13.4-2.5c0.4,0,0.7-0.1,0.7-0.5l0,0c1.3-0.2,2-1.3,3-2c0.3-0.3,0.5-0.8,1-0.3
	c0.5,0.4,0.2,0.8,0,1.1c-1.5,2.5-3.6,4.3-6.3,5.4c-3.5,1-7.1,1.2-10.5-0.3C83.3,129.2,82.8,129,82.5,128.5z"/>
<path class="st12" d="M97.7,108.3c-0.1-2.1-0.1-4.2-0.2-6.3c2.2-0.1,2.2-0.1,2.3,2.1c0.1,2.1,0,4.3,0.2,6.4c0,0.4,0.3,0.9-0.4,1
	c-0.6,0.1-0.8-0.2-1-0.8c-0.2-0.6-0.2-1.3-0.7-1.8l0,0C98,108.7,98,108.5,97.7,108.3z"/>
<path class="st12" d="M98,130.3c-0.4,0.5-0.9,0.7-1.5,0.2C96.9,129.4,97.1,129.4,98,130.3z"/>
<path class="st8" d="M128.2,103.5c-0.2,0-0.3-0.1-0.4-0.3C127.9,103.2,128.1,103.2,128.2,103.5z"/>
<path class="st8" d="M128.4,103.7c-0.2,0-0.3-0.1-0.3-0.3C128.3,103.4,128.4,103.5,128.4,103.7z"/>
<path class="st8" d="M110.9,128.2c0.1,0.1,0.2,0.1,0.4,0.2C111.1,128.3,111,128.3,110.9,128.2z"/>
<path class="st0" d="M131.5,83.6c2.2,0.7,4.5,1,6.3,2.5c-1.4,0-2.8,0-4.2,0c-0.9,0-1.4-0.2-1.6-1.1C131.9,84.5,131.7,84,131.5,83.6z
	"/>
<path class="st0" d="M86.9,86.1c0.3-0.9,1.2-1.3,1.8-1.5c1.5-0.4,2.8-1.1,4.2-1.8c-0.1,1-0.6,1.9-0.9,2.8c-0.2,0.5-0.6,0.5-1,0.5
	C89.6,86.1,88.3,86.1,86.9,86.1z"/>
<path class="st2" d="M93.6,81.1c-0.1-0.1-0.2-0.3-0.3-0.4c-0.5-0.7-1.5-1.3-1-2.1c0.5-0.8,1.6-1,2.6-1.1
	C94.6,78.8,94.1,80,93.6,81.1z"/>
<path class="st0" d="M92.9,82.8c0.1-0.1,0.1-0.2,0.2-0.3C93.1,82.7,93.1,82.8,92.9,82.8z"/>
<path class="st2" d="M94.8,77.5c0.1-0.1,0.1-0.1,0.2-0.2C95,77.5,95,77.6,94.8,77.5z"/>
<path class="st14" d="M85.2,76.2c-0.8-1-0.6-2.5,0.7-2.9c2-0.6,3.5-2,5.3-2.8c5.4-2.3,10.9-4.1,16.8-4.6c6.2-0.6,12.3-0.6,18.3,0.9
	c1.7,0.4,3.3,1,4.8,1.7c2.9,1.3,5.7,2.6,8.2,4.6c0.4,0.3,0.8,0.6,0.9,1.2c0,0.4-0.1,0.7-0.2,1c-0.2-0.2-0.5-0.3-0.8-0.5
	c-0.2,0.8,0.6,2-0.7,2.5l0,0c0,0.1-0.1,0.2-0.1,0.2c-0.2-0.2-0.2-0.7-0.7-0.2c-1,0.8-0.6,1.9-1,2.8c-0.9-0.3-1.4-1.3-2.4-1.5
	c-3.9-1.9-8-3.1-12.3-3.8c-0.9-0.2-1.9-0.3-2.8-0.4c-5.7-0.7-11.4-0.8-17.1,0.5c-4.1,0.8-8.1,2-11.8,4c-1,0.3-1.6,1-2.4,1.6
	c-0.1,0-0.2,0-0.3,0c-0.1-0.4-0.7-0.6-0.4-1.1c0.1-0.1,0.2-0.2,0.2-0.2c0.1,0,0.2-0.1,0.1-0.2c0,0-0.2,0.1-0.3,0.1
	c-0.1,0.1-0.2,0.1-0.3,0.2c-0.7-0.2-0.8-0.6-0.5-1.2c0-0.1,0.1-0.2,0.1-0.4h0.1h-0.1c-0.1,0.1-0.2,0.2-0.2,0.2
	c-0.6-0.3-0.9-0.9-1-1.5C85.6,75.6,85.3,76.5,85.2,76.2z"/>
<path class="st13" d="M91.9,82.3c-0.8,0.8-1.9,1.1-3,1.4c-1.5,0.5-2.6,1.3-3.3,2.7c-1.1,2.2-3,3.2-5.5,3.6c1.2-1.8,2.3-3.4,2.8-5.5
	c-2.3,1.1-4.5,2.1-7.2,2c1.8-1.2,3.4-2.4,4.9-3.8c0.6-0.5,1-1.1,1.3-1.8c0.6-1.2,1.7-2,3-2.4c0.5-0.2,0.7-0.1,0.8,0.5
	c0.1,0.7,0.2,1.5,0.4,2.2c0.1,0.6,0.2,1.4,1.2,1.1l0,0c0.6,0.4,1.1,0.4,1.7,0l0,0c0.3,0,0.6,0.1,0.7-0.2l0,0c0.2,0,0.4,0,0.5-0.2
	c0.4,0.2,0.7,0.4,1.2,0.2C91.5,82.4,91.7,82.3,91.9,82.3z"/>
<path class="st13" d="M138.3,78.5c1.8-0.2,2.2,0,3,1.7c0.9,2.1,2.7,3.2,4.8,4.4c-2,0-3.6-0.2-5.2-1.2c-0.1,0.5,0.1,0.8,0.4,1
	c0.8,0.5,1.2,1.3,1.4,2.1c0.4,1.2,0.9,2.4,2.4,3c-1.5,0.6-2.7,0.1-3.8-0.6c-0.6-0.4-1.2-0.9-1.5-1.5c-1.3-2.2-3.2-3.3-5.6-3.8
	c-0.3-0.1-0.7,0-1-0.4c0.6-0.3,0.6-0.3,0.3-0.8c1-0.5,2.3,0.3,3.2-0.8c0.6-0.3,0.3-1,0.5-1.4c0-0.1,0-0.1,0-0.2
	C137.9,79.6,138.1,79.1,138.3,78.5L138.3,78.5z"/>
<path class="st6" d="M137.3,80.2c-0.2,0.5,0.2,1.1-0.5,1.4c-2.2,0.3-2.2,0.3-5.4-0.7c1-0.1,0.4-0.7,0.6-1c0.6-0.7,1.1-1.7,2.3-1.4
	c1,0.2,1.5,1.2,2.4,1.5l0,0C136.8,80.3,137.1,80.2,137.3,80.2z"/>
<path class="st6" d="M88.1,80.4c0.8-0.6,1.4-1.3,2.4-1.6c1,0,1.1,1,1.7,1.5c0.4,0.3,0.2,0.5-0.2,0.6c-0.6,0.2-1.1,0.5-1.6,0.7
	c-0.2,0.1-0.5,0.1-0.5,0.5l0,0C89.5,82,89.2,82,89,82.3l0,0c-0.6,0-1.1,0-1.7,0l0,0c0.2-0.3,0.8-0.3,0.2-0.9
	C87.2,81,88.3,80.9,88.1,80.4z"/>
<path class="st5" d="M102.2,74.8c5.7-1.4,11.4-1.2,17.1-0.5c0,0.1,0,0.2,0,0.3c-1.3-0.1-2.6-0.1-3.8-0.2c-4.4-0.4-8.8-0.1-13.2,0.7
	C102.2,75,102.2,74.9,102.2,74.8z"/>
<path class="st2" d="M128.8,77.1c0.5-0.2,2.8,0.5,3,0.9c0.1,0.2,0.1,0.4,0,0.6c-0.4,0.9-0.7,1.8-1.5,2.4
	C129.9,79.7,129.4,78.4,128.8,77.1z"/>
<path class="st7" d="M128.8,77.1c0.5,1.3,1,2.5,1.6,3.8c0,0.4-0.1,0.9-0.1,1.4C128.6,80.9,128.3,79.1,128.8,77.1z"/>
<path class="st8" d="M87.4,79.2c-0.3,0.5,0.4,0.8,0.5,1.2c-0.3,0.2-0.5,0.7-1,0.5c-0.4-0.2-0.1-0.5-0.2-0.7c-0.1-1.1-0.7-2.1-1.3-3
	c-0.2-0.3-0.1-0.7-0.2-1c0.1,0.3,0.4-0.6,0.5,0.1c0,0.6,0.4,1.2,1,1.5l0.1,0.1c-0.3,0.6-0.2,1,0.5,1.2
	C87.3,79.1,87.3,79.2,87.4,79.2z"/>
<path class="st8" d="M136.8,79.9c0.4-0.9,0.1-2.1,1-2.8c0.5-0.4,0.5,0,0.7,0.2c-0.2,0.4-0.3,0.8-0.2,1.2l0,0
	c-0.7,0.1-0.8,0.7-1.1,1.1C137.1,79.7,136.8,79.7,136.8,79.9L136.8,79.9z"/>
<path class="st5" d="M91.9,82.3c-0.2,0-0.4,0-0.5-0.3C91.9,81.7,91.9,82,91.9,82.3z"/>
<path class="st5" d="M92.3,81.4c-0.1,0-0.1,0.1-0.2,0.1c0-0.1-0.1-0.2-0.1-0.2c0.1,0,0.1-0.1,0.2-0.1C92.3,81.2,92.3,81.3,92.3,81.4
	z"/>
<path class="st5" d="M89.8,82.1c0-0.3,0.2-0.4,0.5-0.5c0,0.1,0,0.2,0,0.3C90.2,82.1,90,82.1,89.8,82.1z"/>
<path class="st7" d="M130.4,82.7L130.4,82.7C130.4,82.6,130.4,82.6,130.4,82.7C130.5,82.6,130.5,82.6,130.4,82.7
	C130.5,82.7,130.5,82.7,130.4,82.7z"/>
<path class="st2" d="M143,85.2c0,0-0.1,0-0.1-0.1C143,85.2,143,85.2,143,85.2L143,85.2z"/>
<path class="st6" d="M138.6,77.1L138.6,77.1L138.6,77.1z"/>
<path class="st7" d="M147.8,103.1c1,0.1,1.1,1.1,1.3,1.7c0.8,2.4,0.8,4.8-0.1,7.2c-0.5,1.4-1.6,2.2-3.1,2.4c0-3.2,0-6.4,0-9.5
	C146,103.1,146,103.1,147.8,103.1z"/>
<path class="st8" d="M147.8,103.1c-1.8,0-1.8,0-1.8,1.8c0,3.2,0,6.4,0,9.5h-0.1c-2.1,0.5-2.1,0.5-2.1-1.6c0-3.3,0-6.6,0-9.9
	c0-0.9,0.4-1.3,1.2-1.2C146.1,101.9,147.3,101.7,147.8,103.1z"/>
<path class="st6" d="M96.7,125.5c-0.1,0.4-0.4,0.5-0.7,0.5C96.2,125.8,96.3,125.4,96.7,125.5z"/>
<path class="st6" d="M97.7,108.3c0.2,0.2,0.2,0.5,0.1,0.7C97.7,108.8,97.7,108.5,97.7,108.3z"/>
<path class="st12" d="M86.1,123.9c0.3-0.2,0.4,0,0.5,0.2C86.4,124.2,86.2,124.1,86.1,123.9z"/>
<path class="st12" d="M86.6,124.1c0.1,0.1,0.2,0.2,0.3,0.3C86.8,124.3,86.6,124.3,86.6,124.1z"/>
<path class="st2" d="M158.4,112.4c0-0.2-0.1-0.5,0.3-0.6C158.7,112.1,158.7,112.3,158.4,112.4z"/>
<path class="st2" d="M158.2,112.9c0-0.2,0-0.3,0.2-0.5C158.4,112.7,158.4,112.8,158.2,112.9z"/>
<path class="st6" d="M120.8,103.2c1.1,0.6,1.8,1.6,2.3,2.6c2.6,5.4,2.8,10.9,0.5,16.4c-1.5,3.5-5,4.7-8.4,3.1c0-0.2-0.1-0.3-0.3-0.3
	l0,0c0-0.1,0-0.3-0.1-0.4c-3.4-4.5-3.8-9.6-2.9-14.8c0.5-3,2.1-5.5,5.4-6.5C118.4,103,119.6,103.2,120.8,103.2z"/>
<path class="st12" d="M120.8,103.2c-1.2,0-2.4-0.2-3.6,0.1c-3.2,1-4.8,3.4-5.4,6.5c-0.9,5.3-0.5,10.4,2.9,14.8
	c0.1,0.1,0.1,0.3,0.1,0.4c-1.9-0.7-2.8-2.3-3.7-3.9c-2.2-4.4-2.6-9.1-1.3-13.8c1-3.6,3.8-5.8,7.1-5.6
	C118.4,101.8,119.8,102.1,120.8,103.2z"/>
<path class="st12" d="M114.9,125.1c0.2,0,0.3,0.1,0.3,0.3C115.1,125.3,114.9,125.3,114.9,125.1z"/>
<path d="M87.6,79c-0.1,0.1-0.2,0.2-0.2,0.2c-0.1,0-0.1-0.1-0.1-0.2c0.1-0.1,0.2-0.1,0.3-0.2C87.5,78.9,87.6,78.9,87.6,79z"/>
<path d="M87.5,78.9c0.1,0,0.2-0.1,0.3-0.1c0.1,0.1,0,0.2-0.1,0.2C87.6,78.9,87.5,78.9,87.5,78.9z"/>
<path d="M86.8,77.5c0,0.1-0.1,0.2-0.1,0.4l-0.1-0.1C86.7,77.7,86.8,77.6,86.8,77.5L86.8,77.5z"/>
<path class="st5" d="M87.3,82.3c0.6,0,1.1,0,1.7,0C88.5,82.7,87.9,82.7,87.3,82.3z"/>
<path class="st5" d="M89,82.3c0.2-0.4,0.4-0.3,0.7-0.2C89.6,82.4,89.3,82.4,89,82.3z"/>
<path class="st8" d="M137.2,79.7c0.3-0.5,0.4-1.1,1.1-1.1c-0.2,0.6-0.4,1.1-1,1.4C137.3,79.8,137.2,79.7,137.2,79.7z"/>
<path d="M137.2,79.7c0,0.1,0,0.2,0,0.3c0,0.1,0,0.1,0,0.2c-0.2,0-0.5,0.1-0.5-0.2C136.8,79.7,137.1,79.7,137.2,79.7z"/>
<polygon class="st2" points="113.2,66.4 113.9,68.3 115.8,68.4 114.3,69.6 114.8,71.5 113.2,70.4 111.5,71.5 112,69.6 110.5,68.4 
	112.5,68.3 "/>
<polygon class="st2" points="104.1,67.3 105.1,69.1 107,68.8 105.7,70.3 106.5,72.1 104.7,71.3 103.3,72.6 103.5,70.7 101.8,69.7 
	103.7,69.3 "/>
<polygon class="st2" points="122.3,67.3 121.3,69.1 119.3,68.8 120.7,70.3 119.8,72.1 121.6,71.3 123.1,72.6 122.9,70.7 124.6,69.7 
	122.7,69.3 "/>
<polygon class="st2" points="131,69.9 129.7,71.4 127.8,70.7 128.8,72.4 127.6,74 129.5,73.6 130.7,75.2 130.9,73.2 132.8,72.6 
	131,71.9 "/>
<polygon class="st2" points="94.7,70 96.1,71.5 97.9,70.8 96.9,72.5 98.1,74.1 96.2,73.7 95,75.3 94.8,73.3 92.9,72.8 94.8,72 "/>
<g class="st15">
	<path class="st16" d="M245.6,105.8h-14.8v-1.7c1.5-0.7,3-1.2,4.6-1.4V68.4c-0.8-0.2-1.5-0.4-2.3-0.6c-0.8-0.2-1.5-0.5-2.3-0.8v-1.7
		h14.8V67c-0.7,0.3-1.4,0.6-2.3,0.8c-0.8,0.3-1.6,0.5-2.4,0.6v34.3c0.8,0.2,1.6,0.3,2.4,0.6s1.5,0.5,2.2,0.8V105.8z"/>
	<path class="st16" d="M263.5,105.8h-12.8v-1.4c1.3-0.6,2.5-1.1,3.8-1.4V66.4l-4.4-0.5v-1.5c1-0.5,2.3-0.9,3.8-1.2
		c1.5-0.3,3-0.6,4.4-0.9h1.4v40.6c1.3,0.3,2.5,0.8,3.8,1.4V105.8z"/>
	<path class="st16" d="M280.9,105.8h-12.8v-1.4c1.3-0.6,2.5-1.1,3.8-1.4V66.4l-4.4-0.5v-1.5c1-0.5,2.3-0.9,3.8-1.2
		c1.5-0.3,3-0.6,4.4-0.9h1.4v40.6c1.3,0.3,2.5,0.8,3.8,1.4V105.8z"/>
	<path class="st16" d="M298.3,105.8h-12.8v-1.4c0.6-0.3,1.2-0.6,1.8-0.8c0.6-0.2,1.3-0.4,2-0.6V80.2l-3.8-0.5v-1.5
		c1.1-0.5,2.3-0.9,3.6-1.2c1.3-0.3,2.6-0.6,3.9-0.9h1.4v26.8c0.8,0.2,1.5,0.4,2.1,0.6c0.6,0.2,1.2,0.5,1.7,0.8V105.8z M288.2,67
		c0-1,0.3-1.9,1-2.5c0.7-0.6,1.6-0.9,2.7-0.9c1.1,0,2,0.3,2.7,0.9c0.7,0.6,1,1.4,1,2.5c0,1-0.3,1.9-1,2.5c-0.7,0.6-1.5,0.9-2.7,0.9
		c-1.1,0-2-0.3-2.7-0.9C288.6,68.9,288.2,68.1,288.2,67z"/>
	<path class="st16" d="M333.9,105.8h-12.4v-1.4c1-0.5,2.2-1,3.4-1.4V89.2c0-2.9-0.4-5.2-1.3-6.9c-0.8-1.7-2.4-2.5-4.6-2.5
		c-1,0-1.9,0.2-2.7,0.5c-0.8,0.3-1.6,0.8-2.2,1.4c-0.6,0.6-1.2,1.3-1.6,2s-0.8,1.5-1.1,2.3v16.9c1.2,0.2,2.3,0.7,3.5,1.4v1.4h-12.5
		v-1.4c1-0.5,2.2-1,3.8-1.4V80.2l-3.8-0.5v-1.5c1-0.4,2.2-0.8,3.5-1.2c1.3-0.3,2.7-0.7,4.1-0.9h1.4v6.5h0.1c0.8-1.8,2-3.3,3.5-4.6
		c1.5-1.3,3.4-1.9,5.5-1.9c1.5,0,2.9,0.2,4.1,0.5c1.2,0.4,2.2,1,3,1.9s1.4,2.2,1.8,3.7c0.4,1.6,0.6,3.5,0.6,5.9v14.6
		c1.5,0.3,2.8,0.7,3.8,1.4V105.8z"/>
	<path class="st16" d="M337.2,91.3c0-2.4,0.3-4.6,1-6.4s1.6-3.4,2.7-4.7c1.2-1.3,2.6-2.3,4.3-2.9c1.7-0.7,3.5-1,5.6-1
		c2.4,0,4.5,0.4,6.2,1.1c1.7,0.7,3.1,1.8,4.2,3.1c1.1,1.3,1.9,2.9,2.4,4.8s0.8,3.9,0.8,6.2c0,4.9-1.2,8.6-3.7,11.2
		c-2.5,2.6-5.8,3.9-9.9,3.9c-2.3,0-4.3-0.4-6-1.1c-1.7-0.7-3.1-1.7-4.2-3.1c-1.1-1.3-2-2.9-2.5-4.8
		C337.5,95.7,337.2,93.6,337.2,91.3z M342.8,91.3c0,1.7,0.2,3.4,0.5,4.9c0.3,1.5,0.8,2.9,1.6,4c0.7,1.1,1.6,2,2.8,2.7
		c1.2,0.7,2.5,1,4.2,1c2.1,0,3.8-1,5.1-3.1c1.3-2,2-5.2,2-9.5c0-1.8-0.2-3.4-0.5-4.9c-0.3-1.5-0.8-2.9-1.5-4c-0.7-1.1-1.6-2-2.7-2.7
		c-1.1-0.7-2.4-1-3.9-1c-2.3,0-4.1,1-5.5,3.1C343.5,83.8,342.8,87,342.8,91.3z"/>
	<path class="st16" d="M382,105.8h-12.8v-1.4c0.6-0.3,1.2-0.6,1.8-0.8c0.6-0.2,1.3-0.4,2-0.6V80.2l-3.8-0.5v-1.5
		c1.1-0.5,2.3-0.9,3.6-1.2c1.3-0.3,2.6-0.6,3.9-0.9h1.4v26.8c0.8,0.2,1.5,0.4,2.1,0.6c0.6,0.2,1.2,0.5,1.7,0.8V105.8z M371.9,67
		c0-1,0.3-1.9,1-2.5c0.7-0.6,1.6-0.9,2.7-0.9c1.1,0,2,0.3,2.7,0.9c0.7,0.6,1,1.4,1,2.5c0,1-0.3,1.9-1,2.5c-0.7,0.6-1.5,0.9-2.7,0.9
		c-1.1,0-2-0.3-2.7-0.9C372.3,68.9,371.9,68.1,371.9,67z"/>
	<path class="st16" d="M401.3,99.2c0-1.1-0.3-2-1-2.7c-0.7-0.8-1.5-1.5-2.6-2.1c-1-0.7-2.1-1.3-3.3-1.9c-1.2-0.6-2.3-1.3-3.3-2.2
		c-1-0.8-1.9-1.8-2.6-2.9c-0.7-1.1-1-2.4-1-4c0-1,0.2-2,0.7-2.9c0.5-0.9,1.1-1.6,1.9-2.3c0.8-0.6,1.8-1.1,2.8-1.5
		c1.1-0.4,2.2-0.5,3.5-0.5c2.1,0,3.8,0.1,5.1,0.3c1.3,0.2,2.6,0.6,3.8,1c-0.2,1.2-0.3,2.5-0.5,3.7c-0.2,1.3-0.5,2.5-0.9,3.8h-1.4
		l-2.2-5.9c-0.5-0.2-1-0.3-1.6-0.4c-0.6-0.1-1.2-0.1-1.8-0.1c-0.7,0-1.3,0.1-1.8,0.4c-0.5,0.3-1,0.6-1.3,1c-0.4,0.4-0.6,0.8-0.8,1.3
		c-0.2,0.5-0.3,1-0.3,1.5c0,1,0.3,1.9,1,2.7c0.7,0.8,1.5,1.4,2.6,2.1c1,0.6,2.1,1.3,3.3,1.9c1.2,0.6,2.3,1.3,3.3,2.1
		c1,0.8,1.9,1.7,2.6,2.7c0.7,1,1,2.2,1,3.7c0,1.3-0.3,2.5-0.8,3.5c-0.6,1-1.3,1.9-2.3,2.7c-1,0.7-2.1,1.3-3.4,1.7
		c-1.3,0.4-2.7,0.6-4.1,0.6c-1.7,0-3.2-0.1-4.6-0.4c-1.4-0.3-2.8-0.7-4.3-1.2c0.1-1.4,0.3-2.7,0.5-4s0.6-2.5,1-3.7h1.4l2.5,6.3
		c0.4,0.3,0.9,0.5,1.5,0.5c0.6,0,1.1,0.1,1.6,0.1c1.7,0,3.1-0.5,4.1-1.4C400.8,101.6,401.3,100.5,401.3,99.2z"/>
	<path class="st16" d="M454.9,95.3h1.5c0.2,1.1,0.4,2.4,0.5,4.1s0.2,3.2,0.1,4.8c-0.6,0.5-1.3,0.8-2.1,1.1c-0.8,0.3-1.7,0.5-2.6,0.7
		s-1.8,0.3-2.8,0.4c-0.9,0.1-1.8,0.1-2.7,0.1c-3.2,0-6.1-0.4-8.7-1.2s-4.7-2.1-6.4-3.8c-1.8-1.7-3.1-3.9-4-6.5
		c-0.9-2.6-1.4-5.8-1.4-9.4c0-3.8,0.5-7,1.6-9.6c1-2.6,2.4-4.8,4.2-6.5c1.8-1.7,3.8-2.9,6.2-3.7c2.3-0.8,4.8-1.2,7.4-1.2
		c2.5,0,4.7,0.2,6.4,0.5c1.7,0.3,3.3,0.8,4.6,1.5c0,0.6,0,1.3-0.1,2.2c0,0.8-0.1,1.7-0.2,2.6c-0.1,0.9-0.2,1.8-0.3,2.7
		c-0.1,0.9-0.2,1.7-0.3,2.4h-1.5l-3-8.3c-0.4-0.2-1.1-0.4-2.1-0.5c-1-0.1-2-0.1-2.9-0.1c-1.9,0-3.7,0.4-5.4,1.1
		c-1.7,0.7-3.2,1.8-4.5,3.3c-1.3,1.5-2.3,3.4-3.1,5.6c-0.8,2.3-1.2,4.9-1.2,7.9c0,2.7,0.3,5.2,1,7.4c0.7,2.2,1.7,4.1,3,5.7
		c1.3,1.6,2.9,2.8,4.8,3.6c1.9,0.8,4,1.2,6.4,1.2c1.3,0,2.3-0.1,3.2-0.3c0.8-0.2,1.4-0.4,1.7-0.8L454.9,95.3z"/>
	<path class="st16" d="M462.9,91.3c0-2.4,0.3-4.6,1-6.4s1.6-3.4,2.7-4.7s2.6-2.3,4.3-2.9c1.7-0.7,3.5-1,5.6-1c2.4,0,4.5,0.4,6.2,1.1
		c1.7,0.7,3.1,1.8,4.2,3.1c1.1,1.3,1.9,2.9,2.4,4.8c0.5,1.8,0.8,3.9,0.8,6.2c0,4.9-1.2,8.6-3.7,11.2c-2.5,2.6-5.8,3.9-9.9,3.9
		c-2.3,0-4.3-0.4-6-1.1c-1.7-0.7-3.1-1.7-4.2-3.1c-1.1-1.3-2-2.9-2.5-4.8C463.2,95.7,462.9,93.6,462.9,91.3z M468.4,91.3
		c0,1.7,0.2,3.4,0.5,4.9s0.8,2.9,1.6,4c0.7,1.1,1.6,2,2.8,2.7c1.2,0.7,2.5,1,4.2,1c2.1,0,3.8-1,5.1-3.1c1.3-2,2-5.2,2-9.5
		c0-1.8-0.2-3.4-0.5-4.9c-0.3-1.5-0.8-2.9-1.5-4c-0.7-1.1-1.6-2-2.7-2.7c-1.1-0.7-2.4-1-3.9-1c-2.3,0-4.1,1-5.5,3.1
		C469.1,83.8,468.4,87,468.4,91.3z"/>
	<path class="st16" d="M496.9,94.3c0-2.4,0.1-4.8,0.2-7.1c0.1-2.3,0.2-4.7,0.2-7l-3.8-0.5v-1.5c1.2-0.5,2.5-0.9,3.8-1.2
		c1.3-0.3,2.6-0.6,3.8-0.9h1.4c0,2.9-0.1,5.8-0.2,8.6c-0.1,2.9-0.2,5.7-0.2,8.5c0,1.5,0.1,2.9,0.3,4c0.2,1.2,0.5,2.2,0.9,3
		c0.4,0.8,1,1.4,1.8,1.9c0.8,0.4,1.8,0.7,2.9,0.7c1.7,0,3.2-0.6,4.4-1.9c1.2-1.3,2.1-2.9,2.7-4.9V80.2l-3.8-0.5v-1.5
		c1.2-0.5,2.4-0.9,3.7-1.2c1.3-0.3,2.6-0.6,3.8-0.9h1.4v26.3l3.8,0.5v1.2c-1.1,0.5-2.2,0.9-3.4,1.3c-1.1,0.4-2.3,0.7-3.6,0.9h-1.4
		l-0.4-6.9h-0.2c-0.2,0.8-0.5,1.6-1,2.5c-0.5,0.8-1.1,1.6-1.9,2.3c-0.8,0.7-1.6,1.2-2.6,1.6c-1,0.4-2.1,0.6-3.2,0.6
		c-1.5,0-2.9-0.2-4.1-0.5c-1.2-0.4-2.2-1-3-1.9c-0.8-0.9-1.4-2.2-1.8-3.7S496.9,96.7,496.9,94.3z"/>
	<path class="st16" d="M559,105.8h-12.4v-1.4c1-0.5,2.2-1,3.4-1.4V89.2c0-2.9-0.4-5.2-1.3-6.9c-0.8-1.7-2.4-2.5-4.6-2.5
		c-1,0-1.9,0.2-2.7,0.5c-0.8,0.3-1.6,0.8-2.2,1.4s-1.2,1.3-1.6,2s-0.8,1.5-1.1,2.3v16.9c1.2,0.2,2.3,0.7,3.5,1.4v1.4h-12.5v-1.4
		c1-0.5,2.2-1,3.8-1.4V80.2l-3.8-0.5v-1.5c1-0.4,2.2-0.8,3.5-1.2c1.3-0.3,2.7-0.7,4.1-0.9h1.4v6.5h0.1c0.8-1.8,2-3.3,3.5-4.6
		s3.4-1.9,5.5-1.9c1.5,0,2.9,0.2,4.1,0.5s2.2,1,3,1.9c0.8,0.9,1.4,2.2,1.8,3.7s0.6,3.5,0.6,5.9v14.6c1.5,0.3,2.8,0.7,3.8,1.4V105.8z
		"/>
	<path class="st16" d="M584.7,101.7c-0.7,1.3-1.8,2.5-3.4,3.4c-1.6,0.9-3.4,1.4-5.5,1.4c-2.3,0-4.2-0.4-5.9-1.1
		c-1.7-0.7-3.1-1.7-4.2-3.1c-1.1-1.3-2-2.9-2.5-4.8c-0.6-1.9-0.8-3.9-0.8-6.2c0-4.9,1.2-8.6,3.6-11.2c2.4-2.6,5.6-3.9,9.8-3.9
		c1.9,0,3.6,0.2,5.1,0.5c1.5,0.3,2.7,0.8,3.8,1.3c-0.1,1.3-0.3,2.7-0.6,4.3s-0.7,2.9-1.2,3.9h-1.6l-2.4-6.9
		c-0.3-0.2-0.6-0.3-0.9-0.4c-0.3-0.1-0.9-0.1-1.7-0.1c-2.6,0-4.6,1-6.1,2.9c-1.4,1.9-2.1,5.1-2.1,9.7c0,1.5,0.2,2.9,0.6,4.3
		c0.4,1.4,1,2.6,1.8,3.7c0.8,1.1,1.9,2,3.1,2.6c1.3,0.7,2.7,1,4.4,1c1.3,0,2.5-0.2,3.5-0.6c1-0.4,1.8-0.8,2.5-1.4L584.7,101.7z"/>
	<path class="st16" d="M602.1,105.8h-12.8v-1.4c0.6-0.3,1.2-0.6,1.8-0.8c0.6-0.2,1.3-0.4,2-0.6V80.2l-3.8-0.5v-1.5
		c1.1-0.5,2.3-0.9,3.6-1.2c1.3-0.3,2.6-0.6,3.9-0.9h1.4v26.8c0.8,0.2,1.5,0.4,2.1,0.6c0.6,0.2,1.2,0.5,1.7,0.8V105.8z M592,67
		c0-1,0.3-1.9,1-2.5c0.7-0.6,1.6-0.9,2.7-0.9c1.1,0,2,0.3,2.7,0.9c0.7,0.6,1,1.4,1,2.5c0,1-0.3,1.9-1,2.5c-0.7,0.6-1.5,0.9-2.7,0.9
		c-1.1,0-2-0.3-2.7-0.9C592.3,68.9,592,68.1,592,67z"/>
	<path class="st16" d="M619.5,105.8h-12.8v-1.4c1.3-0.6,2.5-1.1,3.8-1.4V66.4l-4.4-0.5v-1.5c1-0.5,2.3-0.9,3.8-1.2s3-0.6,4.4-0.9
		h1.4v40.6c1.3,0.3,2.5,0.8,3.8,1.4V105.8z"/>
	<path class="st16" d="M638.1,91.3c0-2.4,0.3-4.6,1-6.4s1.6-3.4,2.7-4.7s2.6-2.3,4.3-2.9c1.7-0.7,3.5-1,5.6-1c2.4,0,4.5,0.4,6.2,1.1
		c1.7,0.7,3.1,1.8,4.2,3.1c1.1,1.3,1.9,2.9,2.4,4.8c0.5,1.8,0.8,3.9,0.8,6.2c0,4.9-1.2,8.6-3.7,11.2c-2.5,2.6-5.8,3.9-9.9,3.9
		c-2.3,0-4.3-0.4-6-1.1c-1.7-0.7-3.1-1.7-4.2-3.1c-1.1-1.3-2-2.9-2.5-4.8C638.4,95.7,638.1,93.6,638.1,91.3z M643.7,91.3
		c0,1.7,0.2,3.4,0.5,4.9s0.8,2.9,1.6,4c0.7,1.1,1.6,2,2.8,2.7c1.2,0.7,2.5,1,4.2,1c2.1,0,3.8-1,5.1-3.1c1.3-2,2-5.2,2-9.5
		c0-1.8-0.2-3.4-0.5-4.9c-0.3-1.5-0.8-2.9-1.5-4c-0.7-1.1-1.6-2-2.7-2.7c-1.1-0.7-2.4-1-3.9-1c-2.3,0-4.1,1-5.5,3.1
		C644.4,83.8,643.7,87,643.7,91.3z"/>
	<path class="st16" d="M685.4,62.3c0.3,0,0.8,0,1.2,0.1c0.5,0,0.9,0.1,1.4,0.1c0.5,0.1,1,0.1,1.4,0.2c0.5,0.1,0.9,0.2,1.2,0.3
		c-0.1,1.3-0.3,2.5-0.5,3.6c-0.2,1.1-0.5,2.1-0.8,3H688l-2.5-5c-1.1,0-2.1,0.1-2.9,0.3c-0.8,0.2-1.4,0.7-2,1.3
		c-0.5,0.7-0.9,1.6-1.2,2.8c-0.3,1.2-0.4,2.9-0.4,4.9v2.9h6.6v3h-6.6V103c2,0.2,3.9,0.7,5.5,1.4v1.4h-14.6v-1.4
		c1.2-0.7,2.5-1.2,3.8-1.4V79.9h-4.4v-1.6c1.3-0.9,2.8-1.5,4.4-2v-2c0-2.4,0.3-4.4,0.9-5.9c0.6-1.6,1.4-2.8,2.4-3.7
		c1-0.9,2.3-1.5,3.7-1.9S683.8,62.3,685.4,62.3z"/>
	<path class="st16" d="M713.5,102.7c1,0.1,2,0.3,2.9,0.5c0.9,0.3,1.8,0.5,2.6,0.8v1.7h-15.8v-1.7c0.8-0.4,1.6-0.7,2.4-0.9
		c0.8-0.2,1.6-0.4,2.4-0.5V68.4c-0.9-0.2-1.7-0.4-2.5-0.6c-0.8-0.2-1.5-0.5-2.3-0.8v-1.7h5.2c1.5,0,3.2-0.1,5-0.2
		c1.8-0.2,3.5-0.2,5.2-0.2c1.9,0,3.7,0.2,5.5,0.6c1.8,0.4,3.4,1.1,4.8,2.1c1.4,1,2.5,2.2,3.4,3.8s1.3,3.6,1.3,6
		c0,2.3-0.4,4.2-1.3,5.8c-0.9,1.6-2.1,2.9-3.6,4c-1.5,1-3.2,1.8-5.1,2.3c-1.9,0.5-3.8,0.7-5.8,0.7c-0.2,0-0.5,0-0.9,0s-0.8,0-1.3,0
		c-0.5,0-0.9,0-1.3-0.1c-0.4,0-0.7-0.1-0.9-0.1V102.7z M717.4,67.9c-0.9,0-1.7,0-2.3,0.1c-0.6,0-1.1,0.1-1.7,0.2v18.7
		c0.2,0.1,0.5,0.1,0.8,0.1s0.8,0,1.2,0.1c0.4,0,0.8,0.1,1.2,0.1c0.4,0,0.7,0,0.9,0c1.3,0,2.6-0.2,3.8-0.5c1.2-0.4,2.2-1,3.2-1.8
		c0.9-0.8,1.6-1.8,2.2-3.1c0.5-1.2,0.8-2.7,0.8-4.5c0-3.2-0.9-5.5-2.7-7.1S720.6,67.9,717.4,67.9z"/>
	<path class="st16" d="M736.6,91.3c0-2.4,0.3-4.6,1-6.4s1.6-3.4,2.7-4.7s2.6-2.3,4.3-2.9c1.7-0.7,3.5-1,5.6-1c2.4,0,4.5,0.4,6.2,1.1
		c1.7,0.7,3.1,1.8,4.2,3.1c1.1,1.3,1.9,2.9,2.4,4.8c0.5,1.8,0.8,3.9,0.8,6.2c0,4.9-1.2,8.6-3.7,11.2c-2.5,2.6-5.8,3.9-9.9,3.9
		c-2.3,0-4.3-0.4-6-1.1c-1.7-0.7-3.1-1.7-4.2-3.1c-1.1-1.3-2-2.9-2.5-4.8C736.9,95.7,736.6,93.6,736.6,91.3z M742.2,91.3
		c0,1.7,0.2,3.4,0.5,4.9s0.8,2.9,1.6,4c0.7,1.1,1.6,2,2.8,2.7c1.2,0.7,2.5,1,4.2,1c2.1,0,3.8-1,5.1-3.1c1.3-2,2-5.2,2-9.5
		c0-1.8-0.2-3.4-0.5-4.9c-0.3-1.5-0.8-2.9-1.5-4c-0.7-1.1-1.6-2-2.7-2.7c-1.1-0.7-2.4-1-3.9-1c-2.3,0-4.1,1-5.5,3.1
		C742.9,83.8,742.2,87,742.2,91.3z"/>
	<path class="st16" d="M781.4,105.8h-12.8v-1.4c1.3-0.6,2.5-1.1,3.8-1.4V66.4l-4.4-0.5v-1.5c1-0.5,2.3-0.9,3.8-1.2s3-0.6,4.4-0.9
		h1.4v40.6c1.3,0.3,2.5,0.8,3.8,1.4V105.8z"/>
	<path class="st16" d="M798.8,105.8H786v-1.4c0.6-0.3,1.2-0.6,1.8-0.8c0.6-0.2,1.3-0.4,2-0.6V80.2l-3.8-0.5v-1.5
		c1.1-0.5,2.3-0.9,3.6-1.2c1.3-0.3,2.6-0.6,3.9-0.9h1.4v26.8c0.8,0.2,1.5,0.4,2.1,0.6c0.6,0.2,1.2,0.5,1.7,0.8V105.8z M788.7,67
		c0-1,0.3-1.9,1-2.5c0.7-0.6,1.6-0.9,2.7-0.9c1.1,0,2,0.3,2.7,0.9c0.7,0.6,1,1.4,1,2.5c0,1-0.3,1.9-1,2.5c-0.7,0.6-1.5,0.9-2.7,0.9
		c-1.1,0-2-0.3-2.7-0.9C789,68.9,788.7,68.1,788.7,67z"/>
	<path class="st16" d="M825.7,101.7c-0.7,1.3-1.8,2.5-3.4,3.4c-1.6,0.9-3.4,1.4-5.5,1.4c-2.3,0-4.2-0.4-5.9-1.1
		c-1.7-0.7-3.1-1.7-4.2-3.1c-1.1-1.3-2-2.9-2.5-4.8c-0.6-1.9-0.8-3.9-0.8-6.2c0-4.9,1.2-8.6,3.6-11.2c2.4-2.6,5.6-3.9,9.8-3.9
		c1.9,0,3.6,0.2,5.1,0.5c1.5,0.3,2.7,0.8,3.8,1.3c-0.1,1.3-0.3,2.7-0.6,4.3s-0.7,2.9-1.2,3.9h-1.6l-2.4-6.9
		c-0.3-0.2-0.6-0.3-0.9-0.4c-0.3-0.1-0.9-0.1-1.7-0.1c-2.6,0-4.6,1-6.1,2.9c-1.4,1.9-2.1,5.1-2.1,9.7c0,1.5,0.2,2.9,0.6,4.3
		c0.4,1.4,1,2.6,1.8,3.7c0.8,1.1,1.9,2,3.1,2.6c1.3,0.7,2.7,1,4.4,1c1.3,0,2.5-0.2,3.5-0.6c1-0.4,1.8-0.8,2.5-1.4L825.7,101.7z"/>
	<path class="st16" d="M853.7,101.7c-0.3,0.7-0.8,1.3-1.4,1.8c-0.7,0.6-1.4,1.1-2.3,1.5s-1.8,0.8-2.8,1c-1,0.2-2,0.4-3.1,0.4
		c-2.3,0-4.3-0.4-6-1.1c-1.7-0.7-3.2-1.7-4.3-3.1c-1.2-1.3-2-2.9-2.6-4.8c-0.6-1.8-0.9-3.9-0.9-6.2c0-4.9,1.1-8.7,3.4-11.3
		c2.3-2.6,5.5-3.9,9.7-3.9c1.3,0,2.7,0.2,4,0.5c1.3,0.4,2.5,1,3.5,1.8c1,0.8,1.8,2,2.5,3.4c0.6,1.4,1,3.2,1,5.2c0,0.7,0,1.3-0.1,2
		c-0.1,0.7-0.2,1.4-0.3,2.2h-18c0,1.6,0.2,3.1,0.6,4.5c0.4,1.4,1,2.6,1.8,3.7s1.8,1.9,3.1,2.5c1.2,0.6,2.7,0.9,4.3,0.9
		c1.3,0,2.7-0.2,4.1-0.6c1.4-0.4,2.4-0.9,3.1-1.5L853.7,101.7z M843.1,78.7c-2.2,0-3.9,0.7-5,2.2c-1.2,1.5-1.8,4.1-2.1,7.8h12.7
		c0-0.3,0.1-0.7,0.1-1c0-0.3,0-0.6,0-1c0-2.5-0.5-4.4-1.4-5.9C846.5,79.5,845.1,78.7,843.1,78.7z"/>
</g>
<g class="st17">
	<path class="st16" d="M246.7,147.1h-9.3l-2.5,6.7h-3l9.6-24.5h1.4l9.6,24.5h-3.2L246.7,147.1z M238.4,144.6h7.4l-2.8-7.3l-0.9-3.7
		h0l-0.9,3.7L238.4,144.6z"/>
	<path class="st16" d="M278.5,129.6h2.9v16.1c0,1.4-0.2,2.7-0.6,3.8c-0.4,1.1-1,1.9-1.7,2.6c-0.7,0.7-1.6,1.2-2.7,1.5
		c-1,0.3-2.2,0.5-3.4,0.5c-3,0-5.2-0.6-6.8-1.9c-1.5-1.3-2.3-3.2-2.3-5.9v-16.7h3v15.3c0,1.2,0.1,2.2,0.4,3.1c0.3,0.8,0.6,1.5,1.1,2
		c0.5,0.5,1.1,0.9,1.9,1.1c0.8,0.2,1.6,0.3,2.7,0.3c2,0,3.3-0.5,4.2-1.5c0.8-1,1.3-2.7,1.3-5.1V129.6z"/>
	<path class="st16" d="M292.1,138l-2-3.5H290l0.4,3.5v15.8h-2.8v-24.5h1.6l12.1,16.1l1.9,3.3h0.2l-0.4-3.3v-15.7h2.8v24.5h-1.6
		L292.1,138z"/>
	<path class="st16" d="M312.5,129.6h3v24.1h-3V129.6z"/>
	<path class="st16" d="M321.3,141.7c0-4,0.9-7.1,2.7-9.3c1.8-2.1,4.3-3.2,7.6-3.2c1.8,0,3.3,0.3,4.6,0.9c1.3,0.6,2.4,1.4,3.2,2.5
		c0.9,1.1,1.5,2.4,1.9,3.9s0.6,3.2,0.6,5.1c0,4-0.9,7.1-2.7,9.3c-1.8,2.2-4.4,3.2-7.7,3.2c-1.8,0-3.3-0.3-4.6-0.9
		c-1.3-0.6-2.4-1.4-3.2-2.5c-0.9-1.1-1.5-2.4-1.9-3.9S321.3,143.6,321.3,141.7z M324.5,141.7c0,1.3,0.1,2.6,0.4,3.8
		c0.3,1.2,0.7,2.2,1.3,3.2c0.6,0.9,1.3,1.6,2.2,2.2c0.9,0.5,2,0.8,3.2,0.8c2.2,0,4-0.8,5.3-2.4s1.9-4.1,1.9-7.5
		c0-1.3-0.1-2.6-0.4-3.8c-0.3-1.2-0.7-2.3-1.3-3.2c-0.6-0.9-1.3-1.6-2.2-2.2c-0.9-0.5-2-0.8-3.2-0.8c-2.2,0-4,0.8-5.2,2.4
		C325.1,135.8,324.5,138.3,324.5,141.7z"/>
	<path class="st16" d="M351.6,138l-2-3.5h-0.1l0.4,3.5v15.8h-2.8v-24.5h1.6l12.1,16.1l1.9,3.3h0.2l-0.4-3.3v-15.7h2.8v24.5h-1.6
		L351.6,138z"/>
	<path class="st16" d="M385.3,145.8l0.6,4h0l0.6-4.1l5.2-16.1h1.4l5.2,16.2l0.6,4h0l0.7-4.1l4.3-16.1h2.9l-7,24.5h-1.7L393,138
		l-0.7-3.7h-0.2l-0.7,3.7l-5.1,16.1h-1.7l-7.2-24.5h3.2L385.3,145.8z"/>
	<path class="st16" d="M410.9,129.6h3v24.1h-3V129.6z"/>
	<path class="st16" d="M437.1,132.2h-7.9v21.6h-3v-21.6h-7.9v-2.6h18.7V132.2z"/>
	<path class="st16" d="M455.9,142.7h-12.1v11.1h-3v-24.1h3v10.5h12.1v-10.5h3v24.1h-3V142.7z"/>
	<path class="st16" d="M473.7,141.7c0-4,0.9-7.1,2.7-9.3c1.8-2.1,4.3-3.2,7.6-3.2c1.8,0,3.3,0.3,4.6,0.9c1.3,0.6,2.4,1.4,3.2,2.5
		c0.9,1.1,1.5,2.4,1.9,3.9s0.6,3.2,0.6,5.1c0,4-0.9,7.1-2.7,9.3c-1.8,2.2-4.4,3.2-7.7,3.2c-1.8,0-3.3-0.3-4.6-0.9
		c-1.3-0.6-2.4-1.4-3.2-2.5c-0.9-1.1-1.5-2.4-1.9-3.9S473.7,143.6,473.7,141.7z M476.9,141.7c0,1.3,0.1,2.6,0.4,3.8
		c0.3,1.2,0.7,2.2,1.3,3.2c0.6,0.9,1.3,1.6,2.2,2.2c0.9,0.5,2,0.8,3.2,0.8c2.2,0,4-0.8,5.3-2.4s1.9-4.1,1.9-7.5
		c0-1.3-0.1-2.6-0.4-3.8c-0.3-1.2-0.7-2.3-1.3-3.2c-0.6-0.9-1.3-1.6-2.2-2.2c-0.9-0.5-2-0.8-3.2-0.8c-2.2,0-4,0.8-5.2,2.4
		C477.5,135.8,476.9,138.3,476.9,141.7z"/>
	<path class="st16" d="M504,138l-2-3.5h-0.1l0.4,3.5v15.8h-2.8v-24.5h1.6l12.1,16.1l1.9,3.3h0.2l-0.4-3.3v-15.7h2.8v24.5H516
		L504,138z"/>
	<path class="st16" d="M523.7,129.6h13.8v2.6h-10.8v7.9h9.9v2.6h-9.9v8.6h10.9v2.6h-13.9V129.6z"/>
	<path class="st16" d="M558.2,146.2l0.9,3.7h0l0.9-3.7l6.1-16.5h3l-9.6,24.5h-1.3l-9.8-24.5h3.3L558.2,146.2z"/>
	<path class="st16" d="M570.2,141.7c0-4,0.9-7.1,2.7-9.3c1.8-2.1,4.3-3.2,7.6-3.2c1.8,0,3.3,0.3,4.6,0.9c1.3,0.6,2.4,1.4,3.2,2.5
		c0.9,1.1,1.5,2.4,1.9,3.9s0.6,3.2,0.6,5.1c0,4-0.9,7.1-2.7,9.3c-1.8,2.2-4.4,3.2-7.7,3.2c-1.8,0-3.3-0.3-4.6-0.9
		c-1.3-0.6-2.4-1.4-3.2-2.5c-0.9-1.1-1.5-2.4-1.9-3.9S570.2,143.6,570.2,141.7z M573.4,141.7c0,1.3,0.1,2.6,0.4,3.8
		c0.3,1.2,0.7,2.2,1.3,3.2c0.6,0.9,1.3,1.6,2.2,2.2c0.9,0.5,2,0.8,3.2,0.8c2.2,0,4-0.8,5.3-2.4s1.9-4.1,1.9-7.5
		c0-1.3-0.1-2.6-0.4-3.8c-0.3-1.2-0.7-2.3-1.3-3.2c-0.6-0.9-1.3-1.6-2.2-2.2c-0.9-0.5-2-0.8-3.2-0.8c-2.2,0-4,0.8-5.2,2.4
		C574,135.8,573.4,138.3,573.4,141.7z"/>
	<path class="st16" d="M596.6,129.6h3v24.1h-3V129.6z"/>
	<path class="st16" d="M622.6,152.7c-0.7,0.5-1.6,0.9-2.7,1.1c-1.1,0.2-2.3,0.3-3.5,0.3c-1.5,0-2.9-0.2-4.3-0.7
		c-1.3-0.5-2.5-1.2-3.5-2.3c-1-1-1.8-2.3-2.3-3.9s-0.9-3.4-0.9-5.6c0-2.3,0.3-4.2,1-5.7c0.6-1.6,1.5-2.9,2.5-3.9s2.2-1.7,3.5-2.2
		c1.3-0.5,2.6-0.7,4-0.7c1.4,0,2.6,0.1,3.5,0.2c0.9,0.1,1.7,0.4,2.3,0.6l-0.7,2.6c-1.2-0.6-2.8-0.8-4.9-0.8c-1,0-2,0.2-2.9,0.5
		s-1.8,0.9-2.6,1.7c-0.8,0.8-1.4,1.8-1.8,3.1c-0.5,1.3-0.7,2.8-0.7,4.7c0,1.7,0.2,3.1,0.6,4.3c0.4,1.2,1,2.3,1.8,3.1
		c0.8,0.8,1.6,1.4,2.7,1.9c1,0.4,2.1,0.6,3.3,0.6c1.1,0,2-0.1,2.8-0.3c0.8-0.2,1.5-0.5,2-0.8L622.6,152.7z"/>
	<path class="st16" d="M627.1,129.6h13.8v2.6h-10.8v7.9h9.9v2.6h-9.9v8.6H641v2.6h-13.9V129.6z"/>
</g>
</svg>
